M48
; DRILL file {KiCad 9.0.7} date 2026-03-13T19:51:48+0530
; FORMAT={-:-/ absolute / metric / decimal}
; #@! TF.CreationDate,2026-03-13T19:51:48+05:30
; #@! TF.GenerationSoftware,Kicad,Pcbnew,9.0.7
; #@! TF.FileFunction,NonPlated,1,2,NPTH
FMAT,2
METRIC
; #@! TA.AperFunction,NonPlated,NPTH,ComponentDrill
T1C1.700
; #@! TA.AperFunction,NonPlated,NPTH,ComponentDrill
T2C2.200
; #@! TA.AperFunction,NonPlated,NPTH,ComponentDrill
T3C4.000
%
G90
G05
T1
X101.282Y-72.231
X101.282Y-91.281
X101.282Y-110.331
X101.282Y-129.381
X111.442Y-72.231
X111.442Y-91.281
X111.442Y-110.331
X111.442Y-129.381
X120.332Y-72.231
X120.332Y-91.281
X120.332Y-110.331
X120.332Y-129.381
X130.493Y-72.231
X130.493Y-91.281
X130.493Y-110.331
X130.493Y-129.381
X139.382Y-72.231
X139.382Y-91.281
X139.382Y-110.331
X139.382Y-129.381
X149.542Y-72.231
X149.542Y-91.281
X149.542Y-110.331
X149.542Y-129.381
X158.433Y-72.231
X158.433Y-91.281
X158.433Y-110.331
X158.433Y-129.381
X168.593Y-72.231
X168.593Y-91.281
X168.593Y-110.331
X168.593Y-129.381
T2
X87.931Y-42.7
X87.931Y-136.7
X181.931Y-42.7
X181.931Y-136.7
T3
X106.362Y-72.231
X106.362Y-91.281
X106.362Y-110.331
X106.362Y-129.381
X125.412Y-72.231
X125.412Y-91.281
X125.412Y-110.331
X125.412Y-129.381
X144.463Y-72.231
X144.463Y-91.281
X144.463Y-110.331
X144.463Y-129.381
X163.512Y-72.231
X163.512Y-91.281
X163.512Y-110.331
X163.512Y-129.381
M30
