%TF.GenerationSoftware,KiCad,Pcbnew,9.0.7*%
%TF.CreationDate,2026-03-13T19:51:44+05:30*%
%TF.ProjectId,PCB,5043422e-6b69-4636-9164-5f7063625858,rev?*%
%TF.SameCoordinates,Original*%
%TF.FileFunction,Legend,Bot*%
%TF.FilePolarity,Positive*%
%FSLAX46Y46*%
G04 Gerber Fmt 4.6, Leading zero omitted, Abs format (unit mm)*
G04 Created by KiCad (PCBNEW 9.0.7) date 2026-03-13 19:51:44*
%MOMM*%
%LPD*%
G01*
G04 APERTURE LIST*
%ADD10C,0.150000*%
%ADD11C,0.120000*%
G04 APERTURE END LIST*
D10*
X180291666Y-59127819D02*
X180767856Y-59127819D01*
X180767856Y-59127819D02*
X180815475Y-59604009D01*
X180815475Y-59604009D02*
X180767856Y-59556390D01*
X180767856Y-59556390D02*
X180672618Y-59508771D01*
X180672618Y-59508771D02*
X180434523Y-59508771D01*
X180434523Y-59508771D02*
X180339285Y-59556390D01*
X180339285Y-59556390D02*
X180291666Y-59604009D01*
X180291666Y-59604009D02*
X180244047Y-59699247D01*
X180244047Y-59699247D02*
X180244047Y-59937342D01*
X180244047Y-59937342D02*
X180291666Y-60032580D01*
X180291666Y-60032580D02*
X180339285Y-60080200D01*
X180339285Y-60080200D02*
X180434523Y-60127819D01*
X180434523Y-60127819D02*
X180672618Y-60127819D01*
X180672618Y-60127819D02*
X180767856Y-60080200D01*
X180767856Y-60080200D02*
X180815475Y-60032580D01*
X179958332Y-59127819D02*
X179624999Y-60127819D01*
X179624999Y-60127819D02*
X179291666Y-59127819D01*
X178482142Y-59127819D02*
X178958332Y-59127819D01*
X178958332Y-59127819D02*
X179005951Y-59604009D01*
X179005951Y-59604009D02*
X178958332Y-59556390D01*
X178958332Y-59556390D02*
X178863094Y-59508771D01*
X178863094Y-59508771D02*
X178624999Y-59508771D01*
X178624999Y-59508771D02*
X178529761Y-59556390D01*
X178529761Y-59556390D02*
X178482142Y-59604009D01*
X178482142Y-59604009D02*
X178434523Y-59699247D01*
X178434523Y-59699247D02*
X178434523Y-59937342D01*
X178434523Y-59937342D02*
X178482142Y-60032580D01*
X178482142Y-60032580D02*
X178529761Y-60080200D01*
X178529761Y-60080200D02*
X178624999Y-60127819D01*
X178624999Y-60127819D02*
X178863094Y-60127819D01*
X178863094Y-60127819D02*
X178958332Y-60080200D01*
X178958332Y-60080200D02*
X179005951Y-60032580D01*
X180386904Y-64731688D02*
X180482142Y-64684069D01*
X180482142Y-64684069D02*
X180624999Y-64684069D01*
X180624999Y-64684069D02*
X180767856Y-64731688D01*
X180767856Y-64731688D02*
X180863094Y-64826926D01*
X180863094Y-64826926D02*
X180910713Y-64922164D01*
X180910713Y-64922164D02*
X180958332Y-65112640D01*
X180958332Y-65112640D02*
X180958332Y-65255497D01*
X180958332Y-65255497D02*
X180910713Y-65445973D01*
X180910713Y-65445973D02*
X180863094Y-65541211D01*
X180863094Y-65541211D02*
X180767856Y-65636450D01*
X180767856Y-65636450D02*
X180624999Y-65684069D01*
X180624999Y-65684069D02*
X180529761Y-65684069D01*
X180529761Y-65684069D02*
X180386904Y-65636450D01*
X180386904Y-65636450D02*
X180339285Y-65588830D01*
X180339285Y-65588830D02*
X180339285Y-65255497D01*
X180339285Y-65255497D02*
X180529761Y-65255497D01*
X179910713Y-65684069D02*
X179910713Y-64684069D01*
X179910713Y-64684069D02*
X179339285Y-65684069D01*
X179339285Y-65684069D02*
X179339285Y-64684069D01*
X178863094Y-65684069D02*
X178863094Y-64684069D01*
X178863094Y-64684069D02*
X178624999Y-64684069D01*
X178624999Y-64684069D02*
X178482142Y-64731688D01*
X178482142Y-64731688D02*
X178386904Y-64826926D01*
X178386904Y-64826926D02*
X178339285Y-64922164D01*
X178339285Y-64922164D02*
X178291666Y-65112640D01*
X178291666Y-65112640D02*
X178291666Y-65255497D01*
X178291666Y-65255497D02*
X178339285Y-65445973D01*
X178339285Y-65445973D02*
X178386904Y-65541211D01*
X178386904Y-65541211D02*
X178482142Y-65636450D01*
X178482142Y-65636450D02*
X178624999Y-65684069D01*
X178624999Y-65684069D02*
X178863094Y-65684069D01*
X180863094Y-70240319D02*
X180244047Y-70240319D01*
X180244047Y-70240319D02*
X180577380Y-70621271D01*
X180577380Y-70621271D02*
X180434523Y-70621271D01*
X180434523Y-70621271D02*
X180339285Y-70668890D01*
X180339285Y-70668890D02*
X180291666Y-70716509D01*
X180291666Y-70716509D02*
X180244047Y-70811747D01*
X180244047Y-70811747D02*
X180244047Y-71049842D01*
X180244047Y-71049842D02*
X180291666Y-71145080D01*
X180291666Y-71145080D02*
X180339285Y-71192700D01*
X180339285Y-71192700D02*
X180434523Y-71240319D01*
X180434523Y-71240319D02*
X180720237Y-71240319D01*
X180720237Y-71240319D02*
X180815475Y-71192700D01*
X180815475Y-71192700D02*
X180863094Y-71145080D01*
X179958332Y-70240319D02*
X179624999Y-71240319D01*
X179624999Y-71240319D02*
X179291666Y-70240319D01*
X179053570Y-70240319D02*
X178434523Y-70240319D01*
X178434523Y-70240319D02*
X178767856Y-70621271D01*
X178767856Y-70621271D02*
X178624999Y-70621271D01*
X178624999Y-70621271D02*
X178529761Y-70668890D01*
X178529761Y-70668890D02*
X178482142Y-70716509D01*
X178482142Y-70716509D02*
X178434523Y-70811747D01*
X178434523Y-70811747D02*
X178434523Y-71049842D01*
X178434523Y-71049842D02*
X178482142Y-71145080D01*
X178482142Y-71145080D02*
X178529761Y-71192700D01*
X178529761Y-71192700D02*
X178624999Y-71240319D01*
X178624999Y-71240319D02*
X178910713Y-71240319D01*
X178910713Y-71240319D02*
X179005951Y-71192700D01*
X179005951Y-71192700D02*
X179053570Y-71145080D01*
D11*
%TO.C,5V5*%
X181825000Y-58975000D02*
X181825000Y-54575000D01*
X181825000Y-54575000D02*
X177425000Y-54575000D01*
X177425000Y-58975000D02*
X181825000Y-58975000D01*
X177425000Y-54575000D02*
X177425000Y-58975000D01*
%TO.C,GND*%
X181825000Y-64531250D02*
X181825000Y-60131250D01*
X181825000Y-60131250D02*
X177425000Y-60131250D01*
X177425000Y-64531250D02*
X181825000Y-64531250D01*
X177425000Y-60131250D02*
X177425000Y-64531250D01*
%TO.C,3V3*%
X177425000Y-70087500D02*
X181825000Y-70087500D01*
X177425000Y-65687500D02*
X177425000Y-70087500D01*
X181825000Y-70087500D02*
X181825000Y-65687500D01*
X181825000Y-65687500D02*
X177425000Y-65687500D01*
%TD*%
M02*
