%TF.GenerationSoftware,KiCad,Pcbnew,9.0.7*%
%TF.CreationDate,2026-03-13T19:51:43+05:30*%
%TF.ProjectId,PCB,5043422e-6b69-4636-9164-5f7063625858,rev?*%
%TF.SameCoordinates,Original*%
%TF.FileFunction,Copper,L2,Bot*%
%TF.FilePolarity,Positive*%
%FSLAX46Y46*%
G04 Gerber Fmt 4.6, Leading zero omitted, Abs format (unit mm)*
G04 Created by KiCad (PCBNEW 9.0.7) date 2026-03-13 19:51:43*
%MOMM*%
%LPD*%
G01*
G04 APERTURE LIST*
%TA.AperFunction,SMDPad,CuDef*%
%ADD10R,4.000000X4.000000*%
%TD*%
%TA.AperFunction,ComponentPad*%
%ADD11C,1.700000*%
%TD*%
%TA.AperFunction,ComponentPad*%
%ADD12C,2.200000*%
%TD*%
%TA.AperFunction,ComponentPad*%
%ADD13R,2.000000X2.000000*%
%TD*%
%TA.AperFunction,ComponentPad*%
%ADD14C,2.000000*%
%TD*%
%TA.AperFunction,ComponentPad*%
%ADD15R,3.200000X2.000000*%
%TD*%
%TA.AperFunction,ViaPad*%
%ADD16C,0.600000*%
%TD*%
%TA.AperFunction,Conductor*%
%ADD17C,0.200000*%
%TD*%
G04 APERTURE END LIST*
D10*
%TO.P,5V5,1*%
%TO.N,+5V*%
X179625000Y-56775000D03*
%TD*%
%TO.P,GND,1*%
%TO.N,GND*%
X179625000Y-62331250D03*
%TD*%
%TO.P,3V3,1*%
%TO.N,+3V3*%
X179625000Y-67887500D03*
%TD*%
D11*
%TO.P,U1,23,GP9*%
%TO.N,unconnected-(U1-GP9-Pad23)_1*%
X140017500Y-61912500D03*
%TO.P,U1,22,GP10*%
%TO.N,ROT1B*%
X137477500Y-61912500D03*
%TO.P,U1,21,GP11*%
%TO.N,ROT1A*%
X134937500Y-61912500D03*
%TO.P,U1,20,GP12*%
%TO.N,COL3*%
X132397500Y-61912500D03*
%TO.P,U1,19,GP13*%
%TO.N,COL2*%
X129857500Y-61912500D03*
%TO.P,U1,18,GP8*%
%TO.N,ROT2B*%
X142557500Y-61912500D03*
%TO.P,U1,17,GP7*%
%TO.N,ROT2A*%
X142557500Y-59372500D03*
%TO.P,U1,16,GP6*%
%TO.N,unconnected-(U1-GP6-Pad16)*%
X142557500Y-56832500D03*
%TO.P,U1,15,GP5*%
%TO.N,unconnected-(U1-GP5-Pad15)*%
X142557500Y-54292500D03*
%TO.P,U1,14,GP4*%
%TO.N,unconnected-(U1-GP4-Pad14)*%
X142557500Y-51752500D03*
%TO.P,U1,13,GP3*%
%TO.N,unconnected-(U1-GP3-Pad13)*%
X142557500Y-49212500D03*
%TO.P,U1,12,GP2*%
%TO.N,unconnected-(U1-GP2-Pad12)*%
X142557500Y-46672500D03*
%TO.P,U1,11,GP1*%
%TO.N,unconnected-(U1-GP1-Pad11)*%
X142557500Y-44132500D03*
%TO.P,U1,10,GP0*%
%TO.N,unconnected-(U1-GP0-Pad10)*%
X142557500Y-41592500D03*
%TO.P,U1,9,GP14*%
%TO.N,COL1*%
X127317500Y-61912500D03*
%TO.P,U1,8,GP15*%
%TO.N,COL0*%
X127317500Y-59372500D03*
%TO.P,U1,7,GP26*%
%TO.N,ROW3*%
X127317500Y-56832500D03*
%TO.P,U1,6,GP27*%
%TO.N,ROW2*%
X127317500Y-54292500D03*
%TO.P,U1,5,GP28*%
%TO.N,ROW1*%
X127317500Y-51752500D03*
%TO.P,U1,4,GP29*%
%TO.N,ROW0*%
X127317500Y-49212500D03*
%TO.P,U1,3,3V3*%
%TO.N,+3V3*%
X127317500Y-46672500D03*
%TO.P,U1,2,GND*%
%TO.N,GND*%
X127317500Y-44132500D03*
%TO.P,U1,1,5V*%
%TO.N,+5V*%
X127317500Y-41592500D03*
%TD*%
D12*
%TO.P,SW16,1,1*%
%TO.N,ROW3*%
X166052500Y-124301250D03*
%TO.P,SW16,2,2*%
%TO.N,Net-(D16-A)*%
X159702500Y-126841250D03*
%TD*%
%TO.P,SW15,1,1*%
%TO.N,ROW2*%
X147002500Y-124301250D03*
%TO.P,SW15,2,2*%
%TO.N,Net-(D15-A)*%
X140652500Y-126841250D03*
%TD*%
%TO.P,SW14,1,1*%
%TO.N,ROW1*%
X127952500Y-124301250D03*
%TO.P,SW14,2,2*%
%TO.N,Net-(D14-A)*%
X121602500Y-126841250D03*
%TD*%
%TO.P,SW13,1,1*%
%TO.N,ROW0*%
X108902500Y-124301250D03*
%TO.P,SW13,2,2*%
%TO.N,Net-(D13-A)*%
X102552500Y-126841250D03*
%TD*%
%TO.P,SW12,1,1*%
%TO.N,ROW3*%
X166052500Y-105251250D03*
%TO.P,SW12,2,2*%
%TO.N,Net-(D12-A)*%
X159702500Y-107791250D03*
%TD*%
%TO.P,SW11,1,1*%
%TO.N,ROW2*%
X147002500Y-105251250D03*
%TO.P,SW11,2,2*%
%TO.N,Net-(D11-A)*%
X140652500Y-107791250D03*
%TD*%
%TO.P,SW10,1,1*%
%TO.N,ROW1*%
X127952500Y-105251250D03*
%TO.P,SW10,2,2*%
%TO.N,Net-(D10-A)*%
X121602500Y-107791250D03*
%TD*%
%TO.P,SW9,1,1*%
%TO.N,ROW0*%
X108902500Y-105251250D03*
%TO.P,SW9,2,2*%
%TO.N,Net-(D9-A)*%
X102552500Y-107791250D03*
%TD*%
%TO.P,SW8,1,1*%
%TO.N,ROW3*%
X166052500Y-86201250D03*
%TO.P,SW8,2,2*%
%TO.N,Net-(D8-A)*%
X159702500Y-88741250D03*
%TD*%
%TO.P,SW7,1,1*%
%TO.N,ROW2*%
X147002500Y-86201250D03*
%TO.P,SW7,2,2*%
%TO.N,Net-(D7-A)*%
X140652500Y-88741250D03*
%TD*%
%TO.P,SW6,1,1*%
%TO.N,ROW1*%
X127952500Y-86201250D03*
%TO.P,SW6,2,2*%
%TO.N,Net-(D6-A)*%
X121602500Y-88741250D03*
%TD*%
%TO.P,SW5,1,1*%
%TO.N,ROW0*%
X108902500Y-86201250D03*
%TO.P,SW5,2,2*%
%TO.N,Net-(D5-A)*%
X102552500Y-88741250D03*
%TD*%
%TO.P,SW4,1,1*%
%TO.N,ROW3*%
X166052500Y-67151250D03*
%TO.P,SW4,2,2*%
%TO.N,Net-(D4-A)*%
X159702500Y-69691250D03*
%TD*%
%TO.P,SW3,1,1*%
%TO.N,ROW2*%
X147002500Y-67151250D03*
%TO.P,SW3,2,2*%
%TO.N,Net-(D3-A)*%
X140652500Y-69691250D03*
%TD*%
%TO.P,SW2,1,1*%
%TO.N,ROW1*%
X127952500Y-67151250D03*
%TO.P,SW2,2,2*%
%TO.N,Net-(D2-A)*%
X121602500Y-69691250D03*
%TD*%
%TO.P,SW1,1,1*%
%TO.N,ROW0*%
X108902500Y-67151250D03*
%TO.P,SW1,2,2*%
%TO.N,Net-(D1-A)*%
X102552500Y-69691250D03*
%TD*%
D13*
%TO.P,SW17,A,A*%
%TO.N,ROT1A*%
X99006250Y-50562500D03*
D14*
%TO.P,SW17,B,B*%
%TO.N,ROT1B*%
X99006250Y-55562500D03*
%TO.P,SW17,C,C*%
%TO.N,GND*%
X99006250Y-53062500D03*
D15*
%TO.P,SW17,MP*%
%TO.N,N/C*%
X106506250Y-47462500D03*
X106506250Y-58662500D03*
D14*
%TO.P,SW17,S1,S1*%
%TO.N,Net-(D17-A)*%
X113506250Y-55562500D03*
%TO.P,SW17,S2,S2*%
%TO.N,ROW0*%
X113506250Y-50562500D03*
%TD*%
D13*
%TO.P,SW18,A,A*%
%TO.N,ROT2A*%
X156012500Y-50725000D03*
D14*
%TO.P,SW18,B,B*%
%TO.N,ROT2B*%
X156012500Y-55725000D03*
%TO.P,SW18,C,C*%
%TO.N,GND*%
X156012500Y-53225000D03*
D15*
%TO.P,SW18,MP*%
%TO.N,N/C*%
X163512500Y-47625000D03*
X163512500Y-58825000D03*
D14*
%TO.P,SW18,S1,S1*%
%TO.N,Net-(D18-A)*%
X170512500Y-55725000D03*
%TO.P,SW18,S2,S2*%
%TO.N,ROW3*%
X170512500Y-50725000D03*
%TD*%
D16*
%TO.N,+3V3*%
X180225000Y-53075000D03*
X172250000Y-48926000D03*
%TO.N,GND*%
X161700000Y-61800000D03*
X166652500Y-63175000D03*
%TO.N,ROT1B*%
X137475000Y-59575000D03*
X123425000Y-49500000D03*
%TO.N,ROT1A*%
X112125000Y-48375000D03*
%TO.N,COL3*%
X171950000Y-65900000D03*
X169625000Y-64400000D03*
%TO.N,COL2*%
X133550000Y-68250000D03*
X123525000Y-65749250D03*
X135275000Y-95753750D03*
X129857500Y-62812500D03*
%TO.N,COL1*%
X131700000Y-76641250D03*
X119450000Y-62800000D03*
X117506985Y-62793015D03*
X130325000Y-69400000D03*
%TD*%
D17*
%TO.N,+5V*%
X179625000Y-56775000D02*
X177175000Y-54325000D01*
X177175000Y-41375000D02*
X176101000Y-40301000D01*
X176101000Y-40301000D02*
X141274000Y-40301000D01*
X177175000Y-54325000D02*
X177175000Y-41375000D01*
X141274000Y-40301000D02*
X140900000Y-40675000D01*
X140900000Y-40675000D02*
X128235000Y-40675000D01*
X128235000Y-40675000D02*
X127317500Y-41592500D01*
%TO.N,+3V3*%
X143898760Y-48926000D02*
X142796260Y-47823500D01*
X133515600Y-47823500D02*
X132364600Y-46672500D01*
X132364600Y-46672500D02*
X127317500Y-46672500D01*
X172250000Y-48926000D02*
X143898760Y-48926000D01*
X142796260Y-47823500D02*
X133515600Y-47823500D01*
X180527000Y-53075000D02*
X180225000Y-53075000D01*
X181926000Y-54474000D02*
X180527000Y-53075000D01*
X181926000Y-65586500D02*
X181926000Y-54474000D01*
X179625000Y-67887500D02*
X181926000Y-65586500D01*
%TO.N,GND*%
X179625000Y-62331250D02*
X178781250Y-63175000D01*
X178781250Y-63175000D02*
X166652500Y-63175000D01*
X161700000Y-61800000D02*
X161500000Y-61600000D01*
X161500000Y-61600000D02*
X161500000Y-58712500D01*
X161500000Y-58712500D02*
X156012500Y-53225000D01*
%TO.N,ROT2B*%
X142557500Y-61912500D02*
X145237500Y-61912500D01*
X147100000Y-55625000D02*
X155912500Y-55625000D01*
X155912500Y-55625000D02*
X156012500Y-55725000D01*
X145237500Y-61912500D02*
X145825000Y-61325000D01*
X146626000Y-59016100D02*
X146626000Y-56099000D01*
X145825000Y-61325000D02*
X145825000Y-59817100D01*
X145825000Y-59817100D02*
X146626000Y-59016100D01*
X146626000Y-56099000D02*
X147100000Y-55625000D01*
%TO.N,ROT2A*%
X142557500Y-59372500D02*
X145702500Y-59372500D01*
X145702500Y-59372500D02*
X146225000Y-58850000D01*
X146225000Y-58850000D02*
X146225000Y-51400000D01*
X146225000Y-51400000D02*
X146900000Y-50725000D01*
X146900000Y-50725000D02*
X156012500Y-50725000D01*
%TO.N,ROT1B*%
X99006250Y-55562500D02*
X106666358Y-55562500D01*
X106666358Y-55562500D02*
X112967358Y-49261500D01*
X112967358Y-49261500D02*
X123186500Y-49261500D01*
X123186500Y-49261500D02*
X123425000Y-49500000D01*
X137475000Y-59575000D02*
X137477500Y-59577500D01*
X137477500Y-59577500D02*
X137477500Y-61912500D01*
%TO.N,ROT1A*%
X112438500Y-48061500D02*
X112125000Y-48375000D01*
X133186500Y-48061500D02*
X112438500Y-48061500D01*
X133925000Y-48800000D02*
X133186500Y-48061500D01*
X134937500Y-61912500D02*
X134937500Y-49812500D01*
X134937500Y-49812500D02*
X133925000Y-48800000D01*
%TO.N,GND*%
X99006250Y-53062500D02*
X105160500Y-53062500D01*
X105160500Y-53062500D02*
X114090500Y-44132500D01*
X114090500Y-44132500D02*
X127317500Y-44132500D01*
%TO.N,COL3*%
X171950000Y-65900000D02*
X170450000Y-64400000D01*
X170450000Y-64400000D02*
X169625000Y-64400000D01*
%TO.N,COL2*%
X133550000Y-94028750D02*
X133550000Y-68250000D01*
X135275000Y-95753750D02*
X133550000Y-94028750D01*
X123525000Y-64725000D02*
X123975000Y-64275000D01*
X128395000Y-64275000D02*
X129857500Y-62812500D01*
X123525000Y-65749250D02*
X123525000Y-64725000D01*
X123975000Y-64275000D02*
X128395000Y-64275000D01*
%TO.N,COL1*%
X131700000Y-70225000D02*
X130875000Y-69400000D01*
X130875000Y-69400000D02*
X130325000Y-69400000D01*
X117506985Y-62793015D02*
X119443015Y-62793015D01*
X119443015Y-62793015D02*
X119450000Y-62800000D01*
X131700000Y-76641250D02*
X131700000Y-70225000D01*
%TO.N,ROW3*%
X166052500Y-67151250D02*
X164250500Y-65349250D01*
X164250500Y-65349250D02*
X127206086Y-65349250D01*
X127206086Y-65349250D02*
X126206086Y-66349250D01*
X126206086Y-66349250D02*
X120983450Y-66349250D01*
X120983450Y-66349250D02*
X120852000Y-66217800D01*
X120852000Y-66217800D02*
X120852000Y-57173000D01*
X120852000Y-57173000D02*
X121192500Y-56832500D01*
X121192500Y-56832500D02*
X127317500Y-56832500D01*
%TO.N,ROW2*%
X127317500Y-54292500D02*
X120883500Y-54292500D01*
X120883500Y-54292500D02*
X120451000Y-54725000D01*
X120451000Y-54725000D02*
X120451000Y-66383900D01*
X120451000Y-66383900D02*
X120817350Y-66750250D01*
X127372186Y-65750250D02*
X145601500Y-65750250D01*
X120817350Y-66750250D02*
X126372186Y-66750250D01*
X126372186Y-66750250D02*
X127372186Y-65750250D01*
X145601500Y-65750250D02*
X147002500Y-67151250D01*
%TO.N,ROW1*%
X127317500Y-51752500D02*
X120522500Y-51752500D01*
X120522500Y-51752500D02*
X120050000Y-52225000D01*
X120050000Y-52225000D02*
X120050000Y-66550000D01*
X120050000Y-66550000D02*
X120651250Y-67151250D01*
X120651250Y-67151250D02*
X127952500Y-67151250D01*
%TO.N,ROW0*%
X127317500Y-49212500D02*
X125967500Y-50562500D01*
X125967500Y-50562500D02*
X113506250Y-50562500D01*
X108902500Y-67151250D02*
X108902500Y-55166250D01*
X108902500Y-55166250D02*
X113506250Y-50562500D01*
X108902500Y-124301250D02*
X108902500Y-67151250D01*
%TO.N,ROW1*%
X127952500Y-67151250D02*
X127952500Y-124301250D01*
%TO.N,ROW2*%
X147002500Y-124301250D02*
X147002500Y-67151250D01*
%TO.N,ROW3*%
X166052500Y-55185000D02*
X170512500Y-50725000D01*
X166052500Y-67151250D02*
X166052500Y-55185000D01*
X166052500Y-67151250D02*
X166052500Y-124301250D01*
%TD*%
M02*
