%TF.GenerationSoftware,KiCad,Pcbnew,9.0.7*%
%TF.CreationDate,2026-03-13T19:51:44+05:30*%
%TF.ProjectId,PCB,5043422e-6b69-4636-9164-5f7063625858,rev?*%
%TF.SameCoordinates,Original*%
%TF.FileFunction,Legend,Top*%
%TF.FilePolarity,Positive*%
%FSLAX46Y46*%
G04 Gerber Fmt 4.6, Leading zero omitted, Abs format (unit mm)*
G04 Created by KiCad (PCBNEW 9.0.7) date 2026-03-13 19:51:44*
%MOMM*%
%LPD*%
G01*
G04 APERTURE LIST*
%ADD10C,0.150000*%
%ADD11C,0.120000*%
G04 APERTURE END LIST*
D10*
X161702976Y-121914450D02*
X161845833Y-121962069D01*
X161845833Y-121962069D02*
X162083928Y-121962069D01*
X162083928Y-121962069D02*
X162179166Y-121914450D01*
X162179166Y-121914450D02*
X162226785Y-121866830D01*
X162226785Y-121866830D02*
X162274404Y-121771592D01*
X162274404Y-121771592D02*
X162274404Y-121676354D01*
X162274404Y-121676354D02*
X162226785Y-121581116D01*
X162226785Y-121581116D02*
X162179166Y-121533497D01*
X162179166Y-121533497D02*
X162083928Y-121485878D01*
X162083928Y-121485878D02*
X161893452Y-121438259D01*
X161893452Y-121438259D02*
X161798214Y-121390640D01*
X161798214Y-121390640D02*
X161750595Y-121343021D01*
X161750595Y-121343021D02*
X161702976Y-121247783D01*
X161702976Y-121247783D02*
X161702976Y-121152545D01*
X161702976Y-121152545D02*
X161750595Y-121057307D01*
X161750595Y-121057307D02*
X161798214Y-121009688D01*
X161798214Y-121009688D02*
X161893452Y-120962069D01*
X161893452Y-120962069D02*
X162131547Y-120962069D01*
X162131547Y-120962069D02*
X162274404Y-121009688D01*
X162607738Y-120962069D02*
X162845833Y-121962069D01*
X162845833Y-121962069D02*
X163036309Y-121247783D01*
X163036309Y-121247783D02*
X163226785Y-121962069D01*
X163226785Y-121962069D02*
X163464881Y-120962069D01*
X164369642Y-121962069D02*
X163798214Y-121962069D01*
X164083928Y-121962069D02*
X164083928Y-120962069D01*
X164083928Y-120962069D02*
X163988690Y-121104926D01*
X163988690Y-121104926D02*
X163893452Y-121200164D01*
X163893452Y-121200164D02*
X163798214Y-121247783D01*
X165226785Y-120962069D02*
X165036309Y-120962069D01*
X165036309Y-120962069D02*
X164941071Y-121009688D01*
X164941071Y-121009688D02*
X164893452Y-121057307D01*
X164893452Y-121057307D02*
X164798214Y-121200164D01*
X164798214Y-121200164D02*
X164750595Y-121390640D01*
X164750595Y-121390640D02*
X164750595Y-121771592D01*
X164750595Y-121771592D02*
X164798214Y-121866830D01*
X164798214Y-121866830D02*
X164845833Y-121914450D01*
X164845833Y-121914450D02*
X164941071Y-121962069D01*
X164941071Y-121962069D02*
X165131547Y-121962069D01*
X165131547Y-121962069D02*
X165226785Y-121914450D01*
X165226785Y-121914450D02*
X165274404Y-121866830D01*
X165274404Y-121866830D02*
X165322023Y-121771592D01*
X165322023Y-121771592D02*
X165322023Y-121533497D01*
X165322023Y-121533497D02*
X165274404Y-121438259D01*
X165274404Y-121438259D02*
X165226785Y-121390640D01*
X165226785Y-121390640D02*
X165131547Y-121343021D01*
X165131547Y-121343021D02*
X164941071Y-121343021D01*
X164941071Y-121343021D02*
X164845833Y-121390640D01*
X164845833Y-121390640D02*
X164798214Y-121438259D01*
X164798214Y-121438259D02*
X164750595Y-121533497D01*
X142652976Y-121914450D02*
X142795833Y-121962069D01*
X142795833Y-121962069D02*
X143033928Y-121962069D01*
X143033928Y-121962069D02*
X143129166Y-121914450D01*
X143129166Y-121914450D02*
X143176785Y-121866830D01*
X143176785Y-121866830D02*
X143224404Y-121771592D01*
X143224404Y-121771592D02*
X143224404Y-121676354D01*
X143224404Y-121676354D02*
X143176785Y-121581116D01*
X143176785Y-121581116D02*
X143129166Y-121533497D01*
X143129166Y-121533497D02*
X143033928Y-121485878D01*
X143033928Y-121485878D02*
X142843452Y-121438259D01*
X142843452Y-121438259D02*
X142748214Y-121390640D01*
X142748214Y-121390640D02*
X142700595Y-121343021D01*
X142700595Y-121343021D02*
X142652976Y-121247783D01*
X142652976Y-121247783D02*
X142652976Y-121152545D01*
X142652976Y-121152545D02*
X142700595Y-121057307D01*
X142700595Y-121057307D02*
X142748214Y-121009688D01*
X142748214Y-121009688D02*
X142843452Y-120962069D01*
X142843452Y-120962069D02*
X143081547Y-120962069D01*
X143081547Y-120962069D02*
X143224404Y-121009688D01*
X143557738Y-120962069D02*
X143795833Y-121962069D01*
X143795833Y-121962069D02*
X143986309Y-121247783D01*
X143986309Y-121247783D02*
X144176785Y-121962069D01*
X144176785Y-121962069D02*
X144414881Y-120962069D01*
X145319642Y-121962069D02*
X144748214Y-121962069D01*
X145033928Y-121962069D02*
X145033928Y-120962069D01*
X145033928Y-120962069D02*
X144938690Y-121104926D01*
X144938690Y-121104926D02*
X144843452Y-121200164D01*
X144843452Y-121200164D02*
X144748214Y-121247783D01*
X146224404Y-120962069D02*
X145748214Y-120962069D01*
X145748214Y-120962069D02*
X145700595Y-121438259D01*
X145700595Y-121438259D02*
X145748214Y-121390640D01*
X145748214Y-121390640D02*
X145843452Y-121343021D01*
X145843452Y-121343021D02*
X146081547Y-121343021D01*
X146081547Y-121343021D02*
X146176785Y-121390640D01*
X146176785Y-121390640D02*
X146224404Y-121438259D01*
X146224404Y-121438259D02*
X146272023Y-121533497D01*
X146272023Y-121533497D02*
X146272023Y-121771592D01*
X146272023Y-121771592D02*
X146224404Y-121866830D01*
X146224404Y-121866830D02*
X146176785Y-121914450D01*
X146176785Y-121914450D02*
X146081547Y-121962069D01*
X146081547Y-121962069D02*
X145843452Y-121962069D01*
X145843452Y-121962069D02*
X145748214Y-121914450D01*
X145748214Y-121914450D02*
X145700595Y-121866830D01*
X123602976Y-121914450D02*
X123745833Y-121962069D01*
X123745833Y-121962069D02*
X123983928Y-121962069D01*
X123983928Y-121962069D02*
X124079166Y-121914450D01*
X124079166Y-121914450D02*
X124126785Y-121866830D01*
X124126785Y-121866830D02*
X124174404Y-121771592D01*
X124174404Y-121771592D02*
X124174404Y-121676354D01*
X124174404Y-121676354D02*
X124126785Y-121581116D01*
X124126785Y-121581116D02*
X124079166Y-121533497D01*
X124079166Y-121533497D02*
X123983928Y-121485878D01*
X123983928Y-121485878D02*
X123793452Y-121438259D01*
X123793452Y-121438259D02*
X123698214Y-121390640D01*
X123698214Y-121390640D02*
X123650595Y-121343021D01*
X123650595Y-121343021D02*
X123602976Y-121247783D01*
X123602976Y-121247783D02*
X123602976Y-121152545D01*
X123602976Y-121152545D02*
X123650595Y-121057307D01*
X123650595Y-121057307D02*
X123698214Y-121009688D01*
X123698214Y-121009688D02*
X123793452Y-120962069D01*
X123793452Y-120962069D02*
X124031547Y-120962069D01*
X124031547Y-120962069D02*
X124174404Y-121009688D01*
X124507738Y-120962069D02*
X124745833Y-121962069D01*
X124745833Y-121962069D02*
X124936309Y-121247783D01*
X124936309Y-121247783D02*
X125126785Y-121962069D01*
X125126785Y-121962069D02*
X125364881Y-120962069D01*
X126269642Y-121962069D02*
X125698214Y-121962069D01*
X125983928Y-121962069D02*
X125983928Y-120962069D01*
X125983928Y-120962069D02*
X125888690Y-121104926D01*
X125888690Y-121104926D02*
X125793452Y-121200164D01*
X125793452Y-121200164D02*
X125698214Y-121247783D01*
X127126785Y-121295402D02*
X127126785Y-121962069D01*
X126888690Y-120914450D02*
X126650595Y-121628735D01*
X126650595Y-121628735D02*
X127269642Y-121628735D01*
X104552976Y-121914450D02*
X104695833Y-121962069D01*
X104695833Y-121962069D02*
X104933928Y-121962069D01*
X104933928Y-121962069D02*
X105029166Y-121914450D01*
X105029166Y-121914450D02*
X105076785Y-121866830D01*
X105076785Y-121866830D02*
X105124404Y-121771592D01*
X105124404Y-121771592D02*
X105124404Y-121676354D01*
X105124404Y-121676354D02*
X105076785Y-121581116D01*
X105076785Y-121581116D02*
X105029166Y-121533497D01*
X105029166Y-121533497D02*
X104933928Y-121485878D01*
X104933928Y-121485878D02*
X104743452Y-121438259D01*
X104743452Y-121438259D02*
X104648214Y-121390640D01*
X104648214Y-121390640D02*
X104600595Y-121343021D01*
X104600595Y-121343021D02*
X104552976Y-121247783D01*
X104552976Y-121247783D02*
X104552976Y-121152545D01*
X104552976Y-121152545D02*
X104600595Y-121057307D01*
X104600595Y-121057307D02*
X104648214Y-121009688D01*
X104648214Y-121009688D02*
X104743452Y-120962069D01*
X104743452Y-120962069D02*
X104981547Y-120962069D01*
X104981547Y-120962069D02*
X105124404Y-121009688D01*
X105457738Y-120962069D02*
X105695833Y-121962069D01*
X105695833Y-121962069D02*
X105886309Y-121247783D01*
X105886309Y-121247783D02*
X106076785Y-121962069D01*
X106076785Y-121962069D02*
X106314881Y-120962069D01*
X107219642Y-121962069D02*
X106648214Y-121962069D01*
X106933928Y-121962069D02*
X106933928Y-120962069D01*
X106933928Y-120962069D02*
X106838690Y-121104926D01*
X106838690Y-121104926D02*
X106743452Y-121200164D01*
X106743452Y-121200164D02*
X106648214Y-121247783D01*
X107552976Y-120962069D02*
X108172023Y-120962069D01*
X108172023Y-120962069D02*
X107838690Y-121343021D01*
X107838690Y-121343021D02*
X107981547Y-121343021D01*
X107981547Y-121343021D02*
X108076785Y-121390640D01*
X108076785Y-121390640D02*
X108124404Y-121438259D01*
X108124404Y-121438259D02*
X108172023Y-121533497D01*
X108172023Y-121533497D02*
X108172023Y-121771592D01*
X108172023Y-121771592D02*
X108124404Y-121866830D01*
X108124404Y-121866830D02*
X108076785Y-121914450D01*
X108076785Y-121914450D02*
X107981547Y-121962069D01*
X107981547Y-121962069D02*
X107695833Y-121962069D01*
X107695833Y-121962069D02*
X107600595Y-121914450D01*
X107600595Y-121914450D02*
X107552976Y-121866830D01*
X161702976Y-102864450D02*
X161845833Y-102912069D01*
X161845833Y-102912069D02*
X162083928Y-102912069D01*
X162083928Y-102912069D02*
X162179166Y-102864450D01*
X162179166Y-102864450D02*
X162226785Y-102816830D01*
X162226785Y-102816830D02*
X162274404Y-102721592D01*
X162274404Y-102721592D02*
X162274404Y-102626354D01*
X162274404Y-102626354D02*
X162226785Y-102531116D01*
X162226785Y-102531116D02*
X162179166Y-102483497D01*
X162179166Y-102483497D02*
X162083928Y-102435878D01*
X162083928Y-102435878D02*
X161893452Y-102388259D01*
X161893452Y-102388259D02*
X161798214Y-102340640D01*
X161798214Y-102340640D02*
X161750595Y-102293021D01*
X161750595Y-102293021D02*
X161702976Y-102197783D01*
X161702976Y-102197783D02*
X161702976Y-102102545D01*
X161702976Y-102102545D02*
X161750595Y-102007307D01*
X161750595Y-102007307D02*
X161798214Y-101959688D01*
X161798214Y-101959688D02*
X161893452Y-101912069D01*
X161893452Y-101912069D02*
X162131547Y-101912069D01*
X162131547Y-101912069D02*
X162274404Y-101959688D01*
X162607738Y-101912069D02*
X162845833Y-102912069D01*
X162845833Y-102912069D02*
X163036309Y-102197783D01*
X163036309Y-102197783D02*
X163226785Y-102912069D01*
X163226785Y-102912069D02*
X163464881Y-101912069D01*
X164369642Y-102912069D02*
X163798214Y-102912069D01*
X164083928Y-102912069D02*
X164083928Y-101912069D01*
X164083928Y-101912069D02*
X163988690Y-102054926D01*
X163988690Y-102054926D02*
X163893452Y-102150164D01*
X163893452Y-102150164D02*
X163798214Y-102197783D01*
X164750595Y-102007307D02*
X164798214Y-101959688D01*
X164798214Y-101959688D02*
X164893452Y-101912069D01*
X164893452Y-101912069D02*
X165131547Y-101912069D01*
X165131547Y-101912069D02*
X165226785Y-101959688D01*
X165226785Y-101959688D02*
X165274404Y-102007307D01*
X165274404Y-102007307D02*
X165322023Y-102102545D01*
X165322023Y-102102545D02*
X165322023Y-102197783D01*
X165322023Y-102197783D02*
X165274404Y-102340640D01*
X165274404Y-102340640D02*
X164702976Y-102912069D01*
X164702976Y-102912069D02*
X165322023Y-102912069D01*
X142652976Y-102864450D02*
X142795833Y-102912069D01*
X142795833Y-102912069D02*
X143033928Y-102912069D01*
X143033928Y-102912069D02*
X143129166Y-102864450D01*
X143129166Y-102864450D02*
X143176785Y-102816830D01*
X143176785Y-102816830D02*
X143224404Y-102721592D01*
X143224404Y-102721592D02*
X143224404Y-102626354D01*
X143224404Y-102626354D02*
X143176785Y-102531116D01*
X143176785Y-102531116D02*
X143129166Y-102483497D01*
X143129166Y-102483497D02*
X143033928Y-102435878D01*
X143033928Y-102435878D02*
X142843452Y-102388259D01*
X142843452Y-102388259D02*
X142748214Y-102340640D01*
X142748214Y-102340640D02*
X142700595Y-102293021D01*
X142700595Y-102293021D02*
X142652976Y-102197783D01*
X142652976Y-102197783D02*
X142652976Y-102102545D01*
X142652976Y-102102545D02*
X142700595Y-102007307D01*
X142700595Y-102007307D02*
X142748214Y-101959688D01*
X142748214Y-101959688D02*
X142843452Y-101912069D01*
X142843452Y-101912069D02*
X143081547Y-101912069D01*
X143081547Y-101912069D02*
X143224404Y-101959688D01*
X143557738Y-101912069D02*
X143795833Y-102912069D01*
X143795833Y-102912069D02*
X143986309Y-102197783D01*
X143986309Y-102197783D02*
X144176785Y-102912069D01*
X144176785Y-102912069D02*
X144414881Y-101912069D01*
X145319642Y-102912069D02*
X144748214Y-102912069D01*
X145033928Y-102912069D02*
X145033928Y-101912069D01*
X145033928Y-101912069D02*
X144938690Y-102054926D01*
X144938690Y-102054926D02*
X144843452Y-102150164D01*
X144843452Y-102150164D02*
X144748214Y-102197783D01*
X146272023Y-102912069D02*
X145700595Y-102912069D01*
X145986309Y-102912069D02*
X145986309Y-101912069D01*
X145986309Y-101912069D02*
X145891071Y-102054926D01*
X145891071Y-102054926D02*
X145795833Y-102150164D01*
X145795833Y-102150164D02*
X145700595Y-102197783D01*
X123602976Y-102864450D02*
X123745833Y-102912069D01*
X123745833Y-102912069D02*
X123983928Y-102912069D01*
X123983928Y-102912069D02*
X124079166Y-102864450D01*
X124079166Y-102864450D02*
X124126785Y-102816830D01*
X124126785Y-102816830D02*
X124174404Y-102721592D01*
X124174404Y-102721592D02*
X124174404Y-102626354D01*
X124174404Y-102626354D02*
X124126785Y-102531116D01*
X124126785Y-102531116D02*
X124079166Y-102483497D01*
X124079166Y-102483497D02*
X123983928Y-102435878D01*
X123983928Y-102435878D02*
X123793452Y-102388259D01*
X123793452Y-102388259D02*
X123698214Y-102340640D01*
X123698214Y-102340640D02*
X123650595Y-102293021D01*
X123650595Y-102293021D02*
X123602976Y-102197783D01*
X123602976Y-102197783D02*
X123602976Y-102102545D01*
X123602976Y-102102545D02*
X123650595Y-102007307D01*
X123650595Y-102007307D02*
X123698214Y-101959688D01*
X123698214Y-101959688D02*
X123793452Y-101912069D01*
X123793452Y-101912069D02*
X124031547Y-101912069D01*
X124031547Y-101912069D02*
X124174404Y-101959688D01*
X124507738Y-101912069D02*
X124745833Y-102912069D01*
X124745833Y-102912069D02*
X124936309Y-102197783D01*
X124936309Y-102197783D02*
X125126785Y-102912069D01*
X125126785Y-102912069D02*
X125364881Y-101912069D01*
X126269642Y-102912069D02*
X125698214Y-102912069D01*
X125983928Y-102912069D02*
X125983928Y-101912069D01*
X125983928Y-101912069D02*
X125888690Y-102054926D01*
X125888690Y-102054926D02*
X125793452Y-102150164D01*
X125793452Y-102150164D02*
X125698214Y-102197783D01*
X126888690Y-101912069D02*
X126983928Y-101912069D01*
X126983928Y-101912069D02*
X127079166Y-101959688D01*
X127079166Y-101959688D02*
X127126785Y-102007307D01*
X127126785Y-102007307D02*
X127174404Y-102102545D01*
X127174404Y-102102545D02*
X127222023Y-102293021D01*
X127222023Y-102293021D02*
X127222023Y-102531116D01*
X127222023Y-102531116D02*
X127174404Y-102721592D01*
X127174404Y-102721592D02*
X127126785Y-102816830D01*
X127126785Y-102816830D02*
X127079166Y-102864450D01*
X127079166Y-102864450D02*
X126983928Y-102912069D01*
X126983928Y-102912069D02*
X126888690Y-102912069D01*
X126888690Y-102912069D02*
X126793452Y-102864450D01*
X126793452Y-102864450D02*
X126745833Y-102816830D01*
X126745833Y-102816830D02*
X126698214Y-102721592D01*
X126698214Y-102721592D02*
X126650595Y-102531116D01*
X126650595Y-102531116D02*
X126650595Y-102293021D01*
X126650595Y-102293021D02*
X126698214Y-102102545D01*
X126698214Y-102102545D02*
X126745833Y-102007307D01*
X126745833Y-102007307D02*
X126793452Y-101959688D01*
X126793452Y-101959688D02*
X126888690Y-101912069D01*
X105029167Y-102864450D02*
X105172024Y-102912069D01*
X105172024Y-102912069D02*
X105410119Y-102912069D01*
X105410119Y-102912069D02*
X105505357Y-102864450D01*
X105505357Y-102864450D02*
X105552976Y-102816830D01*
X105552976Y-102816830D02*
X105600595Y-102721592D01*
X105600595Y-102721592D02*
X105600595Y-102626354D01*
X105600595Y-102626354D02*
X105552976Y-102531116D01*
X105552976Y-102531116D02*
X105505357Y-102483497D01*
X105505357Y-102483497D02*
X105410119Y-102435878D01*
X105410119Y-102435878D02*
X105219643Y-102388259D01*
X105219643Y-102388259D02*
X105124405Y-102340640D01*
X105124405Y-102340640D02*
X105076786Y-102293021D01*
X105076786Y-102293021D02*
X105029167Y-102197783D01*
X105029167Y-102197783D02*
X105029167Y-102102545D01*
X105029167Y-102102545D02*
X105076786Y-102007307D01*
X105076786Y-102007307D02*
X105124405Y-101959688D01*
X105124405Y-101959688D02*
X105219643Y-101912069D01*
X105219643Y-101912069D02*
X105457738Y-101912069D01*
X105457738Y-101912069D02*
X105600595Y-101959688D01*
X105933929Y-101912069D02*
X106172024Y-102912069D01*
X106172024Y-102912069D02*
X106362500Y-102197783D01*
X106362500Y-102197783D02*
X106552976Y-102912069D01*
X106552976Y-102912069D02*
X106791072Y-101912069D01*
X107219643Y-102912069D02*
X107410119Y-102912069D01*
X107410119Y-102912069D02*
X107505357Y-102864450D01*
X107505357Y-102864450D02*
X107552976Y-102816830D01*
X107552976Y-102816830D02*
X107648214Y-102673973D01*
X107648214Y-102673973D02*
X107695833Y-102483497D01*
X107695833Y-102483497D02*
X107695833Y-102102545D01*
X107695833Y-102102545D02*
X107648214Y-102007307D01*
X107648214Y-102007307D02*
X107600595Y-101959688D01*
X107600595Y-101959688D02*
X107505357Y-101912069D01*
X107505357Y-101912069D02*
X107314881Y-101912069D01*
X107314881Y-101912069D02*
X107219643Y-101959688D01*
X107219643Y-101959688D02*
X107172024Y-102007307D01*
X107172024Y-102007307D02*
X107124405Y-102102545D01*
X107124405Y-102102545D02*
X107124405Y-102340640D01*
X107124405Y-102340640D02*
X107172024Y-102435878D01*
X107172024Y-102435878D02*
X107219643Y-102483497D01*
X107219643Y-102483497D02*
X107314881Y-102531116D01*
X107314881Y-102531116D02*
X107505357Y-102531116D01*
X107505357Y-102531116D02*
X107600595Y-102483497D01*
X107600595Y-102483497D02*
X107648214Y-102435878D01*
X107648214Y-102435878D02*
X107695833Y-102340640D01*
X162179167Y-83814450D02*
X162322024Y-83862069D01*
X162322024Y-83862069D02*
X162560119Y-83862069D01*
X162560119Y-83862069D02*
X162655357Y-83814450D01*
X162655357Y-83814450D02*
X162702976Y-83766830D01*
X162702976Y-83766830D02*
X162750595Y-83671592D01*
X162750595Y-83671592D02*
X162750595Y-83576354D01*
X162750595Y-83576354D02*
X162702976Y-83481116D01*
X162702976Y-83481116D02*
X162655357Y-83433497D01*
X162655357Y-83433497D02*
X162560119Y-83385878D01*
X162560119Y-83385878D02*
X162369643Y-83338259D01*
X162369643Y-83338259D02*
X162274405Y-83290640D01*
X162274405Y-83290640D02*
X162226786Y-83243021D01*
X162226786Y-83243021D02*
X162179167Y-83147783D01*
X162179167Y-83147783D02*
X162179167Y-83052545D01*
X162179167Y-83052545D02*
X162226786Y-82957307D01*
X162226786Y-82957307D02*
X162274405Y-82909688D01*
X162274405Y-82909688D02*
X162369643Y-82862069D01*
X162369643Y-82862069D02*
X162607738Y-82862069D01*
X162607738Y-82862069D02*
X162750595Y-82909688D01*
X163083929Y-82862069D02*
X163322024Y-83862069D01*
X163322024Y-83862069D02*
X163512500Y-83147783D01*
X163512500Y-83147783D02*
X163702976Y-83862069D01*
X163702976Y-83862069D02*
X163941072Y-82862069D01*
X164464881Y-83290640D02*
X164369643Y-83243021D01*
X164369643Y-83243021D02*
X164322024Y-83195402D01*
X164322024Y-83195402D02*
X164274405Y-83100164D01*
X164274405Y-83100164D02*
X164274405Y-83052545D01*
X164274405Y-83052545D02*
X164322024Y-82957307D01*
X164322024Y-82957307D02*
X164369643Y-82909688D01*
X164369643Y-82909688D02*
X164464881Y-82862069D01*
X164464881Y-82862069D02*
X164655357Y-82862069D01*
X164655357Y-82862069D02*
X164750595Y-82909688D01*
X164750595Y-82909688D02*
X164798214Y-82957307D01*
X164798214Y-82957307D02*
X164845833Y-83052545D01*
X164845833Y-83052545D02*
X164845833Y-83100164D01*
X164845833Y-83100164D02*
X164798214Y-83195402D01*
X164798214Y-83195402D02*
X164750595Y-83243021D01*
X164750595Y-83243021D02*
X164655357Y-83290640D01*
X164655357Y-83290640D02*
X164464881Y-83290640D01*
X164464881Y-83290640D02*
X164369643Y-83338259D01*
X164369643Y-83338259D02*
X164322024Y-83385878D01*
X164322024Y-83385878D02*
X164274405Y-83481116D01*
X164274405Y-83481116D02*
X164274405Y-83671592D01*
X164274405Y-83671592D02*
X164322024Y-83766830D01*
X164322024Y-83766830D02*
X164369643Y-83814450D01*
X164369643Y-83814450D02*
X164464881Y-83862069D01*
X164464881Y-83862069D02*
X164655357Y-83862069D01*
X164655357Y-83862069D02*
X164750595Y-83814450D01*
X164750595Y-83814450D02*
X164798214Y-83766830D01*
X164798214Y-83766830D02*
X164845833Y-83671592D01*
X164845833Y-83671592D02*
X164845833Y-83481116D01*
X164845833Y-83481116D02*
X164798214Y-83385878D01*
X164798214Y-83385878D02*
X164750595Y-83338259D01*
X164750595Y-83338259D02*
X164655357Y-83290640D01*
X143129167Y-83814450D02*
X143272024Y-83862069D01*
X143272024Y-83862069D02*
X143510119Y-83862069D01*
X143510119Y-83862069D02*
X143605357Y-83814450D01*
X143605357Y-83814450D02*
X143652976Y-83766830D01*
X143652976Y-83766830D02*
X143700595Y-83671592D01*
X143700595Y-83671592D02*
X143700595Y-83576354D01*
X143700595Y-83576354D02*
X143652976Y-83481116D01*
X143652976Y-83481116D02*
X143605357Y-83433497D01*
X143605357Y-83433497D02*
X143510119Y-83385878D01*
X143510119Y-83385878D02*
X143319643Y-83338259D01*
X143319643Y-83338259D02*
X143224405Y-83290640D01*
X143224405Y-83290640D02*
X143176786Y-83243021D01*
X143176786Y-83243021D02*
X143129167Y-83147783D01*
X143129167Y-83147783D02*
X143129167Y-83052545D01*
X143129167Y-83052545D02*
X143176786Y-82957307D01*
X143176786Y-82957307D02*
X143224405Y-82909688D01*
X143224405Y-82909688D02*
X143319643Y-82862069D01*
X143319643Y-82862069D02*
X143557738Y-82862069D01*
X143557738Y-82862069D02*
X143700595Y-82909688D01*
X144033929Y-82862069D02*
X144272024Y-83862069D01*
X144272024Y-83862069D02*
X144462500Y-83147783D01*
X144462500Y-83147783D02*
X144652976Y-83862069D01*
X144652976Y-83862069D02*
X144891072Y-82862069D01*
X145176786Y-82862069D02*
X145843452Y-82862069D01*
X145843452Y-82862069D02*
X145414881Y-83862069D01*
X124079167Y-83814450D02*
X124222024Y-83862069D01*
X124222024Y-83862069D02*
X124460119Y-83862069D01*
X124460119Y-83862069D02*
X124555357Y-83814450D01*
X124555357Y-83814450D02*
X124602976Y-83766830D01*
X124602976Y-83766830D02*
X124650595Y-83671592D01*
X124650595Y-83671592D02*
X124650595Y-83576354D01*
X124650595Y-83576354D02*
X124602976Y-83481116D01*
X124602976Y-83481116D02*
X124555357Y-83433497D01*
X124555357Y-83433497D02*
X124460119Y-83385878D01*
X124460119Y-83385878D02*
X124269643Y-83338259D01*
X124269643Y-83338259D02*
X124174405Y-83290640D01*
X124174405Y-83290640D02*
X124126786Y-83243021D01*
X124126786Y-83243021D02*
X124079167Y-83147783D01*
X124079167Y-83147783D02*
X124079167Y-83052545D01*
X124079167Y-83052545D02*
X124126786Y-82957307D01*
X124126786Y-82957307D02*
X124174405Y-82909688D01*
X124174405Y-82909688D02*
X124269643Y-82862069D01*
X124269643Y-82862069D02*
X124507738Y-82862069D01*
X124507738Y-82862069D02*
X124650595Y-82909688D01*
X124983929Y-82862069D02*
X125222024Y-83862069D01*
X125222024Y-83862069D02*
X125412500Y-83147783D01*
X125412500Y-83147783D02*
X125602976Y-83862069D01*
X125602976Y-83862069D02*
X125841072Y-82862069D01*
X126650595Y-82862069D02*
X126460119Y-82862069D01*
X126460119Y-82862069D02*
X126364881Y-82909688D01*
X126364881Y-82909688D02*
X126317262Y-82957307D01*
X126317262Y-82957307D02*
X126222024Y-83100164D01*
X126222024Y-83100164D02*
X126174405Y-83290640D01*
X126174405Y-83290640D02*
X126174405Y-83671592D01*
X126174405Y-83671592D02*
X126222024Y-83766830D01*
X126222024Y-83766830D02*
X126269643Y-83814450D01*
X126269643Y-83814450D02*
X126364881Y-83862069D01*
X126364881Y-83862069D02*
X126555357Y-83862069D01*
X126555357Y-83862069D02*
X126650595Y-83814450D01*
X126650595Y-83814450D02*
X126698214Y-83766830D01*
X126698214Y-83766830D02*
X126745833Y-83671592D01*
X126745833Y-83671592D02*
X126745833Y-83433497D01*
X126745833Y-83433497D02*
X126698214Y-83338259D01*
X126698214Y-83338259D02*
X126650595Y-83290640D01*
X126650595Y-83290640D02*
X126555357Y-83243021D01*
X126555357Y-83243021D02*
X126364881Y-83243021D01*
X126364881Y-83243021D02*
X126269643Y-83290640D01*
X126269643Y-83290640D02*
X126222024Y-83338259D01*
X126222024Y-83338259D02*
X126174405Y-83433497D01*
X105029167Y-83814450D02*
X105172024Y-83862069D01*
X105172024Y-83862069D02*
X105410119Y-83862069D01*
X105410119Y-83862069D02*
X105505357Y-83814450D01*
X105505357Y-83814450D02*
X105552976Y-83766830D01*
X105552976Y-83766830D02*
X105600595Y-83671592D01*
X105600595Y-83671592D02*
X105600595Y-83576354D01*
X105600595Y-83576354D02*
X105552976Y-83481116D01*
X105552976Y-83481116D02*
X105505357Y-83433497D01*
X105505357Y-83433497D02*
X105410119Y-83385878D01*
X105410119Y-83385878D02*
X105219643Y-83338259D01*
X105219643Y-83338259D02*
X105124405Y-83290640D01*
X105124405Y-83290640D02*
X105076786Y-83243021D01*
X105076786Y-83243021D02*
X105029167Y-83147783D01*
X105029167Y-83147783D02*
X105029167Y-83052545D01*
X105029167Y-83052545D02*
X105076786Y-82957307D01*
X105076786Y-82957307D02*
X105124405Y-82909688D01*
X105124405Y-82909688D02*
X105219643Y-82862069D01*
X105219643Y-82862069D02*
X105457738Y-82862069D01*
X105457738Y-82862069D02*
X105600595Y-82909688D01*
X105933929Y-82862069D02*
X106172024Y-83862069D01*
X106172024Y-83862069D02*
X106362500Y-83147783D01*
X106362500Y-83147783D02*
X106552976Y-83862069D01*
X106552976Y-83862069D02*
X106791072Y-82862069D01*
X107648214Y-82862069D02*
X107172024Y-82862069D01*
X107172024Y-82862069D02*
X107124405Y-83338259D01*
X107124405Y-83338259D02*
X107172024Y-83290640D01*
X107172024Y-83290640D02*
X107267262Y-83243021D01*
X107267262Y-83243021D02*
X107505357Y-83243021D01*
X107505357Y-83243021D02*
X107600595Y-83290640D01*
X107600595Y-83290640D02*
X107648214Y-83338259D01*
X107648214Y-83338259D02*
X107695833Y-83433497D01*
X107695833Y-83433497D02*
X107695833Y-83671592D01*
X107695833Y-83671592D02*
X107648214Y-83766830D01*
X107648214Y-83766830D02*
X107600595Y-83814450D01*
X107600595Y-83814450D02*
X107505357Y-83862069D01*
X107505357Y-83862069D02*
X107267262Y-83862069D01*
X107267262Y-83862069D02*
X107172024Y-83814450D01*
X107172024Y-83814450D02*
X107124405Y-83766830D01*
X162179167Y-64764450D02*
X162322024Y-64812069D01*
X162322024Y-64812069D02*
X162560119Y-64812069D01*
X162560119Y-64812069D02*
X162655357Y-64764450D01*
X162655357Y-64764450D02*
X162702976Y-64716830D01*
X162702976Y-64716830D02*
X162750595Y-64621592D01*
X162750595Y-64621592D02*
X162750595Y-64526354D01*
X162750595Y-64526354D02*
X162702976Y-64431116D01*
X162702976Y-64431116D02*
X162655357Y-64383497D01*
X162655357Y-64383497D02*
X162560119Y-64335878D01*
X162560119Y-64335878D02*
X162369643Y-64288259D01*
X162369643Y-64288259D02*
X162274405Y-64240640D01*
X162274405Y-64240640D02*
X162226786Y-64193021D01*
X162226786Y-64193021D02*
X162179167Y-64097783D01*
X162179167Y-64097783D02*
X162179167Y-64002545D01*
X162179167Y-64002545D02*
X162226786Y-63907307D01*
X162226786Y-63907307D02*
X162274405Y-63859688D01*
X162274405Y-63859688D02*
X162369643Y-63812069D01*
X162369643Y-63812069D02*
X162607738Y-63812069D01*
X162607738Y-63812069D02*
X162750595Y-63859688D01*
X163083929Y-63812069D02*
X163322024Y-64812069D01*
X163322024Y-64812069D02*
X163512500Y-64097783D01*
X163512500Y-64097783D02*
X163702976Y-64812069D01*
X163702976Y-64812069D02*
X163941072Y-63812069D01*
X164750595Y-64145402D02*
X164750595Y-64812069D01*
X164512500Y-63764450D02*
X164274405Y-64478735D01*
X164274405Y-64478735D02*
X164893452Y-64478735D01*
X143129167Y-64764450D02*
X143272024Y-64812069D01*
X143272024Y-64812069D02*
X143510119Y-64812069D01*
X143510119Y-64812069D02*
X143605357Y-64764450D01*
X143605357Y-64764450D02*
X143652976Y-64716830D01*
X143652976Y-64716830D02*
X143700595Y-64621592D01*
X143700595Y-64621592D02*
X143700595Y-64526354D01*
X143700595Y-64526354D02*
X143652976Y-64431116D01*
X143652976Y-64431116D02*
X143605357Y-64383497D01*
X143605357Y-64383497D02*
X143510119Y-64335878D01*
X143510119Y-64335878D02*
X143319643Y-64288259D01*
X143319643Y-64288259D02*
X143224405Y-64240640D01*
X143224405Y-64240640D02*
X143176786Y-64193021D01*
X143176786Y-64193021D02*
X143129167Y-64097783D01*
X143129167Y-64097783D02*
X143129167Y-64002545D01*
X143129167Y-64002545D02*
X143176786Y-63907307D01*
X143176786Y-63907307D02*
X143224405Y-63859688D01*
X143224405Y-63859688D02*
X143319643Y-63812069D01*
X143319643Y-63812069D02*
X143557738Y-63812069D01*
X143557738Y-63812069D02*
X143700595Y-63859688D01*
X144033929Y-63812069D02*
X144272024Y-64812069D01*
X144272024Y-64812069D02*
X144462500Y-64097783D01*
X144462500Y-64097783D02*
X144652976Y-64812069D01*
X144652976Y-64812069D02*
X144891072Y-63812069D01*
X145176786Y-63812069D02*
X145795833Y-63812069D01*
X145795833Y-63812069D02*
X145462500Y-64193021D01*
X145462500Y-64193021D02*
X145605357Y-64193021D01*
X145605357Y-64193021D02*
X145700595Y-64240640D01*
X145700595Y-64240640D02*
X145748214Y-64288259D01*
X145748214Y-64288259D02*
X145795833Y-64383497D01*
X145795833Y-64383497D02*
X145795833Y-64621592D01*
X145795833Y-64621592D02*
X145748214Y-64716830D01*
X145748214Y-64716830D02*
X145700595Y-64764450D01*
X145700595Y-64764450D02*
X145605357Y-64812069D01*
X145605357Y-64812069D02*
X145319643Y-64812069D01*
X145319643Y-64812069D02*
X145224405Y-64764450D01*
X145224405Y-64764450D02*
X145176786Y-64716830D01*
X124079167Y-64764450D02*
X124222024Y-64812069D01*
X124222024Y-64812069D02*
X124460119Y-64812069D01*
X124460119Y-64812069D02*
X124555357Y-64764450D01*
X124555357Y-64764450D02*
X124602976Y-64716830D01*
X124602976Y-64716830D02*
X124650595Y-64621592D01*
X124650595Y-64621592D02*
X124650595Y-64526354D01*
X124650595Y-64526354D02*
X124602976Y-64431116D01*
X124602976Y-64431116D02*
X124555357Y-64383497D01*
X124555357Y-64383497D02*
X124460119Y-64335878D01*
X124460119Y-64335878D02*
X124269643Y-64288259D01*
X124269643Y-64288259D02*
X124174405Y-64240640D01*
X124174405Y-64240640D02*
X124126786Y-64193021D01*
X124126786Y-64193021D02*
X124079167Y-64097783D01*
X124079167Y-64097783D02*
X124079167Y-64002545D01*
X124079167Y-64002545D02*
X124126786Y-63907307D01*
X124126786Y-63907307D02*
X124174405Y-63859688D01*
X124174405Y-63859688D02*
X124269643Y-63812069D01*
X124269643Y-63812069D02*
X124507738Y-63812069D01*
X124507738Y-63812069D02*
X124650595Y-63859688D01*
X124983929Y-63812069D02*
X125222024Y-64812069D01*
X125222024Y-64812069D02*
X125412500Y-64097783D01*
X125412500Y-64097783D02*
X125602976Y-64812069D01*
X125602976Y-64812069D02*
X125841072Y-63812069D01*
X126174405Y-63907307D02*
X126222024Y-63859688D01*
X126222024Y-63859688D02*
X126317262Y-63812069D01*
X126317262Y-63812069D02*
X126555357Y-63812069D01*
X126555357Y-63812069D02*
X126650595Y-63859688D01*
X126650595Y-63859688D02*
X126698214Y-63907307D01*
X126698214Y-63907307D02*
X126745833Y-64002545D01*
X126745833Y-64002545D02*
X126745833Y-64097783D01*
X126745833Y-64097783D02*
X126698214Y-64240640D01*
X126698214Y-64240640D02*
X126126786Y-64812069D01*
X126126786Y-64812069D02*
X126745833Y-64812069D01*
X105029167Y-64764450D02*
X105172024Y-64812069D01*
X105172024Y-64812069D02*
X105410119Y-64812069D01*
X105410119Y-64812069D02*
X105505357Y-64764450D01*
X105505357Y-64764450D02*
X105552976Y-64716830D01*
X105552976Y-64716830D02*
X105600595Y-64621592D01*
X105600595Y-64621592D02*
X105600595Y-64526354D01*
X105600595Y-64526354D02*
X105552976Y-64431116D01*
X105552976Y-64431116D02*
X105505357Y-64383497D01*
X105505357Y-64383497D02*
X105410119Y-64335878D01*
X105410119Y-64335878D02*
X105219643Y-64288259D01*
X105219643Y-64288259D02*
X105124405Y-64240640D01*
X105124405Y-64240640D02*
X105076786Y-64193021D01*
X105076786Y-64193021D02*
X105029167Y-64097783D01*
X105029167Y-64097783D02*
X105029167Y-64002545D01*
X105029167Y-64002545D02*
X105076786Y-63907307D01*
X105076786Y-63907307D02*
X105124405Y-63859688D01*
X105124405Y-63859688D02*
X105219643Y-63812069D01*
X105219643Y-63812069D02*
X105457738Y-63812069D01*
X105457738Y-63812069D02*
X105600595Y-63859688D01*
X105933929Y-63812069D02*
X106172024Y-64812069D01*
X106172024Y-64812069D02*
X106362500Y-64097783D01*
X106362500Y-64097783D02*
X106552976Y-64812069D01*
X106552976Y-64812069D02*
X106791072Y-63812069D01*
X107695833Y-64812069D02*
X107124405Y-64812069D01*
X107410119Y-64812069D02*
X107410119Y-63812069D01*
X107410119Y-63812069D02*
X107314881Y-63954926D01*
X107314881Y-63954926D02*
X107219643Y-64050164D01*
X107219643Y-64050164D02*
X107124405Y-64097783D01*
X99996726Y-46269700D02*
X100139583Y-46317319D01*
X100139583Y-46317319D02*
X100377678Y-46317319D01*
X100377678Y-46317319D02*
X100472916Y-46269700D01*
X100472916Y-46269700D02*
X100520535Y-46222080D01*
X100520535Y-46222080D02*
X100568154Y-46126842D01*
X100568154Y-46126842D02*
X100568154Y-46031604D01*
X100568154Y-46031604D02*
X100520535Y-45936366D01*
X100520535Y-45936366D02*
X100472916Y-45888747D01*
X100472916Y-45888747D02*
X100377678Y-45841128D01*
X100377678Y-45841128D02*
X100187202Y-45793509D01*
X100187202Y-45793509D02*
X100091964Y-45745890D01*
X100091964Y-45745890D02*
X100044345Y-45698271D01*
X100044345Y-45698271D02*
X99996726Y-45603033D01*
X99996726Y-45603033D02*
X99996726Y-45507795D01*
X99996726Y-45507795D02*
X100044345Y-45412557D01*
X100044345Y-45412557D02*
X100091964Y-45364938D01*
X100091964Y-45364938D02*
X100187202Y-45317319D01*
X100187202Y-45317319D02*
X100425297Y-45317319D01*
X100425297Y-45317319D02*
X100568154Y-45364938D01*
X100901488Y-45317319D02*
X101139583Y-46317319D01*
X101139583Y-46317319D02*
X101330059Y-45603033D01*
X101330059Y-45603033D02*
X101520535Y-46317319D01*
X101520535Y-46317319D02*
X101758631Y-45317319D01*
X102663392Y-46317319D02*
X102091964Y-46317319D01*
X102377678Y-46317319D02*
X102377678Y-45317319D01*
X102377678Y-45317319D02*
X102282440Y-45460176D01*
X102282440Y-45460176D02*
X102187202Y-45555414D01*
X102187202Y-45555414D02*
X102091964Y-45603033D01*
X102996726Y-45317319D02*
X103663392Y-45317319D01*
X103663392Y-45317319D02*
X103234821Y-46317319D01*
X116088569Y-132818035D02*
X115088569Y-132818035D01*
X115088569Y-132818035D02*
X115088569Y-132579940D01*
X115088569Y-132579940D02*
X115136188Y-132437083D01*
X115136188Y-132437083D02*
X115231426Y-132341845D01*
X115231426Y-132341845D02*
X115326664Y-132294226D01*
X115326664Y-132294226D02*
X115517140Y-132246607D01*
X115517140Y-132246607D02*
X115659997Y-132246607D01*
X115659997Y-132246607D02*
X115850473Y-132294226D01*
X115850473Y-132294226D02*
X115945711Y-132341845D01*
X115945711Y-132341845D02*
X116040950Y-132437083D01*
X116040950Y-132437083D02*
X116088569Y-132579940D01*
X116088569Y-132579940D02*
X116088569Y-132818035D01*
X116088569Y-131294226D02*
X116088569Y-131865654D01*
X116088569Y-131579940D02*
X115088569Y-131579940D01*
X115088569Y-131579940D02*
X115231426Y-131675178D01*
X115231426Y-131675178D02*
X115326664Y-131770416D01*
X115326664Y-131770416D02*
X115374283Y-131865654D01*
X115421902Y-130437083D02*
X116088569Y-130437083D01*
X115040950Y-130675178D02*
X115755235Y-130913273D01*
X115755235Y-130913273D02*
X115755235Y-130294226D01*
X96513569Y-114023094D02*
X95513569Y-114023094D01*
X95513569Y-114023094D02*
X95513569Y-113784999D01*
X95513569Y-113784999D02*
X95561188Y-113642142D01*
X95561188Y-113642142D02*
X95656426Y-113546904D01*
X95656426Y-113546904D02*
X95751664Y-113499285D01*
X95751664Y-113499285D02*
X95942140Y-113451666D01*
X95942140Y-113451666D02*
X96084997Y-113451666D01*
X96084997Y-113451666D02*
X96275473Y-113499285D01*
X96275473Y-113499285D02*
X96370711Y-113546904D01*
X96370711Y-113546904D02*
X96465950Y-113642142D01*
X96465950Y-113642142D02*
X96513569Y-113784999D01*
X96513569Y-113784999D02*
X96513569Y-114023094D01*
X96513569Y-112975475D02*
X96513569Y-112784999D01*
X96513569Y-112784999D02*
X96465950Y-112689761D01*
X96465950Y-112689761D02*
X96418330Y-112642142D01*
X96418330Y-112642142D02*
X96275473Y-112546904D01*
X96275473Y-112546904D02*
X96084997Y-112499285D01*
X96084997Y-112499285D02*
X95704045Y-112499285D01*
X95704045Y-112499285D02*
X95608807Y-112546904D01*
X95608807Y-112546904D02*
X95561188Y-112594523D01*
X95561188Y-112594523D02*
X95513569Y-112689761D01*
X95513569Y-112689761D02*
X95513569Y-112880237D01*
X95513569Y-112880237D02*
X95561188Y-112975475D01*
X95561188Y-112975475D02*
X95608807Y-113023094D01*
X95608807Y-113023094D02*
X95704045Y-113070713D01*
X95704045Y-113070713D02*
X95942140Y-113070713D01*
X95942140Y-113070713D02*
X96037378Y-113023094D01*
X96037378Y-113023094D02*
X96084997Y-112975475D01*
X96084997Y-112975475D02*
X96132616Y-112880237D01*
X96132616Y-112880237D02*
X96132616Y-112689761D01*
X96132616Y-112689761D02*
X96084997Y-112594523D01*
X96084997Y-112594523D02*
X96037378Y-112546904D01*
X96037378Y-112546904D02*
X95942140Y-112499285D01*
X154188569Y-94241844D02*
X153188569Y-94241844D01*
X153188569Y-94241844D02*
X153188569Y-94003749D01*
X153188569Y-94003749D02*
X153236188Y-93860892D01*
X153236188Y-93860892D02*
X153331426Y-93765654D01*
X153331426Y-93765654D02*
X153426664Y-93718035D01*
X153426664Y-93718035D02*
X153617140Y-93670416D01*
X153617140Y-93670416D02*
X153759997Y-93670416D01*
X153759997Y-93670416D02*
X153950473Y-93718035D01*
X153950473Y-93718035D02*
X154045711Y-93765654D01*
X154045711Y-93765654D02*
X154140950Y-93860892D01*
X154140950Y-93860892D02*
X154188569Y-94003749D01*
X154188569Y-94003749D02*
X154188569Y-94241844D01*
X153617140Y-93098987D02*
X153569521Y-93194225D01*
X153569521Y-93194225D02*
X153521902Y-93241844D01*
X153521902Y-93241844D02*
X153426664Y-93289463D01*
X153426664Y-93289463D02*
X153379045Y-93289463D01*
X153379045Y-93289463D02*
X153283807Y-93241844D01*
X153283807Y-93241844D02*
X153236188Y-93194225D01*
X153236188Y-93194225D02*
X153188569Y-93098987D01*
X153188569Y-93098987D02*
X153188569Y-92908511D01*
X153188569Y-92908511D02*
X153236188Y-92813273D01*
X153236188Y-92813273D02*
X153283807Y-92765654D01*
X153283807Y-92765654D02*
X153379045Y-92718035D01*
X153379045Y-92718035D02*
X153426664Y-92718035D01*
X153426664Y-92718035D02*
X153521902Y-92765654D01*
X153521902Y-92765654D02*
X153569521Y-92813273D01*
X153569521Y-92813273D02*
X153617140Y-92908511D01*
X153617140Y-92908511D02*
X153617140Y-93098987D01*
X153617140Y-93098987D02*
X153664759Y-93194225D01*
X153664759Y-93194225D02*
X153712378Y-93241844D01*
X153712378Y-93241844D02*
X153807616Y-93289463D01*
X153807616Y-93289463D02*
X153998092Y-93289463D01*
X153998092Y-93289463D02*
X154093330Y-93241844D01*
X154093330Y-93241844D02*
X154140950Y-93194225D01*
X154140950Y-93194225D02*
X154188569Y-93098987D01*
X154188569Y-93098987D02*
X154188569Y-92908511D01*
X154188569Y-92908511D02*
X154140950Y-92813273D01*
X154140950Y-92813273D02*
X154093330Y-92765654D01*
X154093330Y-92765654D02*
X153998092Y-92718035D01*
X153998092Y-92718035D02*
X153807616Y-92718035D01*
X153807616Y-92718035D02*
X153712378Y-92765654D01*
X153712378Y-92765654D02*
X153664759Y-92813273D01*
X153664759Y-92813273D02*
X153617140Y-92908511D01*
X134963569Y-132818035D02*
X133963569Y-132818035D01*
X133963569Y-132818035D02*
X133963569Y-132579940D01*
X133963569Y-132579940D02*
X134011188Y-132437083D01*
X134011188Y-132437083D02*
X134106426Y-132341845D01*
X134106426Y-132341845D02*
X134201664Y-132294226D01*
X134201664Y-132294226D02*
X134392140Y-132246607D01*
X134392140Y-132246607D02*
X134534997Y-132246607D01*
X134534997Y-132246607D02*
X134725473Y-132294226D01*
X134725473Y-132294226D02*
X134820711Y-132341845D01*
X134820711Y-132341845D02*
X134915950Y-132437083D01*
X134915950Y-132437083D02*
X134963569Y-132579940D01*
X134963569Y-132579940D02*
X134963569Y-132818035D01*
X134963569Y-131294226D02*
X134963569Y-131865654D01*
X134963569Y-131579940D02*
X133963569Y-131579940D01*
X133963569Y-131579940D02*
X134106426Y-131675178D01*
X134106426Y-131675178D02*
X134201664Y-131770416D01*
X134201664Y-131770416D02*
X134249283Y-131865654D01*
X133963569Y-130389464D02*
X133963569Y-130865654D01*
X133963569Y-130865654D02*
X134439759Y-130913273D01*
X134439759Y-130913273D02*
X134392140Y-130865654D01*
X134392140Y-130865654D02*
X134344521Y-130770416D01*
X134344521Y-130770416D02*
X134344521Y-130532321D01*
X134344521Y-130532321D02*
X134392140Y-130437083D01*
X134392140Y-130437083D02*
X134439759Y-130389464D01*
X134439759Y-130389464D02*
X134534997Y-130341845D01*
X134534997Y-130341845D02*
X134773092Y-130341845D01*
X134773092Y-130341845D02*
X134868330Y-130389464D01*
X134868330Y-130389464D02*
X134915950Y-130437083D01*
X134915950Y-130437083D02*
X134963569Y-130532321D01*
X134963569Y-130532321D02*
X134963569Y-130770416D01*
X134963569Y-130770416D02*
X134915950Y-130865654D01*
X134915950Y-130865654D02*
X134868330Y-130913273D01*
X116088569Y-114499285D02*
X115088569Y-114499285D01*
X115088569Y-114499285D02*
X115088569Y-114261190D01*
X115088569Y-114261190D02*
X115136188Y-114118333D01*
X115136188Y-114118333D02*
X115231426Y-114023095D01*
X115231426Y-114023095D02*
X115326664Y-113975476D01*
X115326664Y-113975476D02*
X115517140Y-113927857D01*
X115517140Y-113927857D02*
X115659997Y-113927857D01*
X115659997Y-113927857D02*
X115850473Y-113975476D01*
X115850473Y-113975476D02*
X115945711Y-114023095D01*
X115945711Y-114023095D02*
X116040950Y-114118333D01*
X116040950Y-114118333D02*
X116088569Y-114261190D01*
X116088569Y-114261190D02*
X116088569Y-114499285D01*
X116088569Y-112975476D02*
X116088569Y-113546904D01*
X116088569Y-113261190D02*
X115088569Y-113261190D01*
X115088569Y-113261190D02*
X115231426Y-113356428D01*
X115231426Y-113356428D02*
X115326664Y-113451666D01*
X115326664Y-113451666D02*
X115374283Y-113546904D01*
X115088569Y-112356428D02*
X115088569Y-112261190D01*
X115088569Y-112261190D02*
X115136188Y-112165952D01*
X115136188Y-112165952D02*
X115183807Y-112118333D01*
X115183807Y-112118333D02*
X115279045Y-112070714D01*
X115279045Y-112070714D02*
X115469521Y-112023095D01*
X115469521Y-112023095D02*
X115707616Y-112023095D01*
X115707616Y-112023095D02*
X115898092Y-112070714D01*
X115898092Y-112070714D02*
X115993330Y-112118333D01*
X115993330Y-112118333D02*
X116040950Y-112165952D01*
X116040950Y-112165952D02*
X116088569Y-112261190D01*
X116088569Y-112261190D02*
X116088569Y-112356428D01*
X116088569Y-112356428D02*
X116040950Y-112451666D01*
X116040950Y-112451666D02*
X115993330Y-112499285D01*
X115993330Y-112499285D02*
X115898092Y-112546904D01*
X115898092Y-112546904D02*
X115707616Y-112594523D01*
X115707616Y-112594523D02*
X115469521Y-112594523D01*
X115469521Y-112594523D02*
X115279045Y-112546904D01*
X115279045Y-112546904D02*
X115183807Y-112499285D01*
X115183807Y-112499285D02*
X115136188Y-112451666D01*
X115136188Y-112451666D02*
X115088569Y-112356428D01*
X135138569Y-94241844D02*
X134138569Y-94241844D01*
X134138569Y-94241844D02*
X134138569Y-94003749D01*
X134138569Y-94003749D02*
X134186188Y-93860892D01*
X134186188Y-93860892D02*
X134281426Y-93765654D01*
X134281426Y-93765654D02*
X134376664Y-93718035D01*
X134376664Y-93718035D02*
X134567140Y-93670416D01*
X134567140Y-93670416D02*
X134709997Y-93670416D01*
X134709997Y-93670416D02*
X134900473Y-93718035D01*
X134900473Y-93718035D02*
X134995711Y-93765654D01*
X134995711Y-93765654D02*
X135090950Y-93860892D01*
X135090950Y-93860892D02*
X135138569Y-94003749D01*
X135138569Y-94003749D02*
X135138569Y-94241844D01*
X134138569Y-93337082D02*
X134138569Y-92670416D01*
X134138569Y-92670416D02*
X135138569Y-93098987D01*
X116088569Y-94228544D02*
X115088569Y-94228544D01*
X115088569Y-94228544D02*
X115088569Y-93990449D01*
X115088569Y-93990449D02*
X115136188Y-93847592D01*
X115136188Y-93847592D02*
X115231426Y-93752354D01*
X115231426Y-93752354D02*
X115326664Y-93704735D01*
X115326664Y-93704735D02*
X115517140Y-93657116D01*
X115517140Y-93657116D02*
X115659997Y-93657116D01*
X115659997Y-93657116D02*
X115850473Y-93704735D01*
X115850473Y-93704735D02*
X115945711Y-93752354D01*
X115945711Y-93752354D02*
X116040950Y-93847592D01*
X116040950Y-93847592D02*
X116088569Y-93990449D01*
X116088569Y-93990449D02*
X116088569Y-94228544D01*
X115088569Y-92799973D02*
X115088569Y-92990449D01*
X115088569Y-92990449D02*
X115136188Y-93085687D01*
X115136188Y-93085687D02*
X115183807Y-93133306D01*
X115183807Y-93133306D02*
X115326664Y-93228544D01*
X115326664Y-93228544D02*
X115517140Y-93276163D01*
X115517140Y-93276163D02*
X115898092Y-93276163D01*
X115898092Y-93276163D02*
X115993330Y-93228544D01*
X115993330Y-93228544D02*
X116040950Y-93180925D01*
X116040950Y-93180925D02*
X116088569Y-93085687D01*
X116088569Y-93085687D02*
X116088569Y-92895211D01*
X116088569Y-92895211D02*
X116040950Y-92799973D01*
X116040950Y-92799973D02*
X115993330Y-92752354D01*
X115993330Y-92752354D02*
X115898092Y-92704735D01*
X115898092Y-92704735D02*
X115659997Y-92704735D01*
X115659997Y-92704735D02*
X115564759Y-92752354D01*
X115564759Y-92752354D02*
X115517140Y-92799973D01*
X115517140Y-92799973D02*
X115469521Y-92895211D01*
X115469521Y-92895211D02*
X115469521Y-93085687D01*
X115469521Y-93085687D02*
X115517140Y-93180925D01*
X115517140Y-93180925D02*
X115564759Y-93228544D01*
X115564759Y-93228544D02*
X115659997Y-93276163D01*
X97038569Y-75191844D02*
X96038569Y-75191844D01*
X96038569Y-75191844D02*
X96038569Y-74953749D01*
X96038569Y-74953749D02*
X96086188Y-74810892D01*
X96086188Y-74810892D02*
X96181426Y-74715654D01*
X96181426Y-74715654D02*
X96276664Y-74668035D01*
X96276664Y-74668035D02*
X96467140Y-74620416D01*
X96467140Y-74620416D02*
X96609997Y-74620416D01*
X96609997Y-74620416D02*
X96800473Y-74668035D01*
X96800473Y-74668035D02*
X96895711Y-74715654D01*
X96895711Y-74715654D02*
X96990950Y-74810892D01*
X96990950Y-74810892D02*
X97038569Y-74953749D01*
X97038569Y-74953749D02*
X97038569Y-75191844D01*
X97038569Y-73668035D02*
X97038569Y-74239463D01*
X97038569Y-73953749D02*
X96038569Y-73953749D01*
X96038569Y-73953749D02*
X96181426Y-74048987D01*
X96181426Y-74048987D02*
X96276664Y-74144225D01*
X96276664Y-74144225D02*
X96324283Y-74239463D01*
X154188569Y-114561785D02*
X153188569Y-114561785D01*
X153188569Y-114561785D02*
X153188569Y-114323690D01*
X153188569Y-114323690D02*
X153236188Y-114180833D01*
X153236188Y-114180833D02*
X153331426Y-114085595D01*
X153331426Y-114085595D02*
X153426664Y-114037976D01*
X153426664Y-114037976D02*
X153617140Y-113990357D01*
X153617140Y-113990357D02*
X153759997Y-113990357D01*
X153759997Y-113990357D02*
X153950473Y-114037976D01*
X153950473Y-114037976D02*
X154045711Y-114085595D01*
X154045711Y-114085595D02*
X154140950Y-114180833D01*
X154140950Y-114180833D02*
X154188569Y-114323690D01*
X154188569Y-114323690D02*
X154188569Y-114561785D01*
X154188569Y-113037976D02*
X154188569Y-113609404D01*
X154188569Y-113323690D02*
X153188569Y-113323690D01*
X153188569Y-113323690D02*
X153331426Y-113418928D01*
X153331426Y-113418928D02*
X153426664Y-113514166D01*
X153426664Y-113514166D02*
X153474283Y-113609404D01*
X153283807Y-112657023D02*
X153236188Y-112609404D01*
X153236188Y-112609404D02*
X153188569Y-112514166D01*
X153188569Y-112514166D02*
X153188569Y-112276071D01*
X153188569Y-112276071D02*
X153236188Y-112180833D01*
X153236188Y-112180833D02*
X153283807Y-112133214D01*
X153283807Y-112133214D02*
X153379045Y-112085595D01*
X153379045Y-112085595D02*
X153474283Y-112085595D01*
X153474283Y-112085595D02*
X153617140Y-112133214D01*
X153617140Y-112133214D02*
X154188569Y-112704642D01*
X154188569Y-112704642D02*
X154188569Y-112085595D01*
X173079819Y-59095535D02*
X172079819Y-59095535D01*
X172079819Y-59095535D02*
X172079819Y-58857440D01*
X172079819Y-58857440D02*
X172127438Y-58714583D01*
X172127438Y-58714583D02*
X172222676Y-58619345D01*
X172222676Y-58619345D02*
X172317914Y-58571726D01*
X172317914Y-58571726D02*
X172508390Y-58524107D01*
X172508390Y-58524107D02*
X172651247Y-58524107D01*
X172651247Y-58524107D02*
X172841723Y-58571726D01*
X172841723Y-58571726D02*
X172936961Y-58619345D01*
X172936961Y-58619345D02*
X173032200Y-58714583D01*
X173032200Y-58714583D02*
X173079819Y-58857440D01*
X173079819Y-58857440D02*
X173079819Y-59095535D01*
X173079819Y-57571726D02*
X173079819Y-58143154D01*
X173079819Y-57857440D02*
X172079819Y-57857440D01*
X172079819Y-57857440D02*
X172222676Y-57952678D01*
X172222676Y-57952678D02*
X172317914Y-58047916D01*
X172317914Y-58047916D02*
X172365533Y-58143154D01*
X172508390Y-57000297D02*
X172460771Y-57095535D01*
X172460771Y-57095535D02*
X172413152Y-57143154D01*
X172413152Y-57143154D02*
X172317914Y-57190773D01*
X172317914Y-57190773D02*
X172270295Y-57190773D01*
X172270295Y-57190773D02*
X172175057Y-57143154D01*
X172175057Y-57143154D02*
X172127438Y-57095535D01*
X172127438Y-57095535D02*
X172079819Y-57000297D01*
X172079819Y-57000297D02*
X172079819Y-56809821D01*
X172079819Y-56809821D02*
X172127438Y-56714583D01*
X172127438Y-56714583D02*
X172175057Y-56666964D01*
X172175057Y-56666964D02*
X172270295Y-56619345D01*
X172270295Y-56619345D02*
X172317914Y-56619345D01*
X172317914Y-56619345D02*
X172413152Y-56666964D01*
X172413152Y-56666964D02*
X172460771Y-56714583D01*
X172460771Y-56714583D02*
X172508390Y-56809821D01*
X172508390Y-56809821D02*
X172508390Y-57000297D01*
X172508390Y-57000297D02*
X172556009Y-57095535D01*
X172556009Y-57095535D02*
X172603628Y-57143154D01*
X172603628Y-57143154D02*
X172698866Y-57190773D01*
X172698866Y-57190773D02*
X172889342Y-57190773D01*
X172889342Y-57190773D02*
X172984580Y-57143154D01*
X172984580Y-57143154D02*
X173032200Y-57095535D01*
X173032200Y-57095535D02*
X173079819Y-57000297D01*
X173079819Y-57000297D02*
X173079819Y-56809821D01*
X173079819Y-56809821D02*
X173032200Y-56714583D01*
X173032200Y-56714583D02*
X172984580Y-56666964D01*
X172984580Y-56666964D02*
X172889342Y-56619345D01*
X172889342Y-56619345D02*
X172698866Y-56619345D01*
X172698866Y-56619345D02*
X172603628Y-56666964D01*
X172603628Y-56666964D02*
X172556009Y-56714583D01*
X172556009Y-56714583D02*
X172508390Y-56809821D01*
X115929819Y-59095535D02*
X114929819Y-59095535D01*
X114929819Y-59095535D02*
X114929819Y-58857440D01*
X114929819Y-58857440D02*
X114977438Y-58714583D01*
X114977438Y-58714583D02*
X115072676Y-58619345D01*
X115072676Y-58619345D02*
X115167914Y-58571726D01*
X115167914Y-58571726D02*
X115358390Y-58524107D01*
X115358390Y-58524107D02*
X115501247Y-58524107D01*
X115501247Y-58524107D02*
X115691723Y-58571726D01*
X115691723Y-58571726D02*
X115786961Y-58619345D01*
X115786961Y-58619345D02*
X115882200Y-58714583D01*
X115882200Y-58714583D02*
X115929819Y-58857440D01*
X115929819Y-58857440D02*
X115929819Y-59095535D01*
X115929819Y-57571726D02*
X115929819Y-58143154D01*
X115929819Y-57857440D02*
X114929819Y-57857440D01*
X114929819Y-57857440D02*
X115072676Y-57952678D01*
X115072676Y-57952678D02*
X115167914Y-58047916D01*
X115167914Y-58047916D02*
X115215533Y-58143154D01*
X114929819Y-57238392D02*
X114929819Y-56571726D01*
X114929819Y-56571726D02*
X115929819Y-57000297D01*
X97038569Y-132755535D02*
X96038569Y-132755535D01*
X96038569Y-132755535D02*
X96038569Y-132517440D01*
X96038569Y-132517440D02*
X96086188Y-132374583D01*
X96086188Y-132374583D02*
X96181426Y-132279345D01*
X96181426Y-132279345D02*
X96276664Y-132231726D01*
X96276664Y-132231726D02*
X96467140Y-132184107D01*
X96467140Y-132184107D02*
X96609997Y-132184107D01*
X96609997Y-132184107D02*
X96800473Y-132231726D01*
X96800473Y-132231726D02*
X96895711Y-132279345D01*
X96895711Y-132279345D02*
X96990950Y-132374583D01*
X96990950Y-132374583D02*
X97038569Y-132517440D01*
X97038569Y-132517440D02*
X97038569Y-132755535D01*
X97038569Y-131231726D02*
X97038569Y-131803154D01*
X97038569Y-131517440D02*
X96038569Y-131517440D01*
X96038569Y-131517440D02*
X96181426Y-131612678D01*
X96181426Y-131612678D02*
X96276664Y-131707916D01*
X96276664Y-131707916D02*
X96324283Y-131803154D01*
X96038569Y-130898392D02*
X96038569Y-130279345D01*
X96038569Y-130279345D02*
X96419521Y-130612678D01*
X96419521Y-130612678D02*
X96419521Y-130469821D01*
X96419521Y-130469821D02*
X96467140Y-130374583D01*
X96467140Y-130374583D02*
X96514759Y-130326964D01*
X96514759Y-130326964D02*
X96609997Y-130279345D01*
X96609997Y-130279345D02*
X96848092Y-130279345D01*
X96848092Y-130279345D02*
X96943330Y-130326964D01*
X96943330Y-130326964D02*
X96990950Y-130374583D01*
X96990950Y-130374583D02*
X97038569Y-130469821D01*
X97038569Y-130469821D02*
X97038569Y-130755535D01*
X97038569Y-130755535D02*
X96990950Y-130850773D01*
X96990950Y-130850773D02*
X96943330Y-130898392D01*
X96533770Y-94228544D02*
X95533770Y-94228544D01*
X95533770Y-94228544D02*
X95533770Y-93990449D01*
X95533770Y-93990449D02*
X95581389Y-93847592D01*
X95581389Y-93847592D02*
X95676627Y-93752354D01*
X95676627Y-93752354D02*
X95771865Y-93704735D01*
X95771865Y-93704735D02*
X95962341Y-93657116D01*
X95962341Y-93657116D02*
X96105198Y-93657116D01*
X96105198Y-93657116D02*
X96295674Y-93704735D01*
X96295674Y-93704735D02*
X96390912Y-93752354D01*
X96390912Y-93752354D02*
X96486151Y-93847592D01*
X96486151Y-93847592D02*
X96533770Y-93990449D01*
X96533770Y-93990449D02*
X96533770Y-94228544D01*
X95533770Y-92752354D02*
X95533770Y-93228544D01*
X95533770Y-93228544D02*
X96009960Y-93276163D01*
X96009960Y-93276163D02*
X95962341Y-93228544D01*
X95962341Y-93228544D02*
X95914722Y-93133306D01*
X95914722Y-93133306D02*
X95914722Y-92895211D01*
X95914722Y-92895211D02*
X95962341Y-92799973D01*
X95962341Y-92799973D02*
X96009960Y-92752354D01*
X96009960Y-92752354D02*
X96105198Y-92704735D01*
X96105198Y-92704735D02*
X96343293Y-92704735D01*
X96343293Y-92704735D02*
X96438531Y-92752354D01*
X96438531Y-92752354D02*
X96486151Y-92799973D01*
X96486151Y-92799973D02*
X96533770Y-92895211D01*
X96533770Y-92895211D02*
X96533770Y-93133306D01*
X96533770Y-93133306D02*
X96486151Y-93228544D01*
X96486151Y-93228544D02*
X96438531Y-93276163D01*
X157002976Y-46432200D02*
X157145833Y-46479819D01*
X157145833Y-46479819D02*
X157383928Y-46479819D01*
X157383928Y-46479819D02*
X157479166Y-46432200D01*
X157479166Y-46432200D02*
X157526785Y-46384580D01*
X157526785Y-46384580D02*
X157574404Y-46289342D01*
X157574404Y-46289342D02*
X157574404Y-46194104D01*
X157574404Y-46194104D02*
X157526785Y-46098866D01*
X157526785Y-46098866D02*
X157479166Y-46051247D01*
X157479166Y-46051247D02*
X157383928Y-46003628D01*
X157383928Y-46003628D02*
X157193452Y-45956009D01*
X157193452Y-45956009D02*
X157098214Y-45908390D01*
X157098214Y-45908390D02*
X157050595Y-45860771D01*
X157050595Y-45860771D02*
X157002976Y-45765533D01*
X157002976Y-45765533D02*
X157002976Y-45670295D01*
X157002976Y-45670295D02*
X157050595Y-45575057D01*
X157050595Y-45575057D02*
X157098214Y-45527438D01*
X157098214Y-45527438D02*
X157193452Y-45479819D01*
X157193452Y-45479819D02*
X157431547Y-45479819D01*
X157431547Y-45479819D02*
X157574404Y-45527438D01*
X157907738Y-45479819D02*
X158145833Y-46479819D01*
X158145833Y-46479819D02*
X158336309Y-45765533D01*
X158336309Y-45765533D02*
X158526785Y-46479819D01*
X158526785Y-46479819D02*
X158764881Y-45479819D01*
X159669642Y-46479819D02*
X159098214Y-46479819D01*
X159383928Y-46479819D02*
X159383928Y-45479819D01*
X159383928Y-45479819D02*
X159288690Y-45622676D01*
X159288690Y-45622676D02*
X159193452Y-45717914D01*
X159193452Y-45717914D02*
X159098214Y-45765533D01*
X160241071Y-45908390D02*
X160145833Y-45860771D01*
X160145833Y-45860771D02*
X160098214Y-45813152D01*
X160098214Y-45813152D02*
X160050595Y-45717914D01*
X160050595Y-45717914D02*
X160050595Y-45670295D01*
X160050595Y-45670295D02*
X160098214Y-45575057D01*
X160098214Y-45575057D02*
X160145833Y-45527438D01*
X160145833Y-45527438D02*
X160241071Y-45479819D01*
X160241071Y-45479819D02*
X160431547Y-45479819D01*
X160431547Y-45479819D02*
X160526785Y-45527438D01*
X160526785Y-45527438D02*
X160574404Y-45575057D01*
X160574404Y-45575057D02*
X160622023Y-45670295D01*
X160622023Y-45670295D02*
X160622023Y-45717914D01*
X160622023Y-45717914D02*
X160574404Y-45813152D01*
X160574404Y-45813152D02*
X160526785Y-45860771D01*
X160526785Y-45860771D02*
X160431547Y-45908390D01*
X160431547Y-45908390D02*
X160241071Y-45908390D01*
X160241071Y-45908390D02*
X160145833Y-45956009D01*
X160145833Y-45956009D02*
X160098214Y-46003628D01*
X160098214Y-46003628D02*
X160050595Y-46098866D01*
X160050595Y-46098866D02*
X160050595Y-46289342D01*
X160050595Y-46289342D02*
X160098214Y-46384580D01*
X160098214Y-46384580D02*
X160145833Y-46432200D01*
X160145833Y-46432200D02*
X160241071Y-46479819D01*
X160241071Y-46479819D02*
X160431547Y-46479819D01*
X160431547Y-46479819D02*
X160526785Y-46432200D01*
X160526785Y-46432200D02*
X160574404Y-46384580D01*
X160574404Y-46384580D02*
X160622023Y-46289342D01*
X160622023Y-46289342D02*
X160622023Y-46098866D01*
X160622023Y-46098866D02*
X160574404Y-46003628D01*
X160574404Y-46003628D02*
X160526785Y-45956009D01*
X160526785Y-45956009D02*
X160431547Y-45908390D01*
X135138569Y-114499285D02*
X134138569Y-114499285D01*
X134138569Y-114499285D02*
X134138569Y-114261190D01*
X134138569Y-114261190D02*
X134186188Y-114118333D01*
X134186188Y-114118333D02*
X134281426Y-114023095D01*
X134281426Y-114023095D02*
X134376664Y-113975476D01*
X134376664Y-113975476D02*
X134567140Y-113927857D01*
X134567140Y-113927857D02*
X134709997Y-113927857D01*
X134709997Y-113927857D02*
X134900473Y-113975476D01*
X134900473Y-113975476D02*
X134995711Y-114023095D01*
X134995711Y-114023095D02*
X135090950Y-114118333D01*
X135090950Y-114118333D02*
X135138569Y-114261190D01*
X135138569Y-114261190D02*
X135138569Y-114499285D01*
X135138569Y-112975476D02*
X135138569Y-113546904D01*
X135138569Y-113261190D02*
X134138569Y-113261190D01*
X134138569Y-113261190D02*
X134281426Y-113356428D01*
X134281426Y-113356428D02*
X134376664Y-113451666D01*
X134376664Y-113451666D02*
X134424283Y-113546904D01*
X135138569Y-112023095D02*
X135138569Y-112594523D01*
X135138569Y-112308809D02*
X134138569Y-112308809D01*
X134138569Y-112308809D02*
X134281426Y-112404047D01*
X134281426Y-112404047D02*
X134376664Y-112499285D01*
X134376664Y-112499285D02*
X134424283Y-112594523D01*
X154188569Y-75129344D02*
X153188569Y-75129344D01*
X153188569Y-75129344D02*
X153188569Y-74891249D01*
X153188569Y-74891249D02*
X153236188Y-74748392D01*
X153236188Y-74748392D02*
X153331426Y-74653154D01*
X153331426Y-74653154D02*
X153426664Y-74605535D01*
X153426664Y-74605535D02*
X153617140Y-74557916D01*
X153617140Y-74557916D02*
X153759997Y-74557916D01*
X153759997Y-74557916D02*
X153950473Y-74605535D01*
X153950473Y-74605535D02*
X154045711Y-74653154D01*
X154045711Y-74653154D02*
X154140950Y-74748392D01*
X154140950Y-74748392D02*
X154188569Y-74891249D01*
X154188569Y-74891249D02*
X154188569Y-75129344D01*
X153521902Y-73700773D02*
X154188569Y-73700773D01*
X153140950Y-73938868D02*
X153855235Y-74176963D01*
X153855235Y-74176963D02*
X153855235Y-73557916D01*
X134963569Y-75129344D02*
X133963569Y-75129344D01*
X133963569Y-75129344D02*
X133963569Y-74891249D01*
X133963569Y-74891249D02*
X134011188Y-74748392D01*
X134011188Y-74748392D02*
X134106426Y-74653154D01*
X134106426Y-74653154D02*
X134201664Y-74605535D01*
X134201664Y-74605535D02*
X134392140Y-74557916D01*
X134392140Y-74557916D02*
X134534997Y-74557916D01*
X134534997Y-74557916D02*
X134725473Y-74605535D01*
X134725473Y-74605535D02*
X134820711Y-74653154D01*
X134820711Y-74653154D02*
X134915950Y-74748392D01*
X134915950Y-74748392D02*
X134963569Y-74891249D01*
X134963569Y-74891249D02*
X134963569Y-75129344D01*
X133963569Y-74224582D02*
X133963569Y-73605535D01*
X133963569Y-73605535D02*
X134344521Y-73938868D01*
X134344521Y-73938868D02*
X134344521Y-73796011D01*
X134344521Y-73796011D02*
X134392140Y-73700773D01*
X134392140Y-73700773D02*
X134439759Y-73653154D01*
X134439759Y-73653154D02*
X134534997Y-73605535D01*
X134534997Y-73605535D02*
X134773092Y-73605535D01*
X134773092Y-73605535D02*
X134868330Y-73653154D01*
X134868330Y-73653154D02*
X134915950Y-73700773D01*
X134915950Y-73700773D02*
X134963569Y-73796011D01*
X134963569Y-73796011D02*
X134963569Y-74081725D01*
X134963569Y-74081725D02*
X134915950Y-74176963D01*
X134915950Y-74176963D02*
X134868330Y-74224582D01*
X115738569Y-75129344D02*
X114738569Y-75129344D01*
X114738569Y-75129344D02*
X114738569Y-74891249D01*
X114738569Y-74891249D02*
X114786188Y-74748392D01*
X114786188Y-74748392D02*
X114881426Y-74653154D01*
X114881426Y-74653154D02*
X114976664Y-74605535D01*
X114976664Y-74605535D02*
X115167140Y-74557916D01*
X115167140Y-74557916D02*
X115309997Y-74557916D01*
X115309997Y-74557916D02*
X115500473Y-74605535D01*
X115500473Y-74605535D02*
X115595711Y-74653154D01*
X115595711Y-74653154D02*
X115690950Y-74748392D01*
X115690950Y-74748392D02*
X115738569Y-74891249D01*
X115738569Y-74891249D02*
X115738569Y-75129344D01*
X114833807Y-74176963D02*
X114786188Y-74129344D01*
X114786188Y-74129344D02*
X114738569Y-74034106D01*
X114738569Y-74034106D02*
X114738569Y-73796011D01*
X114738569Y-73796011D02*
X114786188Y-73700773D01*
X114786188Y-73700773D02*
X114833807Y-73653154D01*
X114833807Y-73653154D02*
X114929045Y-73605535D01*
X114929045Y-73605535D02*
X115024283Y-73605535D01*
X115024283Y-73605535D02*
X115167140Y-73653154D01*
X115167140Y-73653154D02*
X115738569Y-74224582D01*
X115738569Y-74224582D02*
X115738569Y-73605535D01*
X154188569Y-132818035D02*
X153188569Y-132818035D01*
X153188569Y-132818035D02*
X153188569Y-132579940D01*
X153188569Y-132579940D02*
X153236188Y-132437083D01*
X153236188Y-132437083D02*
X153331426Y-132341845D01*
X153331426Y-132341845D02*
X153426664Y-132294226D01*
X153426664Y-132294226D02*
X153617140Y-132246607D01*
X153617140Y-132246607D02*
X153759997Y-132246607D01*
X153759997Y-132246607D02*
X153950473Y-132294226D01*
X153950473Y-132294226D02*
X154045711Y-132341845D01*
X154045711Y-132341845D02*
X154140950Y-132437083D01*
X154140950Y-132437083D02*
X154188569Y-132579940D01*
X154188569Y-132579940D02*
X154188569Y-132818035D01*
X154188569Y-131294226D02*
X154188569Y-131865654D01*
X154188569Y-131579940D02*
X153188569Y-131579940D01*
X153188569Y-131579940D02*
X153331426Y-131675178D01*
X153331426Y-131675178D02*
X153426664Y-131770416D01*
X153426664Y-131770416D02*
X153474283Y-131865654D01*
X153188569Y-130437083D02*
X153188569Y-130627559D01*
X153188569Y-130627559D02*
X153236188Y-130722797D01*
X153236188Y-130722797D02*
X153283807Y-130770416D01*
X153283807Y-130770416D02*
X153426664Y-130865654D01*
X153426664Y-130865654D02*
X153617140Y-130913273D01*
X153617140Y-130913273D02*
X153998092Y-130913273D01*
X153998092Y-130913273D02*
X154093330Y-130865654D01*
X154093330Y-130865654D02*
X154140950Y-130818035D01*
X154140950Y-130818035D02*
X154188569Y-130722797D01*
X154188569Y-130722797D02*
X154188569Y-130532321D01*
X154188569Y-130532321D02*
X154140950Y-130437083D01*
X154140950Y-130437083D02*
X154093330Y-130389464D01*
X154093330Y-130389464D02*
X153998092Y-130341845D01*
X153998092Y-130341845D02*
X153759997Y-130341845D01*
X153759997Y-130341845D02*
X153664759Y-130389464D01*
X153664759Y-130389464D02*
X153617140Y-130437083D01*
X153617140Y-130437083D02*
X153569521Y-130532321D01*
X153569521Y-130532321D02*
X153569521Y-130722797D01*
X153569521Y-130722797D02*
X153617140Y-130818035D01*
X153617140Y-130818035D02*
X153664759Y-130865654D01*
X153664759Y-130865654D02*
X153759997Y-130913273D01*
D11*
%TO.C,U1*%
X140271500Y-59626500D02*
G75*
G02*
X139255500Y-60642500I-1016000J0D01*
G01*
X130619500Y-60642500D02*
G75*
G02*
X129603500Y-59626500I0J1016000D01*
G01*
X141287500Y-63690500D02*
X145097500Y-63690500D01*
X140525500Y-39814500D02*
X145097500Y-39814500D01*
X140271500Y-59626500D02*
X140271500Y-40830500D01*
X130619500Y-60642500D02*
X139255500Y-60642500D01*
X129603500Y-40830500D02*
X129603500Y-59626500D01*
X124777500Y-63690500D02*
X128587500Y-63690500D01*
X124777500Y-39814500D02*
X129349500Y-39814500D01*
%TO.C,SW16*%
X156527500Y-122396250D02*
X170497500Y-122396250D01*
X156527500Y-136366250D02*
X156527500Y-122396250D01*
X170497500Y-122396250D02*
X170497500Y-136366250D01*
X170497500Y-136366250D02*
X156527500Y-136366250D01*
%TO.C,SW15*%
X137477500Y-122396250D02*
X151447500Y-122396250D01*
X137477500Y-136366250D02*
X137477500Y-122396250D01*
X151447500Y-122396250D02*
X151447500Y-136366250D01*
X151447500Y-136366250D02*
X137477500Y-136366250D01*
%TO.C,SW14*%
X118427500Y-122396250D02*
X132397500Y-122396250D01*
X118427500Y-136366250D02*
X118427500Y-122396250D01*
X132397500Y-122396250D02*
X132397500Y-136366250D01*
X132397500Y-136366250D02*
X118427500Y-136366250D01*
%TO.C,SW13*%
X99377500Y-122396250D02*
X113347500Y-122396250D01*
X99377500Y-136366250D02*
X99377500Y-122396250D01*
X113347500Y-122396250D02*
X113347500Y-136366250D01*
X113347500Y-136366250D02*
X99377500Y-136366250D01*
%TO.C,SW12*%
X156527500Y-103346250D02*
X170497500Y-103346250D01*
X156527500Y-117316250D02*
X156527500Y-103346250D01*
X170497500Y-103346250D02*
X170497500Y-117316250D01*
X170497500Y-117316250D02*
X156527500Y-117316250D01*
%TO.C,SW11*%
X137477500Y-103346250D02*
X151447500Y-103346250D01*
X137477500Y-117316250D02*
X137477500Y-103346250D01*
X151447500Y-103346250D02*
X151447500Y-117316250D01*
X151447500Y-117316250D02*
X137477500Y-117316250D01*
%TO.C,SW10*%
X118427500Y-103346250D02*
X132397500Y-103346250D01*
X118427500Y-117316250D02*
X118427500Y-103346250D01*
X132397500Y-103346250D02*
X132397500Y-117316250D01*
X132397500Y-117316250D02*
X118427500Y-117316250D01*
%TO.C,SW9*%
X99377500Y-103346250D02*
X113347500Y-103346250D01*
X99377500Y-117316250D02*
X99377500Y-103346250D01*
X113347500Y-103346250D02*
X113347500Y-117316250D01*
X113347500Y-117316250D02*
X99377500Y-117316250D01*
%TO.C,SW8*%
X156527500Y-84296250D02*
X170497500Y-84296250D01*
X156527500Y-98266250D02*
X156527500Y-84296250D01*
X170497500Y-84296250D02*
X170497500Y-98266250D01*
X170497500Y-98266250D02*
X156527500Y-98266250D01*
%TO.C,SW7*%
X137477500Y-84296250D02*
X151447500Y-84296250D01*
X137477500Y-98266250D02*
X137477500Y-84296250D01*
X151447500Y-84296250D02*
X151447500Y-98266250D01*
X151447500Y-98266250D02*
X137477500Y-98266250D01*
%TO.C,SW6*%
X118427500Y-84296250D02*
X132397500Y-84296250D01*
X118427500Y-98266250D02*
X118427500Y-84296250D01*
X132397500Y-84296250D02*
X132397500Y-98266250D01*
X132397500Y-98266250D02*
X118427500Y-98266250D01*
%TO.C,SW5*%
X99377500Y-84296250D02*
X113347500Y-84296250D01*
X99377500Y-98266250D02*
X99377500Y-84296250D01*
X113347500Y-84296250D02*
X113347500Y-98266250D01*
X113347500Y-98266250D02*
X99377500Y-98266250D01*
%TO.C,SW4*%
X156527500Y-65246250D02*
X170497500Y-65246250D01*
X156527500Y-79216250D02*
X156527500Y-65246250D01*
X170497500Y-65246250D02*
X170497500Y-79216250D01*
X170497500Y-79216250D02*
X156527500Y-79216250D01*
%TO.C,SW3*%
X137477500Y-65246250D02*
X151447500Y-65246250D01*
X137477500Y-79216250D02*
X137477500Y-65246250D01*
X151447500Y-65246250D02*
X151447500Y-79216250D01*
X151447500Y-79216250D02*
X137477500Y-79216250D01*
%TO.C,SW2*%
X118427500Y-65246250D02*
X132397500Y-65246250D01*
X118427500Y-79216250D02*
X118427500Y-65246250D01*
X132397500Y-65246250D02*
X132397500Y-79216250D01*
X132397500Y-79216250D02*
X118427500Y-79216250D01*
%TO.C,SW1*%
X99377500Y-65246250D02*
X113347500Y-65246250D01*
X99377500Y-79216250D02*
X99377500Y-65246250D01*
X113347500Y-65246250D02*
X113347500Y-79216250D01*
X113347500Y-79216250D02*
X99377500Y-79216250D01*
%TO.C,SW17*%
X98706250Y-48962500D02*
X99306250Y-48962500D01*
X99006250Y-49262500D02*
X98706250Y-48962500D01*
X99306250Y-48962500D02*
X99006250Y-49262500D01*
X100406250Y-47162500D02*
X100406250Y-58962500D01*
X104506250Y-47162500D02*
X100406250Y-47162500D01*
X104506250Y-58962500D02*
X100406250Y-58962500D01*
X106006250Y-53062500D02*
X107006250Y-53062500D01*
X106506250Y-52562500D02*
X106506250Y-53562500D01*
X108506250Y-47162500D02*
X112606250Y-47162500D01*
X112606250Y-47162500D02*
X112606250Y-49562500D01*
X112606250Y-51762500D02*
X112606250Y-54362500D01*
X112606250Y-56562500D02*
X112606250Y-58962500D01*
X112606250Y-58962500D02*
X108506250Y-58962500D01*
X109506250Y-53062500D02*
G75*
G02*
X103506250Y-53062500I-3000000J0D01*
G01*
X103506250Y-53062500D02*
G75*
G02*
X109506250Y-53062500I3000000J0D01*
G01*
%TO.C,D14*%
X116633750Y-133963750D02*
X116633750Y-129953750D01*
X116633750Y-133963750D02*
X118633750Y-133963750D01*
X118633750Y-133963750D02*
X118633750Y-129953750D01*
%TO.C,D9*%
X97058750Y-115645000D02*
X97058750Y-111635000D01*
X97058750Y-115645000D02*
X99058750Y-115645000D01*
X99058750Y-115645000D02*
X99058750Y-111635000D01*
%TO.C,D8*%
X154733750Y-95863750D02*
X154733750Y-91853750D01*
X154733750Y-95863750D02*
X156733750Y-95863750D01*
X156733750Y-95863750D02*
X156733750Y-91853750D01*
%TO.C,D15*%
X135508750Y-133963750D02*
X135508750Y-129953750D01*
X135508750Y-133963750D02*
X137508750Y-133963750D01*
X137508750Y-133963750D02*
X137508750Y-129953750D01*
%TO.C,D10*%
X116633750Y-115645000D02*
X116633750Y-111635000D01*
X116633750Y-115645000D02*
X118633750Y-115645000D01*
X118633750Y-115645000D02*
X118633750Y-111635000D01*
%TO.C,D7*%
X135683750Y-95863750D02*
X135683750Y-91853750D01*
X135683750Y-95863750D02*
X137683750Y-95863750D01*
X137683750Y-95863750D02*
X137683750Y-91853750D01*
%TO.C,D6*%
X116633750Y-95850450D02*
X116633750Y-91840450D01*
X116633750Y-95850450D02*
X118633750Y-95850450D01*
X118633750Y-95850450D02*
X118633750Y-91840450D01*
%TO.C,D1*%
X97583750Y-76813750D02*
X97583750Y-72803750D01*
X97583750Y-76813750D02*
X99583750Y-76813750D01*
X99583750Y-76813750D02*
X99583750Y-72803750D01*
%TO.C,D12*%
X154733750Y-115707500D02*
X154733750Y-111697500D01*
X154733750Y-115707500D02*
X156733750Y-115707500D01*
X156733750Y-115707500D02*
X156733750Y-111697500D01*
%TO.C,D18*%
X173625000Y-60241250D02*
X173625000Y-56231250D01*
X173625000Y-60241250D02*
X175625000Y-60241250D01*
X175625000Y-60241250D02*
X175625000Y-56231250D01*
%TO.C,D17*%
X116475000Y-60241250D02*
X116475000Y-56231250D01*
X116475000Y-60241250D02*
X118475000Y-60241250D01*
X118475000Y-60241250D02*
X118475000Y-56231250D01*
%TO.C,D13*%
X97583750Y-133901250D02*
X97583750Y-129891250D01*
X97583750Y-133901250D02*
X99583750Y-133901250D01*
X99583750Y-133901250D02*
X99583750Y-129891250D01*
%TO.C,D5*%
X97078951Y-95850450D02*
X97078951Y-91840450D01*
X97078951Y-95850450D02*
X99078951Y-95850450D01*
X99078951Y-95850450D02*
X99078951Y-91840450D01*
%TO.C,SW18*%
X155712500Y-49125000D02*
X156312500Y-49125000D01*
X156012500Y-49425000D02*
X155712500Y-49125000D01*
X156312500Y-49125000D02*
X156012500Y-49425000D01*
X157412500Y-47325000D02*
X157412500Y-59125000D01*
X161512500Y-47325000D02*
X157412500Y-47325000D01*
X161512500Y-59125000D02*
X157412500Y-59125000D01*
X163012500Y-53225000D02*
X164012500Y-53225000D01*
X163512500Y-52725000D02*
X163512500Y-53725000D01*
X165512500Y-47325000D02*
X169612500Y-47325000D01*
X169612500Y-47325000D02*
X169612500Y-49725000D01*
X169612500Y-51925000D02*
X169612500Y-54525000D01*
X169612500Y-56725000D02*
X169612500Y-59125000D01*
X169612500Y-59125000D02*
X165512500Y-59125000D01*
X166512500Y-53225000D02*
G75*
G02*
X160512500Y-53225000I-3000000J0D01*
G01*
X160512500Y-53225000D02*
G75*
G02*
X166512500Y-53225000I3000000J0D01*
G01*
%TO.C,D11*%
X135683750Y-115645000D02*
X135683750Y-111635000D01*
X135683750Y-115645000D02*
X137683750Y-115645000D01*
X137683750Y-115645000D02*
X137683750Y-111635000D01*
%TO.C,D4*%
X154733750Y-76751250D02*
X154733750Y-72741250D01*
X154733750Y-76751250D02*
X156733750Y-76751250D01*
X156733750Y-76751250D02*
X156733750Y-72741250D01*
%TO.C,D3*%
X135508750Y-76751250D02*
X135508750Y-72741250D01*
X135508750Y-76751250D02*
X137508750Y-76751250D01*
X137508750Y-76751250D02*
X137508750Y-72741250D01*
%TO.C,D2*%
X116283750Y-76751250D02*
X116283750Y-72741250D01*
X116283750Y-76751250D02*
X118283750Y-76751250D01*
X118283750Y-76751250D02*
X118283750Y-72741250D01*
%TO.C,D16*%
X154733750Y-133963750D02*
X154733750Y-129953750D01*
X154733750Y-133963750D02*
X156733750Y-133963750D01*
X156733750Y-133963750D02*
X156733750Y-129953750D01*
%TD*%
M02*
