%TF.GenerationSoftware,KiCad,Pcbnew,9.0.7*%
%TF.CreationDate,2026-03-13T19:51:44+05:30*%
%TF.ProjectId,PCB,5043422e-6b69-4636-9164-5f7063625858,rev?*%
%TF.SameCoordinates,Original*%
%TF.FileFunction,Soldermask,Bot*%
%TF.FilePolarity,Negative*%
%FSLAX46Y46*%
G04 Gerber Fmt 4.6, Leading zero omitted, Abs format (unit mm)*
G04 Created by KiCad (PCBNEW 9.0.7) date 2026-03-13 19:51:44*
%MOMM*%
%LPD*%
G01*
G04 APERTURE LIST*
%ADD10C,2.200000*%
%ADD11R,4.000000X4.000000*%
%ADD12C,1.700000*%
%ADD13C,4.000000*%
%ADD14R,2.000000X2.000000*%
%ADD15C,2.000000*%
%ADD16R,3.200000X2.000000*%
G04 APERTURE END LIST*
D10*
%TO.C,REF\u002A\u002A*%
X181931250Y-42700000D03*
%TD*%
%TO.C,REF\u002A\u002A*%
X181931250Y-136700000D03*
%TD*%
%TO.C,REF\u002A\u002A*%
X87931250Y-136700000D03*
%TD*%
%TO.C,REF\u002A\u002A*%
X87931250Y-42700000D03*
%TD*%
D11*
%TO.C,5V5*%
X179625000Y-56775000D03*
%TD*%
%TO.C,GND*%
X179625000Y-62331250D03*
%TD*%
%TO.C,3V3*%
X179625000Y-67887500D03*
%TD*%
D12*
%TO.C,U1*%
X140017500Y-61912500D03*
X137477500Y-61912500D03*
X134937500Y-61912500D03*
X132397500Y-61912500D03*
X129857500Y-61912500D03*
X142557500Y-61912500D03*
X142557500Y-59372500D03*
X142557500Y-56832500D03*
X142557500Y-54292500D03*
X142557500Y-51752500D03*
X142557500Y-49212500D03*
X142557500Y-46672500D03*
X142557500Y-44132500D03*
X142557500Y-41592500D03*
X127317500Y-61912500D03*
X127317500Y-59372500D03*
X127317500Y-56832500D03*
X127317500Y-54292500D03*
X127317500Y-51752500D03*
X127317500Y-49212500D03*
X127317500Y-46672500D03*
X127317500Y-44132500D03*
X127317500Y-41592500D03*
%TD*%
%TO.C,SW16*%
X158432500Y-129381250D03*
D13*
X163512500Y-129381250D03*
D12*
X168592500Y-129381250D03*
D10*
X166052500Y-124301250D03*
X159702500Y-126841250D03*
%TD*%
D12*
%TO.C,SW15*%
X139382500Y-129381250D03*
D13*
X144462500Y-129381250D03*
D12*
X149542500Y-129381250D03*
D10*
X147002500Y-124301250D03*
X140652500Y-126841250D03*
%TD*%
D12*
%TO.C,SW14*%
X120332500Y-129381250D03*
D13*
X125412500Y-129381250D03*
D12*
X130492500Y-129381250D03*
D10*
X127952500Y-124301250D03*
X121602500Y-126841250D03*
%TD*%
D12*
%TO.C,SW13*%
X101282500Y-129381250D03*
D13*
X106362500Y-129381250D03*
D12*
X111442500Y-129381250D03*
D10*
X108902500Y-124301250D03*
X102552500Y-126841250D03*
%TD*%
D12*
%TO.C,SW12*%
X158432500Y-110331250D03*
D13*
X163512500Y-110331250D03*
D12*
X168592500Y-110331250D03*
D10*
X166052500Y-105251250D03*
X159702500Y-107791250D03*
%TD*%
D12*
%TO.C,SW11*%
X139382500Y-110331250D03*
D13*
X144462500Y-110331250D03*
D12*
X149542500Y-110331250D03*
D10*
X147002500Y-105251250D03*
X140652500Y-107791250D03*
%TD*%
D12*
%TO.C,SW10*%
X120332500Y-110331250D03*
D13*
X125412500Y-110331250D03*
D12*
X130492500Y-110331250D03*
D10*
X127952500Y-105251250D03*
X121602500Y-107791250D03*
%TD*%
D12*
%TO.C,SW9*%
X101282500Y-110331250D03*
D13*
X106362500Y-110331250D03*
D12*
X111442500Y-110331250D03*
D10*
X108902500Y-105251250D03*
X102552500Y-107791250D03*
%TD*%
D12*
%TO.C,SW8*%
X158432500Y-91281250D03*
D13*
X163512500Y-91281250D03*
D12*
X168592500Y-91281250D03*
D10*
X166052500Y-86201250D03*
X159702500Y-88741250D03*
%TD*%
D12*
%TO.C,SW7*%
X139382500Y-91281250D03*
D13*
X144462500Y-91281250D03*
D12*
X149542500Y-91281250D03*
D10*
X147002500Y-86201250D03*
X140652500Y-88741250D03*
%TD*%
D12*
%TO.C,SW6*%
X120332500Y-91281250D03*
D13*
X125412500Y-91281250D03*
D12*
X130492500Y-91281250D03*
D10*
X127952500Y-86201250D03*
X121602500Y-88741250D03*
%TD*%
D12*
%TO.C,SW5*%
X101282500Y-91281250D03*
D13*
X106362500Y-91281250D03*
D12*
X111442500Y-91281250D03*
D10*
X108902500Y-86201250D03*
X102552500Y-88741250D03*
%TD*%
D12*
%TO.C,SW4*%
X158432500Y-72231250D03*
D13*
X163512500Y-72231250D03*
D12*
X168592500Y-72231250D03*
D10*
X166052500Y-67151250D03*
X159702500Y-69691250D03*
%TD*%
D12*
%TO.C,SW3*%
X139382500Y-72231250D03*
D13*
X144462500Y-72231250D03*
D12*
X149542500Y-72231250D03*
D10*
X147002500Y-67151250D03*
X140652500Y-69691250D03*
%TD*%
D12*
%TO.C,SW2*%
X120332500Y-72231250D03*
D13*
X125412500Y-72231250D03*
D12*
X130492500Y-72231250D03*
D10*
X127952500Y-67151250D03*
X121602500Y-69691250D03*
%TD*%
D12*
%TO.C,SW1*%
X101282500Y-72231250D03*
D13*
X106362500Y-72231250D03*
D12*
X111442500Y-72231250D03*
D10*
X108902500Y-67151250D03*
X102552500Y-69691250D03*
%TD*%
D14*
%TO.C,SW17*%
X99006250Y-50562500D03*
D15*
X99006250Y-55562500D03*
X99006250Y-53062500D03*
D16*
X106506250Y-47462500D03*
X106506250Y-58662500D03*
D15*
X113506250Y-55562500D03*
X113506250Y-50562500D03*
%TD*%
D14*
%TO.C,SW18*%
X156012500Y-50725000D03*
D15*
X156012500Y-55725000D03*
X156012500Y-53225000D03*
D16*
X163512500Y-47625000D03*
X163512500Y-58825000D03*
D15*
X170512500Y-55725000D03*
X170512500Y-50725000D03*
%TD*%
M02*
