M48
; DRILL file {KiCad 9.0.7} date 2026-03-13T19:51:48+0530
; FORMAT={-:-/ absolute / metric / decimal}
; #@! TF.CreationDate,2026-03-13T19:51:48+05:30
; #@! TF.GenerationSoftware,Kicad,Pcbnew,9.0.7
; #@! TF.FileFunction,Plated,1,2,PTH
FMAT,2
METRIC
; #@! TA.AperFunction,Plated,PTH,ViaDrill
T1C0.300
; #@! TA.AperFunction,Plated,PTH,ComponentDrill
T2C0.800
; #@! TA.AperFunction,Plated,PTH,ComponentDrill
T3C1.000
; #@! TA.AperFunction,Plated,PTH,ComponentDrill
T4C1.500
%
G90
G05
T1
X112.125Y-48.375
X117.507Y-62.793
X119.45Y-62.8
X123.425Y-49.5
X123.525Y-65.749
X129.857Y-62.812
X130.325Y-69.4
X131.7Y-76.641
X133.55Y-68.25
X135.275Y-95.754
X137.475Y-59.575
X161.7Y-61.8
X166.653Y-63.175
X169.625Y-64.4
X171.95Y-65.9
X172.25Y-48.926
X180.225Y-53.075
T2
X127.317Y-41.593
X127.317Y-44.133
X127.317Y-46.672
X127.317Y-49.212
X127.317Y-51.752
X127.317Y-54.292
X127.317Y-56.832
X127.317Y-59.372
X127.317Y-61.912
X129.857Y-61.912
X132.398Y-61.912
X134.938Y-61.912
X137.477Y-61.912
X140.017Y-61.912
X142.558Y-41.593
X142.558Y-44.133
X142.558Y-46.672
X142.558Y-49.212
X142.558Y-51.752
X142.558Y-54.292
X142.558Y-56.832
X142.558Y-59.372
X142.558Y-61.912
T3
X99.006Y-50.562
X99.006Y-53.062
X99.006Y-55.562
X113.506Y-50.562
X113.506Y-55.562
X156.012Y-50.725
X156.012Y-53.225
X156.012Y-55.725
X170.512Y-50.725
X170.512Y-55.725
T4
X102.552Y-69.691
X102.552Y-88.741
X102.552Y-107.791
X102.552Y-126.841
X108.902Y-67.151
X108.902Y-86.201
X108.902Y-105.251
X108.902Y-124.301
X121.602Y-69.691
X121.602Y-88.741
X121.602Y-107.791
X121.602Y-126.841
X127.953Y-67.151
X127.953Y-86.201
X127.953Y-105.251
X127.953Y-124.301
X140.653Y-69.691
X140.653Y-88.741
X140.653Y-107.791
X140.653Y-126.841
X147.002Y-67.151
X147.002Y-86.201
X147.002Y-105.251
X147.002Y-124.301
X159.702Y-69.691
X159.702Y-88.741
X159.702Y-107.791
X159.702Y-126.841
X166.052Y-67.151
X166.052Y-86.201
X166.052Y-105.251
X166.052Y-124.301
T4
G00X105.856Y-47.462
M15
G01X107.156Y-47.462
M16
G05
G00X105.856Y-58.662
M15
G01X107.156Y-58.662
M16
G05
G00X162.862Y-47.625
M15
G01X164.162Y-47.625
M16
G05
G00X162.862Y-58.825
M15
G01X164.162Y-58.825
M16
G05
M30
