  0
SECTION
  2
HEADER
  9
$ANGBASE
  50
0.0
  9
$ANGDIR
  70
1
  9
$MEASUREMENT
  70
0
  0
ENDSEC
  0
SECTION
  2
TABLES
  0
TABLE
  2
LTYPE
  70
4
  0
LTYPE
  5
40F
  2
CONTINUOUS
  70
0
  3
Solid line
  72
65
  73
0
  40
0.0
  0
LTYPE
  5
410
  2
DASHDOT
 70
0
  3
Dash Dot ____ _ ____ _
 72
65
 73
4
 40
2.0
 49
1.25
 49
-0.25
 49
0.25
 49
-0.25
  0
LTYPE
  5
411
  2
DASHED
 70
0
  3
Dashed __ __ __ __ __
 72
65
 73
2
 40
0.75
 49
0.5
 49
-0.25
  0
LTYPE
  5
43B
  2
DOTTED
 70
0
  3
Dotted .  .  .  .
 72
65
 73
2
 40
0.2
 49
0.0
 49
-0.2
  0
ENDTAB
  0
TABLE
  2
STYLE
  70
4
  0
STYLE
  2
KICAD
  70
0
  40
0
  41
1
  42
1
  50
0
  71
0
  3
isocp.shx
  0
STYLE
  2
KICADB
  70
0
  40
0
  41
1
  42
1
  50
0
  71
0
  3
isocp.shx
  0
STYLE
  2
KICADI
  70
0
  40
0
  41
1
  42
1
  50
15
  71
0
  3
isocp.shx
  0
STYLE
  2
KICADBI
  70
0
  40
0
  41
1
  42
1
  50
15
  71
0
  3
isocp.shx
  0
ENDTAB
  0
TABLE
  2
LAYER
  70
1
  0
LAYER
  2
BLACK
  70
0
  62
7
  6
CONTINUOUS
  0
ENDTAB
  0
ENDSEC
  0
SECTION
  2
ENTITIES
0
LINE
8
BLACK
6
CONTINUOUS
10
3.4774137007874013
20
-5.3036972440944883
11
3.4874868110236221
21
-5.3063962992125981
0
LINE
8
BLACK
6
CONTINUOUS
10
3.4874868110236221
20
-5.3063962992125981
11
3.4971214566929132
21
-5.3103871259842519
0
LINE
8
BLACK
6
CONTINUOUS
10
3.4971214566929132
20
-5.3103871259842519
11
3.5061527559055117
21
-5.3156013385826775
0
LINE
8
BLACK
6
CONTINUOUS
10
3.5061527559055117
20
-5.3156013385826775
11
3.5144261811023623
21
-5.3219497637795277
0
LINE
8
BLACK
6
CONTINUOUS
10
3.5144261811023623
20
-5.3219497637795277
11
3.5218002362204723
21
-5.3293238188976373
0
LINE
8
BLACK
6
CONTINUOUS
10
3.5218002362204723
20
-5.3293238188976373
11
3.528148661417323
21
-5.3375972440944883
0
LINE
8
BLACK
6
CONTINUOUS
10
3.528148661417323
20
-5.3375972440944883
11
3.5333628740157481
21
-5.3466285433070864
0
LINE
8
BLACK
6
CONTINUOUS
10
3.5333628740157481
20
-5.3466285433070864
11
3.5373537007874014
21
-5.3562631889763779
0
LINE
8
BLACK
6
CONTINUOUS
10
3.5373537007874014
20
-5.3562631889763779
11
3.5400527559055117
21
-5.3663362992125982
0
LINE
8
BLACK
6
CONTINUOUS
10
3.5400527559055117
20
-5.3663362992125982
11
3.5414139370078739
21
-5.3766755511811022
0
LINE
8
BLACK
6
CONTINUOUS
10
3.5414139370078739
20
-5.3766755511811022
11
3.5414139370078739
21
-5.3871039763779525
0
LINE
8
BLACK
6
CONTINUOUS
10
3.5414139370078739
20
-5.3871039763779525
11
3.5400527559055117
21
-5.3974432283464564
0
LINE
8
BLACK
6
CONTINUOUS
10
3.5400527559055117
20
-5.3974432283464564
11
3.5373537007874014
21
-5.4075163385826768
0
LINE
8
BLACK
6
CONTINUOUS
10
3.5373537007874014
20
-5.4075163385826768
11
3.5333628740157481
21
-5.4171509842519683
0
LINE
8
BLACK
6
CONTINUOUS
10
3.5333628740157481
20
-5.4171509842519683
11
3.528148661417323
21
-5.4261822834645672
0
LINE
8
BLACK
6
CONTINUOUS
10
3.528148661417323
20
-5.4261822834645672
11
3.5218002362204723
21
-5.4344557086614174
0
LINE
8
BLACK
6
CONTINUOUS
10
3.5218002362204723
20
-5.4344557086614174
11
3.5144261811023623
21
-5.4418297637795279
0
LINE
8
BLACK
6
CONTINUOUS
10
3.5144261811023623
20
-5.4418297637795279
11
3.5061527559055117
21
-5.4481781889763781
0
LINE
8
BLACK
6
CONTINUOUS
10
3.5061527559055117
20
-5.4481781889763781
11
3.4971214566929132
21
-5.4533924015748028
0
LINE
8
BLACK
6
CONTINUOUS
10
3.4971214566929132
20
-5.4533924015748028
11
3.4874868110236221
21
-5.4573832283464565
0
LINE
8
BLACK
6
CONTINUOUS
10
3.4874868110236221
20
-5.4573832283464565
11
3.4774137007874013
21
-5.4600822834645664
0
LINE
8
BLACK
6
CONTINUOUS
10
3.4774137007874013
20
-5.4600822834645664
11
3.4670744488188974
21
-5.461443464566929
0
LINE
8
BLACK
6
CONTINUOUS
10
3.4670744488188974
20
-5.461443464566929
11
3.4566460236220471
21
-5.461443464566929
0
LINE
8
BLACK
6
CONTINUOUS
10
3.4566460236220471
20
-5.461443464566929
11
3.4463067716535432
21
-5.4600822834645664
0
LINE
8
BLACK
6
CONTINUOUS
10
3.4463067716535432
20
-5.4600822834645664
11
3.4362336614173228
21
-5.4573832283464565
0
LINE
8
BLACK
6
CONTINUOUS
10
3.4362336614173228
20
-5.4573832283464565
11
3.4265990157480313
21
-5.4533924015748028
0
LINE
8
BLACK
6
CONTINUOUS
10
3.4265990157480313
20
-5.4533924015748028
11
3.4175677165354328
21
-5.4481781889763781
0
LINE
8
BLACK
6
CONTINUOUS
10
3.4175677165354328
20
-5.4481781889763781
11
3.4092942913385826
21
-5.4418297637795279
0
LINE
8
BLACK
6
CONTINUOUS
10
3.4092942913385826
20
-5.4418297637795279
11
3.4019202362204726
21
-5.4344557086614174
0
LINE
8
BLACK
6
CONTINUOUS
10
3.4019202362204726
20
-5.4344557086614174
11
3.3955718110236219
21
-5.4261822834645672
0
LINE
8
BLACK
6
CONTINUOUS
10
3.3955718110236219
20
-5.4261822834645672
11
3.3903575984251968
21
-5.4171509842519683
0
LINE
8
BLACK
6
CONTINUOUS
10
3.3903575984251968
20
-5.4171509842519683
11
3.3863667716535431
21
-5.4075163385826768
0
LINE
8
BLACK
6
CONTINUOUS
10
3.3863667716535431
20
-5.4075163385826768
11
3.3836677165354332
21
-5.3974432283464564
0
LINE
8
BLACK
6
CONTINUOUS
10
3.3836677165354332
20
-5.3974432283464564
11
3.3823065354330706
21
-5.3871039763779525
0
LINE
8
BLACK
6
CONTINUOUS
10
3.3823065354330706
20
-5.3871039763779525
11
3.3823065354330706
21
-5.3767933858267716
0
LINE
8
BLACK
6
CONTINUOUS
10
3.3823065354330706
20
-5.3767933858267716
11
3.3823065354330706
21
-5.3766755511811022
0
LINE
8
BLACK
6
CONTINUOUS
10
3.3823065354330706
20
-5.3766755511811022
11
3.3836677165354332
21
-5.3663362992125982
0
LINE
8
BLACK
6
CONTINUOUS
10
3.3836677165354332
20
-5.3663362992125982
11
3.3863667716535431
21
-5.3562631889763779
0
LINE
8
BLACK
6
CONTINUOUS
10
3.3863667716535431
20
-5.3562631889763779
11
3.3903575984251968
21
-5.3466285433070864
0
LINE
8
BLACK
6
CONTINUOUS
10
3.3903575984251968
20
-5.3466285433070864
11
3.3955718110236219
21
-5.3375972440944883
0
LINE
8
BLACK
6
CONTINUOUS
10
3.3955718110236219
20
-5.3375972440944883
11
3.4019202362204726
21
-5.3293238188976373
0
LINE
8
BLACK
6
CONTINUOUS
10
3.4019202362204726
20
-5.3293238188976373
11
3.4092942913385826
21
-5.3219497637795277
0
LINE
8
BLACK
6
CONTINUOUS
10
3.4092942913385826
20
-5.3219497637795277
11
3.4175677165354328
21
-5.3156013385826775
0
LINE
8
BLACK
6
CONTINUOUS
10
3.4175677165354328
20
-5.3156013385826775
11
3.4265990157480313
21
-5.3103871259842519
0
LINE
8
BLACK
6
CONTINUOUS
10
3.4265990157480313
20
-5.3103871259842519
11
3.4362336614173228
21
-5.3063962992125981
0
LINE
8
BLACK
6
CONTINUOUS
10
3.4362336614173228
20
-5.3063962992125981
11
3.4463067716535432
21
-5.3036972440944883
0
LINE
8
BLACK
6
CONTINUOUS
10
3.4463067716535432
20
-5.3036972440944883
11
3.4566460236220471
21
-5.3023360629921257
0
LINE
8
BLACK
6
CONTINUOUS
10
3.4566460236220471
20
-5.3023360629921257
11
3.4670744488188974
21
-5.3023360629921257
0
LINE
8
BLACK
6
CONTINUOUS
10
3.4670744488188974
20
-5.3023360629921257
11
3.4774137007874013
21
-5.3036972440944883
0
LINE
8
BLACK
6
CONTINUOUS
10
3.3841043307086611
20
-5.3869861417322831
11
3.3854347637795277
21
-5.3970917322834646
0
LINE
8
BLACK
6
CONTINUOUS
10
3.3854347637795277
20
-5.3970917322834646
11
3.3880728346456692
21
-5.4069372047244091
0
LINE
8
BLACK
6
CONTINUOUS
10
3.3880728346456692
20
-5.4069372047244091
11
3.3919734251968503
21
-5.4163541338582677
0
LINE
8
BLACK
6
CONTINUOUS
10
3.3919734251968503
20
-5.4163541338582677
11
3.3970698425196848
21
-5.4251813385826768
0
LINE
8
BLACK
6
CONTINUOUS
10
3.3970698425196848
20
-5.4251813385826768
11
3.4032748031496061
21
-5.4332677952755901
0
LINE
8
BLACK
6
CONTINUOUS
10
3.4032748031496061
20
-5.4332677952755901
11
3.4104822047244094
21
-5.4404751968503939
0
LINE
8
BLACK
6
CONTINUOUS
10
3.4104822047244094
20
-5.4404751968503939
11
3.4185686614173227
21
-5.4466801574803148
0
LINE
8
BLACK
6
CONTINUOUS
10
3.4185686614173227
20
-5.4466801574803148
11
3.4273958661417323
21
-5.4517765748031497
0
LINE
8
BLACK
6
CONTINUOUS
10
3.4273958661417323
20
-5.4517765748031497
11
3.4368127952755905
21
-5.4556771653543308
0
LINE
8
BLACK
6
CONTINUOUS
10
3.4368127952755905
20
-5.4556771653543308
11
3.4466582677165354
21
-5.4583152362204723
0
LINE
8
BLACK
6
CONTINUOUS
10
3.4466582677165354
20
-5.4583152362204723
11
3.4567638582677165
21
-5.4596456692913389
0
LINE
8
BLACK
6
CONTINUOUS
10
3.4567638582677165
20
-5.4596456692913389
11
3.4669566141732284
21
-5.4596456692913389
0
LINE
8
BLACK
6
CONTINUOUS
10
3.4669566141732284
20
-5.4596456692913389
11
3.4770622047244095
21
-5.4583152362204723
0
LINE
8
BLACK
6
CONTINUOUS
10
3.4770622047244095
20
-5.4583152362204723
11
3.4869076771653544
21
-5.4556771653543308
0
LINE
8
BLACK
6
CONTINUOUS
10
3.4869076771653544
20
-5.4556771653543308
11
3.4963246062992126
21
-5.4517765748031497
0
LINE
8
BLACK
6
CONTINUOUS
10
3.4963246062992126
20
-5.4517765748031497
11
3.5051518110236222
21
-5.4466801574803148
0
LINE
8
BLACK
6
CONTINUOUS
10
3.5051518110236222
20
-5.4466801574803148
11
3.5132382677165355
21
-5.4404751968503939
0
LINE
8
BLACK
6
CONTINUOUS
10
3.5132382677165355
20
-5.4404751968503939
11
3.5204456692913384
21
-5.4332677952755901
0
LINE
8
BLACK
6
CONTINUOUS
10
3.5204456692913384
20
-5.4332677952755901
11
3.5266506299212597
21
-5.4251813385826768
0
LINE
8
BLACK
6
CONTINUOUS
10
3.5266506299212597
20
-5.4251813385826768
11
3.5317470472440946
21
-5.4163541338582677
0
LINE
8
BLACK
6
CONTINUOUS
10
3.5317470472440946
20
-5.4163541338582677
11
3.5356476377952757
21
-5.4069372047244091
0
LINE
8
BLACK
6
CONTINUOUS
10
3.5356476377952757
20
-5.4069372047244091
11
3.5382857086614172
21
-5.3970917322834646
0
LINE
8
BLACK
6
CONTINUOUS
10
3.5382857086614172
20
-5.3970917322834646
11
3.5396161417322833
21
-5.3869861417322831
0
LINE
8
BLACK
6
CONTINUOUS
10
3.5396161417322833
20
-5.3869861417322831
11
3.5396161417322833
21
-5.3767933858267716
0
LINE
8
BLACK
6
CONTINUOUS
10
3.5396161417322833
20
-5.3767933858267716
11
3.5382857086614172
21
-5.36668779527559
0
LINE
8
BLACK
6
CONTINUOUS
10
3.5382857086614172
20
-5.36668779527559
11
3.5356476377952757
21
-5.3568423228346456
0
LINE
8
BLACK
6
CONTINUOUS
10
3.5356476377952757
20
-5.3568423228346456
11
3.5317470472440946
21
-5.347425393700787
0
LINE
8
BLACK
6
CONTINUOUS
10
3.5317470472440946
20
-5.347425393700787
11
3.5266506299212597
21
-5.3385981889763778
0
LINE
8
BLACK
6
CONTINUOUS
10
3.5266506299212597
20
-5.3385981889763778
11
3.5204456692913384
21
-5.3305117322834645
0
LINE
8
BLACK
6
CONTINUOUS
10
3.5204456692913384
20
-5.3305117322834645
11
3.5132382677165355
21
-5.3233043307086616
0
LINE
8
BLACK
6
CONTINUOUS
10
3.5132382677165355
20
-5.3233043307086616
11
3.5051518110236222
21
-5.3170993700787399
0
LINE
8
BLACK
6
CONTINUOUS
10
3.5051518110236222
20
-5.3170993700787399
11
3.4963246062992126
21
-5.3120029527559049
0
LINE
8
BLACK
6
CONTINUOUS
10
3.4963246062992126
20
-5.3120029527559049
11
3.4869076771653544
21
-5.3081023622047239
0
LINE
8
BLACK
6
CONTINUOUS
10
3.4869076771653544
20
-5.3081023622047239
11
3.4770622047244095
21
-5.3054642913385823
0
LINE
8
BLACK
6
CONTINUOUS
10
3.4770622047244095
20
-5.3054642913385823
11
3.4669566141732284
21
-5.3041338582677167
0
LINE
8
BLACK
6
CONTINUOUS
10
3.4669566141732284
20
-5.3041338582677167
11
3.4567638582677165
21
-5.3041338582677167
0
LINE
8
BLACK
6
CONTINUOUS
10
3.4567638582677165
20
-5.3041338582677167
11
3.4466582677165354
21
-5.3054642913385823
0
LINE
8
BLACK
6
CONTINUOUS
10
3.4466582677165354
20
-5.3054642913385823
11
3.4368127952755905
21
-5.3081023622047239
0
LINE
8
BLACK
6
CONTINUOUS
10
3.4368127952755905
20
-5.3081023622047239
11
3.4273958661417323
21
-5.3120029527559049
0
LINE
8
BLACK
6
CONTINUOUS
10
3.4273958661417323
20
-5.3120029527559049
11
3.4185686614173227
21
-5.3170993700787399
0
LINE
8
BLACK
6
CONTINUOUS
10
3.4185686614173227
20
-5.3170993700787399
11
3.4104822047244094
21
-5.3233043307086616
0
LINE
8
BLACK
6
CONTINUOUS
10
3.4104822047244094
20
-5.3233043307086616
11
3.4032748031496061
21
-5.3305117322834645
0
LINE
8
BLACK
6
CONTINUOUS
10
3.4032748031496061
20
-5.3305117322834645
11
3.3970698425196848
21
-5.3385981889763778
0
LINE
8
BLACK
6
CONTINUOUS
10
3.3970698425196848
20
-5.3385981889763778
11
3.3919734251968503
21
-5.347425393700787
0
LINE
8
BLACK
6
CONTINUOUS
10
3.3919734251968503
20
-5.347425393700787
11
3.3880728346456692
21
-5.3568423228346456
0
LINE
8
BLACK
6
CONTINUOUS
10
3.3880728346456692
20
-5.3568423228346456
11
3.3854347637795277
21
-5.36668779527559
0
LINE
8
BLACK
6
CONTINUOUS
10
3.3854347637795277
20
-5.36668779527559
11
3.3841043307086611
21
-5.3767933858267716
0
LINE
8
BLACK
6
CONTINUOUS
10
3.3841043307086611
20
-5.3767933858267716
11
3.3841043307086611
21
-5.3869861417322831
0
LINE
8
BLACK
6
CONTINUOUS
10
7.1782011023622045
20
-5.3036972440944883
11
7.1882742125984249
21
-5.3063962992125981
0
LINE
8
BLACK
6
CONTINUOUS
10
7.1882742125984249
20
-5.3063962992125981
11
7.1979088582677164
21
-5.3103871259842519
0
LINE
8
BLACK
6
CONTINUOUS
10
7.1979088582677164
20
-5.3103871259842519
11
7.2069401574803145
21
-5.3156013385826775
0
LINE
8
BLACK
6
CONTINUOUS
10
7.2069401574803145
20
-5.3156013385826775
11
7.2152135826771655
21
-5.3219497637795277
0
LINE
8
BLACK
6
CONTINUOUS
10
7.2152135826771655
20
-5.3219497637795277
11
7.2225876377952751
21
-5.3293238188976373
0
LINE
8
BLACK
6
CONTINUOUS
10
7.2225876377952751
20
-5.3293238188976373
11
7.2289360629921262
21
-5.3375972440944883
0
LINE
8
BLACK
6
CONTINUOUS
10
7.2289360629921262
20
-5.3375972440944883
11
7.2341502755905509
21
-5.3466285433070864
0
LINE
8
BLACK
6
CONTINUOUS
10
7.2341502755905509
20
-5.3466285433070864
11
7.2381411023622046
21
-5.3562631889763779
0
LINE
8
BLACK
6
CONTINUOUS
10
7.2381411023622046
20
-5.3562631889763779
11
7.2408401574803145
21
-5.3663362992125982
0
LINE
8
BLACK
6
CONTINUOUS
10
7.2408401574803145
20
-5.3663362992125982
11
7.2422013385826771
21
-5.3766755511811022
0
LINE
8
BLACK
6
CONTINUOUS
10
7.2422013385826771
20
-5.3766755511811022
11
7.2422013385826771
21
-5.3871039763779525
0
LINE
8
BLACK
6
CONTINUOUS
10
7.2422013385826771
20
-5.3871039763779525
11
7.2408401574803145
21
-5.3974432283464564
0
LINE
8
BLACK
6
CONTINUOUS
10
7.2408401574803145
20
-5.3974432283464564
11
7.2381411023622046
21
-5.4075163385826768
0
LINE
8
BLACK
6
CONTINUOUS
10
7.2381411023622046
20
-5.4075163385826768
11
7.2341502755905509
21
-5.4171509842519683
0
LINE
8
BLACK
6
CONTINUOUS
10
7.2341502755905509
20
-5.4171509842519683
11
7.2289360629921262
21
-5.4261822834645672
0
LINE
8
BLACK
6
CONTINUOUS
10
7.2289360629921262
20
-5.4261822834645672
11
7.2225876377952751
21
-5.4344557086614174
0
LINE
8
BLACK
6
CONTINUOUS
10
7.2225876377952751
20
-5.4344557086614174
11
7.2152135826771655
21
-5.4418297637795279
0
LINE
8
BLACK
6
CONTINUOUS
10
7.2152135826771655
20
-5.4418297637795279
11
7.2069401574803145
21
-5.4481781889763781
0
LINE
8
BLACK
6
CONTINUOUS
10
7.2069401574803145
20
-5.4481781889763781
11
7.1979088582677164
21
-5.4533924015748028
0
LINE
8
BLACK
6
CONTINUOUS
10
7.1979088582677164
20
-5.4533924015748028
11
7.1882742125984249
21
-5.4573832283464565
0
LINE
8
BLACK
6
CONTINUOUS
10
7.1882742125984249
20
-5.4573832283464565
11
7.1782011023622045
21
-5.4600822834645664
0
LINE
8
BLACK
6
CONTINUOUS
10
7.1782011023622045
20
-5.4600822834645664
11
7.1678618503937006
21
-5.461443464566929
0
LINE
8
BLACK
6
CONTINUOUS
10
7.1678618503937006
20
-5.461443464566929
11
7.1574334251968503
21
-5.461443464566929
0
LINE
8
BLACK
6
CONTINUOUS
10
7.1574334251968503
20
-5.461443464566929
11
7.1470941732283464
21
-5.4600822834645664
0
LINE
8
BLACK
6
CONTINUOUS
10
7.1470941732283464
20
-5.4600822834645664
11
7.137021062992126
21
-5.4573832283464565
0
LINE
8
BLACK
6
CONTINUOUS
10
7.137021062992126
20
-5.4573832283464565
11
7.1273864173228345
21
-5.4533924015748028
0
LINE
8
BLACK
6
CONTINUOUS
10
7.1273864173228345
20
-5.4533924015748028
11
7.1183551181102365
21
-5.4481781889763781
0
LINE
8
BLACK
6
CONTINUOUS
10
7.1183551181102365
20
-5.4481781889763781
11
7.1100816929133854
21
-5.4418297637795279
0
LINE
8
BLACK
6
CONTINUOUS
10
7.1100816929133854
20
-5.4418297637795279
11
7.1027076377952758
21
-5.4344557086614174
0
LINE
8
BLACK
6
CONTINUOUS
10
7.1027076377952758
20
-5.4344557086614174
11
7.0963592125984247
21
-5.4261822834645672
0
LINE
8
BLACK
6
CONTINUOUS
10
7.0963592125984247
20
-5.4261822834645672
11
7.091145
21
-5.4171509842519683
0
LINE
8
BLACK
6
CONTINUOUS
10
7.091145
20
-5.4171509842519683
11
7.0871541732283463
21
-5.4075163385826768
0
LINE
8
BLACK
6
CONTINUOUS
10
7.0871541732283463
20
-5.4075163385826768
11
7.0844551181102364
21
-5.3974432283464564
0
LINE
8
BLACK
6
CONTINUOUS
10
7.0844551181102364
20
-5.3974432283464564
11
7.0830939370078738
21
-5.3871039763779525
0
LINE
8
BLACK
6
CONTINUOUS
10
7.0830939370078738
20
-5.3871039763779525
11
7.0830939370078738
21
-5.3767933858267716
0
LINE
8
BLACK
6
CONTINUOUS
10
7.0830939370078738
20
-5.3767933858267716
11
7.0830939370078738
21
-5.3766755511811022
0
LINE
8
BLACK
6
CONTINUOUS
10
7.0830939370078738
20
-5.3766755511811022
11
7.0844551181102364
21
-5.3663362992125982
0
LINE
8
BLACK
6
CONTINUOUS
10
7.0844551181102364
20
-5.3663362992125982
11
7.0871541732283463
21
-5.3562631889763779
0
LINE
8
BLACK
6
CONTINUOUS
10
7.0871541732283463
20
-5.3562631889763779
11
7.091145
21
-5.3466285433070864
0
LINE
8
BLACK
6
CONTINUOUS
10
7.091145
20
-5.3466285433070864
11
7.0963592125984247
21
-5.3375972440944883
0
LINE
8
BLACK
6
CONTINUOUS
10
7.0963592125984247
20
-5.3375972440944883
11
7.1027076377952758
21
-5.3293238188976373
0
LINE
8
BLACK
6
CONTINUOUS
10
7.1027076377952758
20
-5.3293238188976373
11
7.1100816929133854
21
-5.3219497637795277
0
LINE
8
BLACK
6
CONTINUOUS
10
7.1100816929133854
20
-5.3219497637795277
11
7.1183551181102365
21
-5.3156013385826775
0
LINE
8
BLACK
6
CONTINUOUS
10
7.1183551181102365
20
-5.3156013385826775
11
7.1273864173228345
21
-5.3103871259842519
0
LINE
8
BLACK
6
CONTINUOUS
10
7.1273864173228345
20
-5.3103871259842519
11
7.137021062992126
21
-5.3063962992125981
0
LINE
8
BLACK
6
CONTINUOUS
10
7.137021062992126
20
-5.3063962992125981
11
7.1470941732283464
21
-5.3036972440944883
0
LINE
8
BLACK
6
CONTINUOUS
10
7.1470941732283464
20
-5.3036972440944883
11
7.1574334251968503
21
-5.3023360629921257
0
LINE
8
BLACK
6
CONTINUOUS
10
7.1574334251968503
20
-5.3023360629921257
11
7.1678618503937006
21
-5.3023360629921257
0
LINE
8
BLACK
6
CONTINUOUS
10
7.1678618503937006
20
-5.3023360629921257
11
7.1782011023622045
21
-5.3036972440944883
0
LINE
8
BLACK
6
CONTINUOUS
10
7.0848917322834648
20
-5.3869861417322831
11
7.0862221653543305
21
-5.3970917322834646
0
LINE
8
BLACK
6
CONTINUOUS
10
7.0862221653543305
20
-5.3970917322834646
11
7.088860236220472
21
-5.4069372047244091
0
LINE
8
BLACK
6
CONTINUOUS
10
7.088860236220472
20
-5.4069372047244091
11
7.0927608267716531
21
-5.4163541338582677
0
LINE
8
BLACK
6
CONTINUOUS
10
7.0927608267716531
20
-5.4163541338582677
11
7.097857244094488
21
-5.4251813385826768
0
LINE
8
BLACK
6
CONTINUOUS
10
7.097857244094488
20
-5.4251813385826768
11
7.1040622047244089
21
-5.4332677952755901
0
LINE
8
BLACK
6
CONTINUOUS
10
7.1040622047244089
20
-5.4332677952755901
11
7.1112696062992127
21
-5.4404751968503939
0
LINE
8
BLACK
6
CONTINUOUS
10
7.1112696062992127
20
-5.4404751968503939
11
7.119356062992126
21
-5.4466801574803148
0
LINE
8
BLACK
6
CONTINUOUS
10
7.119356062992126
20
-5.4466801574803148
11
7.1281832677165351
21
-5.4517765748031497
0
LINE
8
BLACK
6
CONTINUOUS
10
7.1281832677165351
20
-5.4517765748031497
11
7.1376001968503937
21
-5.4556771653543308
0
LINE
8
BLACK
6
CONTINUOUS
10
7.1376001968503937
20
-5.4556771653543308
11
7.1474456692913382
21
-5.4583152362204723
0
LINE
8
BLACK
6
CONTINUOUS
10
7.1474456692913382
20
-5.4583152362204723
11
7.1575512598425197
21
-5.4596456692913389
0
LINE
8
BLACK
6
CONTINUOUS
10
7.1575512598425197
20
-5.4596456692913389
11
7.1677440157480312
21
-5.4596456692913389
0
LINE
8
BLACK
6
CONTINUOUS
10
7.1677440157480312
20
-5.4596456692913389
11
7.1778496062992128
21
-5.4583152362204723
0
LINE
8
BLACK
6
CONTINUOUS
10
7.1778496062992128
20
-5.4583152362204723
11
7.1876950787401572
21
-5.4556771653543308
0
LINE
8
BLACK
6
CONTINUOUS
10
7.1876950787401572
20
-5.4556771653543308
11
7.1971120078740158
21
-5.4517765748031497
0
LINE
8
BLACK
6
CONTINUOUS
10
7.1971120078740158
20
-5.4517765748031497
11
7.205939212598425
21
-5.4466801574803148
0
LINE
8
BLACK
6
CONTINUOUS
10
7.205939212598425
20
-5.4466801574803148
11
7.2140256692913383
21
-5.4404751968503939
0
LINE
8
BLACK
6
CONTINUOUS
10
7.2140256692913383
20
-5.4404751968503939
11
7.2212330708661412
21
-5.4332677952755901
0
LINE
8
BLACK
6
CONTINUOUS
10
7.2212330708661412
20
-5.4332677952755901
11
7.2274380314960629
21
-5.4251813385826768
0
LINE
8
BLACK
6
CONTINUOUS
10
7.2274380314960629
20
-5.4251813385826768
11
7.2325344488188978
21
-5.4163541338582677
0
LINE
8
BLACK
6
CONTINUOUS
10
7.2325344488188978
20
-5.4163541338582677
11
7.2364350393700789
21
-5.4069372047244091
0
LINE
8
BLACK
6
CONTINUOUS
10
7.2364350393700789
20
-5.4069372047244091
11
7.2390731102362205
21
-5.3970917322834646
0
LINE
8
BLACK
6
CONTINUOUS
10
7.2390731102362205
20
-5.3970917322834646
11
7.2404035433070861
21
-5.3869861417322831
0
LINE
8
BLACK
6
CONTINUOUS
10
7.2404035433070861
20
-5.3869861417322831
11
7.2404035433070861
21
-5.3767933858267716
0
LINE
8
BLACK
6
CONTINUOUS
10
7.2404035433070861
20
-5.3767933858267716
11
7.2390731102362205
21
-5.36668779527559
0
LINE
8
BLACK
6
CONTINUOUS
10
7.2390731102362205
20
-5.36668779527559
11
7.2364350393700789
21
-5.3568423228346456
0
LINE
8
BLACK
6
CONTINUOUS
10
7.2364350393700789
20
-5.3568423228346456
11
7.2325344488188978
21
-5.347425393700787
0
LINE
8
BLACK
6
CONTINUOUS
10
7.2325344488188978
20
-5.347425393700787
11
7.2274380314960629
21
-5.3385981889763778
0
LINE
8
BLACK
6
CONTINUOUS
10
7.2274380314960629
20
-5.3385981889763778
11
7.2212330708661412
21
-5.3305117322834645
0
LINE
8
BLACK
6
CONTINUOUS
10
7.2212330708661412
20
-5.3305117322834645
11
7.2140256692913383
21
-5.3233043307086616
0
LINE
8
BLACK
6
CONTINUOUS
10
7.2140256692913383
20
-5.3233043307086616
11
7.205939212598425
21
-5.3170993700787399
0
LINE
8
BLACK
6
CONTINUOUS
10
7.205939212598425
20
-5.3170993700787399
11
7.1971120078740158
21
-5.3120029527559049
0
LINE
8
BLACK
6
CONTINUOUS
10
7.1971120078740158
20
-5.3120029527559049
11
7.1876950787401572
21
-5.3081023622047239
0
LINE
8
BLACK
6
CONTINUOUS
10
7.1876950787401572
20
-5.3081023622047239
11
7.1778496062992128
21
-5.3054642913385823
0
LINE
8
BLACK
6
CONTINUOUS
10
7.1778496062992128
20
-5.3054642913385823
11
7.1677440157480312
21
-5.3041338582677167
0
LINE
8
BLACK
6
CONTINUOUS
10
7.1677440157480312
20
-5.3041338582677167
11
7.1575512598425197
21
-5.3041338582677167
0
LINE
8
BLACK
6
CONTINUOUS
10
7.1575512598425197
20
-5.3041338582677167
11
7.1474456692913382
21
-5.3054642913385823
0
LINE
8
BLACK
6
CONTINUOUS
10
7.1474456692913382
20
-5.3054642913385823
11
7.1376001968503937
21
-5.3081023622047239
0
LINE
8
BLACK
6
CONTINUOUS
10
7.1376001968503937
20
-5.3081023622047239
11
7.1281832677165351
21
-5.3120029527559049
0
LINE
8
BLACK
6
CONTINUOUS
10
7.1281832677165351
20
-5.3120029527559049
11
7.119356062992126
21
-5.3170993700787399
0
LINE
8
BLACK
6
CONTINUOUS
10
7.119356062992126
20
-5.3170993700787399
11
7.1112696062992127
21
-5.3233043307086616
0
LINE
8
BLACK
6
CONTINUOUS
10
7.1112696062992127
20
-5.3233043307086616
11
7.1040622047244089
21
-5.3305117322834645
0
LINE
8
BLACK
6
CONTINUOUS
10
7.1040622047244089
20
-5.3305117322834645
11
7.097857244094488
21
-5.3385981889763778
0
LINE
8
BLACK
6
CONTINUOUS
10
7.097857244094488
20
-5.3385981889763778
11
7.0927608267716531
21
-5.347425393700787
0
LINE
8
BLACK
6
CONTINUOUS
10
7.0927608267716531
20
-5.347425393700787
11
7.088860236220472
21
-5.3568423228346456
0
LINE
8
BLACK
6
CONTINUOUS
10
7.088860236220472
20
-5.3568423228346456
11
7.0862221653543305
21
-5.36668779527559
0
LINE
8
BLACK
6
CONTINUOUS
10
7.0862221653543305
20
-5.36668779527559
11
7.0848917322834648
21
-5.3767933858267716
0
LINE
8
BLACK
6
CONTINUOUS
10
7.0848917322834648
20
-5.3767933858267716
11
7.0848917322834648
21
-5.3869861417322831
0
LINE
8
BLACK
6
CONTINUOUS
10
4.4691266535433067
20
-4.8115906692913386
11
4.4696593307086614
21
-4.8121233464566924
0
LINE
8
BLACK
6
CONTINUOUS
10
4.4696593307086614
20
-4.8121233464566924
11
4.4697342519685037
21
-4.8125
0
LINE
8
BLACK
6
CONTINUOUS
10
4.4697342519685037
20
-4.8125
11
4.4697342519685037
21
-5.375
0
LINE
8
BLACK
6
CONTINUOUS
10
4.4697342519685037
20
-5.375
11
4.4696593307086614
21
-5.3753766535433067
0
LINE
8
BLACK
6
CONTINUOUS
10
4.4696593307086614
20
-5.3753766535433067
11
4.4691266535433067
21
-5.3759093307086614
0
LINE
8
BLACK
6
CONTINUOUS
10
4.4691266535433067
20
-5.3759093307086614
11
4.46875
21
-5.3759842519685037
0
LINE
8
BLACK
6
CONTINUOUS
10
4.46875
20
-5.3759842519685037
11
3.90625
21
-5.3759842519685037
0
LINE
8
BLACK
6
CONTINUOUS
10
3.90625
20
-5.3759842519685037
11
3.9058733464566928
21
-5.3759093307086614
0
LINE
8
BLACK
6
CONTINUOUS
10
3.9058733464566928
20
-5.3759093307086614
11
3.9053406692913386
21
-5.3753766535433067
0
LINE
8
BLACK
6
CONTINUOUS
10
3.9053406692913386
20
-5.3753766535433067
11
3.9052657480314958
21
-5.375
0
LINE
8
BLACK
6
CONTINUOUS
10
3.9052657480314958
20
-5.375
11
3.9052657480314958
21
-4.8125
0
LINE
8
BLACK
6
CONTINUOUS
10
3.9052657480314958
20
-4.8125
11
3.9053406692913386
21
-4.8121233464566924
0
LINE
8
BLACK
6
CONTINUOUS
10
3.9053406692913386
20
-4.8121233464566924
11
3.9058733464566928
21
-4.8115906692913386
0
LINE
8
BLACK
6
CONTINUOUS
10
3.9058733464566928
20
-4.8115906692913386
11
3.90625
21
-4.8115157480314963
0
LINE
8
BLACK
6
CONTINUOUS
10
3.90625
20
-4.8115157480314963
11
4.46875
21
-4.8115157480314963
0
LINE
8
BLACK
6
CONTINUOUS
10
4.46875
20
-4.8115157480314963
11
4.4691266535433067
21
-4.8115906692913386
0
LINE
8
BLACK
6
CONTINUOUS
10
3.9072342519685037
20
-4.8134842519685037
11
3.9072342519685037
21
-5.3740157480314963
0
LINE
8
BLACK
6
CONTINUOUS
10
3.9072342519685037
20
-5.3740157480314963
11
4.4677657480314963
21
-5.3740157480314963
0
LINE
8
BLACK
6
CONTINUOUS
10
4.4677657480314963
20
-5.3740157480314963
11
4.4677657480314963
21
-4.8134842519685037
0
LINE
8
BLACK
6
CONTINUOUS
10
4.4677657480314963
20
-4.8134842519685037
11
3.9072342519685037
21
-4.8134842519685037
0
LINE
8
BLACK
6
CONTINUOUS
10
5.2191266535433067
20
-4.8115906692913386
11
5.2196593307086614
21
-4.8121233464566924
0
LINE
8
BLACK
6
CONTINUOUS
10
5.2196593307086614
20
-4.8121233464566924
11
5.2197342519685037
21
-4.8125
0
LINE
8
BLACK
6
CONTINUOUS
10
5.2197342519685037
20
-4.8125
11
5.2197342519685037
21
-5.375
0
LINE
8
BLACK
6
CONTINUOUS
10
5.2197342519685037
20
-5.375
11
5.2196593307086614
21
-5.3753766535433067
0
LINE
8
BLACK
6
CONTINUOUS
10
5.2196593307086614
20
-5.3753766535433067
11
5.2191266535433067
21
-5.3759093307086614
0
LINE
8
BLACK
6
CONTINUOUS
10
5.2191266535433067
20
-5.3759093307086614
11
5.21875
21
-5.3759842519685037
0
LINE
8
BLACK
6
CONTINUOUS
10
5.21875
20
-5.3759842519685037
11
4.65625
21
-5.3759842519685037
0
LINE
8
BLACK
6
CONTINUOUS
10
4.65625
20
-5.3759842519685037
11
4.6558733464566924
21
-5.3759093307086614
0
LINE
8
BLACK
6
CONTINUOUS
10
4.6558733464566924
20
-5.3759093307086614
11
4.6553406692913386
21
-5.3753766535433067
0
LINE
8
BLACK
6
CONTINUOUS
10
4.6553406692913386
20
-5.3753766535433067
11
4.6552657480314963
21
-5.375
0
LINE
8
BLACK
6
CONTINUOUS
10
4.6552657480314963
20
-5.375
11
4.6552657480314963
21
-4.8125
0
LINE
8
BLACK
6
CONTINUOUS
10
4.6552657480314963
20
-4.8125
11
4.6553406692913386
21
-4.8121233464566924
0
LINE
8
BLACK
6
CONTINUOUS
10
4.6553406692913386
20
-4.8121233464566924
11
4.6558733464566924
21
-4.8115906692913386
0
LINE
8
BLACK
6
CONTINUOUS
10
4.6558733464566924
20
-4.8115906692913386
11
4.65625
21
-4.8115157480314963
0
LINE
8
BLACK
6
CONTINUOUS
10
4.65625
20
-4.8115157480314963
11
5.21875
21
-4.8115157480314963
0
LINE
8
BLACK
6
CONTINUOUS
10
5.21875
20
-4.8115157480314963
11
5.2191266535433067
21
-4.8115906692913386
0
LINE
8
BLACK
6
CONTINUOUS
10
4.6572342519685037
20
-4.8134842519685037
11
4.6572342519685037
21
-5.3740157480314963
0
LINE
8
BLACK
6
CONTINUOUS
10
4.6572342519685037
20
-5.3740157480314963
11
5.2177657480314963
21
-5.3740157480314963
0
LINE
8
BLACK
6
CONTINUOUS
10
5.2177657480314963
20
-5.3740157480314963
11
5.2177657480314963
21
-4.8134842519685037
0
LINE
8
BLACK
6
CONTINUOUS
10
5.2177657480314963
20
-4.8134842519685037
11
4.6572342519685037
21
-4.8134842519685037
0
LINE
8
BLACK
6
CONTINUOUS
10
5.9691266535433067
20
-4.8115906692913386
11
5.9696593307086614
21
-4.8121233464566924
0
LINE
8
BLACK
6
CONTINUOUS
10
5.9696593307086614
20
-4.8121233464566924
11
5.9697342519685037
21
-4.8125
0
LINE
8
BLACK
6
CONTINUOUS
10
5.9697342519685037
20
-4.8125
11
5.9697342519685037
21
-5.375
0
LINE
8
BLACK
6
CONTINUOUS
10
5.9697342519685037
20
-5.375
11
5.9696593307086614
21
-5.3753766535433067
0
LINE
8
BLACK
6
CONTINUOUS
10
5.9696593307086614
20
-5.3753766535433067
11
5.9691266535433067
21
-5.3759093307086614
0
LINE
8
BLACK
6
CONTINUOUS
10
5.9691266535433067
20
-5.3759093307086614
11
5.96875
21
-5.3759842519685037
0
LINE
8
BLACK
6
CONTINUOUS
10
5.96875
20
-5.3759842519685037
11
5.40625
21
-5.3759842519685037
0
LINE
8
BLACK
6
CONTINUOUS
10
5.40625
20
-5.3759842519685037
11
5.4058733464566924
21
-5.3759093307086614
0
LINE
8
BLACK
6
CONTINUOUS
10
5.4058733464566924
20
-5.3759093307086614
11
5.4053406692913386
21
-5.3753766535433067
0
LINE
8
BLACK
6
CONTINUOUS
10
5.4053406692913386
20
-5.3753766535433067
11
5.4052657480314963
21
-5.375
0
LINE
8
BLACK
6
CONTINUOUS
10
5.4052657480314963
20
-5.375
11
5.4052657480314963
21
-4.8125
0
LINE
8
BLACK
6
CONTINUOUS
10
5.4052657480314963
20
-4.8125
11
5.4053406692913386
21
-4.8121233464566924
0
LINE
8
BLACK
6
CONTINUOUS
10
5.4053406692913386
20
-4.8121233464566924
11
5.4058733464566924
21
-4.8115906692913386
0
LINE
8
BLACK
6
CONTINUOUS
10
5.4058733464566924
20
-4.8115906692913386
11
5.40625
21
-4.8115157480314963
0
LINE
8
BLACK
6
CONTINUOUS
10
5.40625
20
-4.8115157480314963
11
5.96875
21
-4.8115157480314963
0
LINE
8
BLACK
6
CONTINUOUS
10
5.96875
20
-4.8115157480314963
11
5.9691266535433067
21
-4.8115906692913386
0
LINE
8
BLACK
6
CONTINUOUS
10
5.4072342519685037
20
-4.8134842519685037
11
5.4072342519685037
21
-5.3740157480314963
0
LINE
8
BLACK
6
CONTINUOUS
10
5.4072342519685037
20
-5.3740157480314963
11
5.9677657480314963
21
-5.3740157480314963
0
LINE
8
BLACK
6
CONTINUOUS
10
5.9677657480314963
20
-5.3740157480314963
11
5.9677657480314963
21
-4.8134842519685037
0
LINE
8
BLACK
6
CONTINUOUS
10
5.9677657480314963
20
-4.8134842519685037
11
5.4072342519685037
21
-4.8134842519685037
0
LINE
8
BLACK
6
CONTINUOUS
10
6.7191266535433067
20
-4.8115906692913386
11
6.7196593307086614
21
-4.8121233464566924
0
LINE
8
BLACK
6
CONTINUOUS
10
6.7196593307086614
20
-4.8121233464566924
11
6.7197342519685037
21
-4.8125
0
LINE
8
BLACK
6
CONTINUOUS
10
6.7197342519685037
20
-4.8125
11
6.7197342519685037
21
-5.375
0
LINE
8
BLACK
6
CONTINUOUS
10
6.7197342519685037
20
-5.375
11
6.7196593307086614
21
-5.3753766535433067
0
LINE
8
BLACK
6
CONTINUOUS
10
6.7196593307086614
20
-5.3753766535433067
11
6.7191266535433067
21
-5.3759093307086614
0
LINE
8
BLACK
6
CONTINUOUS
10
6.7191266535433067
20
-5.3759093307086614
11
6.71875
21
-5.3759842519685037
0
LINE
8
BLACK
6
CONTINUOUS
10
6.71875
20
-5.3759842519685037
11
6.15625
21
-5.3759842519685037
0
LINE
8
BLACK
6
CONTINUOUS
10
6.15625
20
-5.3759842519685037
11
6.1558733464566924
21
-5.3759093307086614
0
LINE
8
BLACK
6
CONTINUOUS
10
6.1558733464566924
20
-5.3759093307086614
11
6.1553406692913386
21
-5.3753766535433067
0
LINE
8
BLACK
6
CONTINUOUS
10
6.1553406692913386
20
-5.3753766535433067
11
6.1552657480314963
21
-5.375
0
LINE
8
BLACK
6
CONTINUOUS
10
6.1552657480314963
20
-5.375
11
6.1552657480314963
21
-4.8125
0
LINE
8
BLACK
6
CONTINUOUS
10
6.1552657480314963
20
-4.8125
11
6.1553406692913386
21
-4.8121233464566924
0
LINE
8
BLACK
6
CONTINUOUS
10
6.1553406692913386
20
-4.8121233464566924
11
6.1558733464566924
21
-4.8115906692913386
0
LINE
8
BLACK
6
CONTINUOUS
10
6.1558733464566924
20
-4.8115906692913386
11
6.15625
21
-4.8115157480314963
0
LINE
8
BLACK
6
CONTINUOUS
10
6.15625
20
-4.8115157480314963
11
6.71875
21
-4.8115157480314963
0
LINE
8
BLACK
6
CONTINUOUS
10
6.71875
20
-4.8115157480314963
11
6.7191266535433067
21
-4.8115906692913386
0
LINE
8
BLACK
6
CONTINUOUS
10
6.1572342519685037
20
-4.8134842519685037
11
6.1572342519685037
21
-5.3740157480314963
0
LINE
8
BLACK
6
CONTINUOUS
10
6.1572342519685037
20
-5.3740157480314963
11
6.7177657480314963
21
-5.3740157480314963
0
LINE
8
BLACK
6
CONTINUOUS
10
6.7177657480314963
20
-5.3740157480314963
11
6.7177657480314963
21
-4.8134842519685037
0
LINE
8
BLACK
6
CONTINUOUS
10
6.7177657480314963
20
-4.8134842519685037
11
6.1572342519685037
21
-4.8134842519685037
0
LINE
8
BLACK
6
CONTINUOUS
10
4.4691266535433067
20
-4.0615906692913386
11
4.4696593307086614
21
-4.0621233464566933
0
LINE
8
BLACK
6
CONTINUOUS
10
4.4696593307086614
20
-4.0621233464566933
11
4.4697342519685037
21
-4.0625
0
LINE
8
BLACK
6
CONTINUOUS
10
4.4697342519685037
20
-4.0625
11
4.4697342519685037
21
-4.625
0
LINE
8
BLACK
6
CONTINUOUS
10
4.4697342519685037
20
-4.625
11
4.4696593307086614
21
-4.6253766535433067
0
LINE
8
BLACK
6
CONTINUOUS
10
4.4696593307086614
20
-4.6253766535433067
11
4.4691266535433067
21
-4.6259093307086614
0
LINE
8
BLACK
6
CONTINUOUS
10
4.4691266535433067
20
-4.6259093307086614
11
4.46875
21
-4.6259842519685037
0
LINE
8
BLACK
6
CONTINUOUS
10
4.46875
20
-4.6259842519685037
11
3.90625
21
-4.6259842519685037
0
LINE
8
BLACK
6
CONTINUOUS
10
3.90625
20
-4.6259842519685037
11
3.9058733464566928
21
-4.6259093307086614
0
LINE
8
BLACK
6
CONTINUOUS
10
3.9058733464566928
20
-4.6259093307086614
11
3.9053406692913386
21
-4.6253766535433067
0
LINE
8
BLACK
6
CONTINUOUS
10
3.9053406692913386
20
-4.6253766535433067
11
3.9052657480314958
21
-4.625
0
LINE
8
BLACK
6
CONTINUOUS
10
3.9052657480314958
20
-4.625
11
3.9052657480314958
21
-4.0625
0
LINE
8
BLACK
6
CONTINUOUS
10
3.9052657480314958
20
-4.0625
11
3.9053406692913386
21
-4.0621233464566933
0
LINE
8
BLACK
6
CONTINUOUS
10
3.9053406692913386
20
-4.0621233464566933
11
3.9058733464566928
21
-4.0615906692913386
0
LINE
8
BLACK
6
CONTINUOUS
10
3.9058733464566928
20
-4.0615906692913386
11
3.90625
21
-4.0615157480314963
0
LINE
8
BLACK
6
CONTINUOUS
10
3.90625
20
-4.0615157480314963
11
4.46875
21
-4.0615157480314963
0
LINE
8
BLACK
6
CONTINUOUS
10
4.46875
20
-4.0615157480314963
11
4.4691266535433067
21
-4.0615906692913386
0
LINE
8
BLACK
6
CONTINUOUS
10
3.9072342519685037
20
-4.0634842519685037
11
3.9072342519685037
21
-4.6240157480314963
0
LINE
8
BLACK
6
CONTINUOUS
10
3.9072342519685037
20
-4.6240157480314963
11
4.4677657480314963
21
-4.6240157480314963
0
LINE
8
BLACK
6
CONTINUOUS
10
4.4677657480314963
20
-4.6240157480314963
11
4.4677657480314963
21
-4.0634842519685037
0
LINE
8
BLACK
6
CONTINUOUS
10
4.4677657480314963
20
-4.0634842519685037
11
3.9072342519685037
21
-4.0634842519685037
0
LINE
8
BLACK
6
CONTINUOUS
10
5.2191266535433067
20
-4.0615906692913386
11
5.2196593307086614
21
-4.0621233464566933
0
LINE
8
BLACK
6
CONTINUOUS
10
5.2196593307086614
20
-4.0621233464566933
11
5.2197342519685037
21
-4.0625
0
LINE
8
BLACK
6
CONTINUOUS
10
5.2197342519685037
20
-4.0625
11
5.2197342519685037
21
-4.625
0
LINE
8
BLACK
6
CONTINUOUS
10
5.2197342519685037
20
-4.625
11
5.2196593307086614
21
-4.6253766535433067
0
LINE
8
BLACK
6
CONTINUOUS
10
5.2196593307086614
20
-4.6253766535433067
11
5.2191266535433067
21
-4.6259093307086614
0
LINE
8
BLACK
6
CONTINUOUS
10
5.2191266535433067
20
-4.6259093307086614
11
5.21875
21
-4.6259842519685037
0
LINE
8
BLACK
6
CONTINUOUS
10
5.21875
20
-4.6259842519685037
11
4.65625
21
-4.6259842519685037
0
LINE
8
BLACK
6
CONTINUOUS
10
4.65625
20
-4.6259842519685037
11
4.6558733464566924
21
-4.6259093307086614
0
LINE
8
BLACK
6
CONTINUOUS
10
4.6558733464566924
20
-4.6259093307086614
11
4.6553406692913386
21
-4.6253766535433067
0
LINE
8
BLACK
6
CONTINUOUS
10
4.6553406692913386
20
-4.6253766535433067
11
4.6552657480314963
21
-4.625
0
LINE
8
BLACK
6
CONTINUOUS
10
4.6552657480314963
20
-4.625
11
4.6552657480314963
21
-4.0625
0
LINE
8
BLACK
6
CONTINUOUS
10
4.6552657480314963
20
-4.0625
11
4.6553406692913386
21
-4.0621233464566933
0
LINE
8
BLACK
6
CONTINUOUS
10
4.6553406692913386
20
-4.0621233464566933
11
4.6558733464566924
21
-4.0615906692913386
0
LINE
8
BLACK
6
CONTINUOUS
10
4.6558733464566924
20
-4.0615906692913386
11
4.65625
21
-4.0615157480314963
0
LINE
8
BLACK
6
CONTINUOUS
10
4.65625
20
-4.0615157480314963
11
5.21875
21
-4.0615157480314963
0
LINE
8
BLACK
6
CONTINUOUS
10
5.21875
20
-4.0615157480314963
11
5.2191266535433067
21
-4.0615906692913386
0
LINE
8
BLACK
6
CONTINUOUS
10
4.6572342519685037
20
-4.0634842519685037
11
4.6572342519685037
21
-4.6240157480314963
0
LINE
8
BLACK
6
CONTINUOUS
10
4.6572342519685037
20
-4.6240157480314963
11
5.2177657480314963
21
-4.6240157480314963
0
LINE
8
BLACK
6
CONTINUOUS
10
5.2177657480314963
20
-4.6240157480314963
11
5.2177657480314963
21
-4.0634842519685037
0
LINE
8
BLACK
6
CONTINUOUS
10
5.2177657480314963
20
-4.0634842519685037
11
4.6572342519685037
21
-4.0634842519685037
0
LINE
8
BLACK
6
CONTINUOUS
10
5.9691266535433067
20
-4.0615906692913386
11
5.9696593307086614
21
-4.0621233464566933
0
LINE
8
BLACK
6
CONTINUOUS
10
5.9696593307086614
20
-4.0621233464566933
11
5.9697342519685037
21
-4.0625
0
LINE
8
BLACK
6
CONTINUOUS
10
5.9697342519685037
20
-4.0625
11
5.9697342519685037
21
-4.625
0
LINE
8
BLACK
6
CONTINUOUS
10
5.9697342519685037
20
-4.625
11
5.9696593307086614
21
-4.6253766535433067
0
LINE
8
BLACK
6
CONTINUOUS
10
5.9696593307086614
20
-4.6253766535433067
11
5.9691266535433067
21
-4.6259093307086614
0
LINE
8
BLACK
6
CONTINUOUS
10
5.9691266535433067
20
-4.6259093307086614
11
5.96875
21
-4.6259842519685037
0
LINE
8
BLACK
6
CONTINUOUS
10
5.96875
20
-4.6259842519685037
11
5.40625
21
-4.6259842519685037
0
LINE
8
BLACK
6
CONTINUOUS
10
5.40625
20
-4.6259842519685037
11
5.4058733464566924
21
-4.6259093307086614
0
LINE
8
BLACK
6
CONTINUOUS
10
5.4058733464566924
20
-4.6259093307086614
11
5.4053406692913386
21
-4.6253766535433067
0
LINE
8
BLACK
6
CONTINUOUS
10
5.4053406692913386
20
-4.6253766535433067
11
5.4052657480314963
21
-4.625
0
LINE
8
BLACK
6
CONTINUOUS
10
5.4052657480314963
20
-4.625
11
5.4052657480314963
21
-4.0625
0
LINE
8
BLACK
6
CONTINUOUS
10
5.4052657480314963
20
-4.0625
11
5.4053406692913386
21
-4.0621233464566933
0
LINE
8
BLACK
6
CONTINUOUS
10
5.4053406692913386
20
-4.0621233464566933
11
5.4058733464566924
21
-4.0615906692913386
0
LINE
8
BLACK
6
CONTINUOUS
10
5.4058733464566924
20
-4.0615906692913386
11
5.40625
21
-4.0615157480314963
0
LINE
8
BLACK
6
CONTINUOUS
10
5.40625
20
-4.0615157480314963
11
5.96875
21
-4.0615157480314963
0
LINE
8
BLACK
6
CONTINUOUS
10
5.96875
20
-4.0615157480314963
11
5.9691266535433067
21
-4.0615906692913386
0
LINE
8
BLACK
6
CONTINUOUS
10
5.4072342519685037
20
-4.0634842519685037
11
5.4072342519685037
21
-4.6240157480314963
0
LINE
8
BLACK
6
CONTINUOUS
10
5.4072342519685037
20
-4.6240157480314963
11
5.9677657480314963
21
-4.6240157480314963
0
LINE
8
BLACK
6
CONTINUOUS
10
5.9677657480314963
20
-4.6240157480314963
11
5.9677657480314963
21
-4.0634842519685037
0
LINE
8
BLACK
6
CONTINUOUS
10
5.9677657480314963
20
-4.0634842519685037
11
5.4072342519685037
21
-4.0634842519685037
0
LINE
8
BLACK
6
CONTINUOUS
10
6.7191266535433067
20
-4.0615906692913386
11
6.7196593307086614
21
-4.0621233464566933
0
LINE
8
BLACK
6
CONTINUOUS
10
6.7196593307086614
20
-4.0621233464566933
11
6.7197342519685037
21
-4.0625
0
LINE
8
BLACK
6
CONTINUOUS
10
6.7197342519685037
20
-4.0625
11
6.7197342519685037
21
-4.625
0
LINE
8
BLACK
6
CONTINUOUS
10
6.7197342519685037
20
-4.625
11
6.7196593307086614
21
-4.6253766535433067
0
LINE
8
BLACK
6
CONTINUOUS
10
6.7196593307086614
20
-4.6253766535433067
11
6.7191266535433067
21
-4.6259093307086614
0
LINE
8
BLACK
6
CONTINUOUS
10
6.7191266535433067
20
-4.6259093307086614
11
6.71875
21
-4.6259842519685037
0
LINE
8
BLACK
6
CONTINUOUS
10
6.71875
20
-4.6259842519685037
11
6.15625
21
-4.6259842519685037
0
LINE
8
BLACK
6
CONTINUOUS
10
6.15625
20
-4.6259842519685037
11
6.1558733464566924
21
-4.6259093307086614
0
LINE
8
BLACK
6
CONTINUOUS
10
6.1558733464566924
20
-4.6259093307086614
11
6.1553406692913386
21
-4.6253766535433067
0
LINE
8
BLACK
6
CONTINUOUS
10
6.1553406692913386
20
-4.6253766535433067
11
6.1552657480314963
21
-4.625
0
LINE
8
BLACK
6
CONTINUOUS
10
6.1552657480314963
20
-4.625
11
6.1552657480314963
21
-4.0625
0
LINE
8
BLACK
6
CONTINUOUS
10
6.1552657480314963
20
-4.0625
11
6.1553406692913386
21
-4.0621233464566933
0
LINE
8
BLACK
6
CONTINUOUS
10
6.1553406692913386
20
-4.0621233464566933
11
6.1558733464566924
21
-4.0615906692913386
0
LINE
8
BLACK
6
CONTINUOUS
10
6.1558733464566924
20
-4.0615906692913386
11
6.15625
21
-4.0615157480314963
0
LINE
8
BLACK
6
CONTINUOUS
10
6.15625
20
-4.0615157480314963
11
6.71875
21
-4.0615157480314963
0
LINE
8
BLACK
6
CONTINUOUS
10
6.71875
20
-4.0615157480314963
11
6.7191266535433067
21
-4.0615906692913386
0
LINE
8
BLACK
6
CONTINUOUS
10
6.1572342519685037
20
-4.0634842519685037
11
6.1572342519685037
21
-4.6240157480314963
0
LINE
8
BLACK
6
CONTINUOUS
10
6.1572342519685037
20
-4.6240157480314963
11
6.7177657480314963
21
-4.6240157480314963
0
LINE
8
BLACK
6
CONTINUOUS
10
6.7177657480314963
20
-4.6240157480314963
11
6.7177657480314963
21
-4.0634842519685037
0
LINE
8
BLACK
6
CONTINUOUS
10
6.7177657480314963
20
-4.0634842519685037
11
6.1572342519685037
21
-4.0634842519685037
0
LINE
8
BLACK
6
CONTINUOUS
10
4.4691266535433067
20
-3.3115906692913386
11
4.4696593307086614
21
-3.3121233464566928
0
LINE
8
BLACK
6
CONTINUOUS
10
4.4696593307086614
20
-3.3121233464566928
11
4.4697342519685037
21
-3.3125
0
LINE
8
BLACK
6
CONTINUOUS
10
4.4697342519685037
20
-3.3125
11
4.4697342519685037
21
-3.875
0
LINE
8
BLACK
6
CONTINUOUS
10
4.4697342519685037
20
-3.875
11
4.4696593307086614
21
-3.8753766535433072
0
LINE
8
BLACK
6
CONTINUOUS
10
4.4696593307086614
20
-3.8753766535433072
11
4.4691266535433067
21
-3.8759093307086614
0
LINE
8
BLACK
6
CONTINUOUS
10
4.4691266535433067
20
-3.8759093307086614
11
4.46875
21
-3.8759842519685037
0
LINE
8
BLACK
6
CONTINUOUS
10
4.46875
20
-3.8759842519685037
11
3.90625
21
-3.8759842519685037
0
LINE
8
BLACK
6
CONTINUOUS
10
3.90625
20
-3.8759842519685037
11
3.9058733464566928
21
-3.8759093307086614
0
LINE
8
BLACK
6
CONTINUOUS
10
3.9058733464566928
20
-3.8759093307086614
11
3.9053406692913386
21
-3.8753766535433072
0
LINE
8
BLACK
6
CONTINUOUS
10
3.9053406692913386
20
-3.8753766535433072
11
3.9052657480314958
21
-3.875
0
LINE
8
BLACK
6
CONTINUOUS
10
3.9052657480314958
20
-3.875
11
3.9052657480314958
21
-3.3125
0
LINE
8
BLACK
6
CONTINUOUS
10
3.9052657480314958
20
-3.3125
11
3.9053406692913386
21
-3.3121233464566928
0
LINE
8
BLACK
6
CONTINUOUS
10
3.9053406692913386
20
-3.3121233464566928
11
3.9058733464566928
21
-3.3115906692913386
0
LINE
8
BLACK
6
CONTINUOUS
10
3.9058733464566928
20
-3.3115906692913386
11
3.90625
21
-3.3115157480314958
0
LINE
8
BLACK
6
CONTINUOUS
10
3.90625
20
-3.3115157480314958
11
4.46875
21
-3.3115157480314958
0
LINE
8
BLACK
6
CONTINUOUS
10
4.46875
20
-3.3115157480314958
11
4.4691266535433067
21
-3.3115906692913386
0
LINE
8
BLACK
6
CONTINUOUS
10
3.9072342519685037
20
-3.3134842519685037
11
3.9072342519685037
21
-3.8740157480314958
0
LINE
8
BLACK
6
CONTINUOUS
10
3.9072342519685037
20
-3.8740157480314958
11
4.4677657480314963
21
-3.8740157480314958
0
LINE
8
BLACK
6
CONTINUOUS
10
4.4677657480314963
20
-3.8740157480314958
11
4.4677657480314963
21
-3.3134842519685037
0
LINE
8
BLACK
6
CONTINUOUS
10
4.4677657480314963
20
-3.3134842519685037
11
3.9072342519685037
21
-3.3134842519685037
0
LINE
8
BLACK
6
CONTINUOUS
10
5.2191266535433067
20
-3.3115906692913386
11
5.2196593307086614
21
-3.3121233464566928
0
LINE
8
BLACK
6
CONTINUOUS
10
5.2196593307086614
20
-3.3121233464566928
11
5.2197342519685037
21
-3.3125
0
LINE
8
BLACK
6
CONTINUOUS
10
5.2197342519685037
20
-3.3125
11
5.2197342519685037
21
-3.875
0
LINE
8
BLACK
6
CONTINUOUS
10
5.2197342519685037
20
-3.875
11
5.2196593307086614
21
-3.8753766535433072
0
LINE
8
BLACK
6
CONTINUOUS
10
5.2196593307086614
20
-3.8753766535433072
11
5.2191266535433067
21
-3.8759093307086614
0
LINE
8
BLACK
6
CONTINUOUS
10
5.2191266535433067
20
-3.8759093307086614
11
5.21875
21
-3.8759842519685037
0
LINE
8
BLACK
6
CONTINUOUS
10
5.21875
20
-3.8759842519685037
11
4.65625
21
-3.8759842519685037
0
LINE
8
BLACK
6
CONTINUOUS
10
4.65625
20
-3.8759842519685037
11
4.6558733464566924
21
-3.8759093307086614
0
LINE
8
BLACK
6
CONTINUOUS
10
4.6558733464566924
20
-3.8759093307086614
11
4.6553406692913386
21
-3.8753766535433072
0
LINE
8
BLACK
6
CONTINUOUS
10
4.6553406692913386
20
-3.8753766535433072
11
4.6552657480314963
21
-3.875
0
LINE
8
BLACK
6
CONTINUOUS
10
4.6552657480314963
20
-3.875
11
4.6552657480314963
21
-3.3125
0
LINE
8
BLACK
6
CONTINUOUS
10
4.6552657480314963
20
-3.3125
11
4.6553406692913386
21
-3.3121233464566928
0
LINE
8
BLACK
6
CONTINUOUS
10
4.6553406692913386
20
-3.3121233464566928
11
4.6558733464566924
21
-3.3115906692913386
0
LINE
8
BLACK
6
CONTINUOUS
10
4.6558733464566924
20
-3.3115906692913386
11
4.65625
21
-3.3115157480314958
0
LINE
8
BLACK
6
CONTINUOUS
10
4.65625
20
-3.3115157480314958
11
5.21875
21
-3.3115157480314958
0
LINE
8
BLACK
6
CONTINUOUS
10
5.21875
20
-3.3115157480314958
11
5.2191266535433067
21
-3.3115906692913386
0
LINE
8
BLACK
6
CONTINUOUS
10
4.6572342519685037
20
-3.3134842519685037
11
4.6572342519685037
21
-3.8740157480314958
0
LINE
8
BLACK
6
CONTINUOUS
10
4.6572342519685037
20
-3.8740157480314958
11
5.2177657480314963
21
-3.8740157480314958
0
LINE
8
BLACK
6
CONTINUOUS
10
5.2177657480314963
20
-3.8740157480314958
11
5.2177657480314963
21
-3.3134842519685037
0
LINE
8
BLACK
6
CONTINUOUS
10
5.2177657480314963
20
-3.3134842519685037
11
4.6572342519685037
21
-3.3134842519685037
0
LINE
8
BLACK
6
CONTINUOUS
10
5.9691266535433067
20
-3.3115906692913386
11
5.9696593307086614
21
-3.3121233464566928
0
LINE
8
BLACK
6
CONTINUOUS
10
5.9696593307086614
20
-3.3121233464566928
11
5.9697342519685037
21
-3.3125
0
LINE
8
BLACK
6
CONTINUOUS
10
5.9697342519685037
20
-3.3125
11
5.9697342519685037
21
-3.875
0
LINE
8
BLACK
6
CONTINUOUS
10
5.9697342519685037
20
-3.875
11
5.9696593307086614
21
-3.8753766535433072
0
LINE
8
BLACK
6
CONTINUOUS
10
5.9696593307086614
20
-3.8753766535433072
11
5.9691266535433067
21
-3.8759093307086614
0
LINE
8
BLACK
6
CONTINUOUS
10
5.9691266535433067
20
-3.8759093307086614
11
5.96875
21
-3.8759842519685037
0
LINE
8
BLACK
6
CONTINUOUS
10
5.96875
20
-3.8759842519685037
11
5.40625
21
-3.8759842519685037
0
LINE
8
BLACK
6
CONTINUOUS
10
5.40625
20
-3.8759842519685037
11
5.4058733464566924
21
-3.8759093307086614
0
LINE
8
BLACK
6
CONTINUOUS
10
5.4058733464566924
20
-3.8759093307086614
11
5.4053406692913386
21
-3.8753766535433072
0
LINE
8
BLACK
6
CONTINUOUS
10
5.4053406692913386
20
-3.8753766535433072
11
5.4052657480314963
21
-3.875
0
LINE
8
BLACK
6
CONTINUOUS
10
5.4052657480314963
20
-3.875
11
5.4052657480314963
21
-3.3125
0
LINE
8
BLACK
6
CONTINUOUS
10
5.4052657480314963
20
-3.3125
11
5.4053406692913386
21
-3.3121233464566928
0
LINE
8
BLACK
6
CONTINUOUS
10
5.4053406692913386
20
-3.3121233464566928
11
5.4058733464566924
21
-3.3115906692913386
0
LINE
8
BLACK
6
CONTINUOUS
10
5.4058733464566924
20
-3.3115906692913386
11
5.40625
21
-3.3115157480314958
0
LINE
8
BLACK
6
CONTINUOUS
10
5.40625
20
-3.3115157480314958
11
5.96875
21
-3.3115157480314958
0
LINE
8
BLACK
6
CONTINUOUS
10
5.96875
20
-3.3115157480314958
11
5.9691266535433067
21
-3.3115906692913386
0
LINE
8
BLACK
6
CONTINUOUS
10
5.4072342519685037
20
-3.3134842519685037
11
5.4072342519685037
21
-3.8740157480314958
0
LINE
8
BLACK
6
CONTINUOUS
10
5.4072342519685037
20
-3.8740157480314958
11
5.9677657480314963
21
-3.8740157480314958
0
LINE
8
BLACK
6
CONTINUOUS
10
5.9677657480314963
20
-3.8740157480314958
11
5.9677657480314963
21
-3.3134842519685037
0
LINE
8
BLACK
6
CONTINUOUS
10
5.9677657480314963
20
-3.3134842519685037
11
5.4072342519685037
21
-3.3134842519685037
0
LINE
8
BLACK
6
CONTINUOUS
10
6.7191266535433067
20
-3.3115906692913386
11
6.7196593307086614
21
-3.3121233464566928
0
LINE
8
BLACK
6
CONTINUOUS
10
6.7196593307086614
20
-3.3121233464566928
11
6.7197342519685037
21
-3.3125
0
LINE
8
BLACK
6
CONTINUOUS
10
6.7197342519685037
20
-3.3125
11
6.7197342519685037
21
-3.875
0
LINE
8
BLACK
6
CONTINUOUS
10
6.7197342519685037
20
-3.875
11
6.7196593307086614
21
-3.8753766535433072
0
LINE
8
BLACK
6
CONTINUOUS
10
6.7196593307086614
20
-3.8753766535433072
11
6.7191266535433067
21
-3.8759093307086614
0
LINE
8
BLACK
6
CONTINUOUS
10
6.7191266535433067
20
-3.8759093307086614
11
6.71875
21
-3.8759842519685037
0
LINE
8
BLACK
6
CONTINUOUS
10
6.71875
20
-3.8759842519685037
11
6.15625
21
-3.8759842519685037
0
LINE
8
BLACK
6
CONTINUOUS
10
6.15625
20
-3.8759842519685037
11
6.1558733464566924
21
-3.8759093307086614
0
LINE
8
BLACK
6
CONTINUOUS
10
6.1558733464566924
20
-3.8759093307086614
11
6.1553406692913386
21
-3.8753766535433072
0
LINE
8
BLACK
6
CONTINUOUS
10
6.1553406692913386
20
-3.8753766535433072
11
6.1552657480314963
21
-3.875
0
LINE
8
BLACK
6
CONTINUOUS
10
6.1552657480314963
20
-3.875
11
6.1552657480314963
21
-3.3125
0
LINE
8
BLACK
6
CONTINUOUS
10
6.1552657480314963
20
-3.3125
11
6.1553406692913386
21
-3.3121233464566928
0
LINE
8
BLACK
6
CONTINUOUS
10
6.1553406692913386
20
-3.3121233464566928
11
6.1558733464566924
21
-3.3115906692913386
0
LINE
8
BLACK
6
CONTINUOUS
10
6.1558733464566924
20
-3.3115906692913386
11
6.15625
21
-3.3115157480314958
0
LINE
8
BLACK
6
CONTINUOUS
10
6.15625
20
-3.3115157480314958
11
6.71875
21
-3.3115157480314958
0
LINE
8
BLACK
6
CONTINUOUS
10
6.71875
20
-3.3115157480314958
11
6.7191266535433067
21
-3.3115906692913386
0
LINE
8
BLACK
6
CONTINUOUS
10
6.1572342519685037
20
-3.3134842519685037
11
6.1572342519685037
21
-3.8740157480314958
0
LINE
8
BLACK
6
CONTINUOUS
10
6.1572342519685037
20
-3.8740157480314958
11
6.7177657480314963
21
-3.8740157480314958
0
LINE
8
BLACK
6
CONTINUOUS
10
6.7177657480314963
20
-3.8740157480314958
11
6.7177657480314963
21
-3.3134842519685037
0
LINE
8
BLACK
6
CONTINUOUS
10
6.7177657480314963
20
-3.3134842519685037
11
6.1572342519685037
21
-3.3134842519685037
0
LINE
8
BLACK
6
CONTINUOUS
10
4.4691266535433067
20
-2.5615906692913386
11
4.4696593307086614
21
-2.5621233464566928
0
LINE
8
BLACK
6
CONTINUOUS
10
4.4696593307086614
20
-2.5621233464566928
11
4.4697342519685037
21
-2.5625
0
LINE
8
BLACK
6
CONTINUOUS
10
4.4697342519685037
20
-2.5625
11
4.4697342519685037
21
-3.125
0
LINE
8
BLACK
6
CONTINUOUS
10
4.4697342519685037
20
-3.125
11
4.4696593307086614
21
-3.1253766535433072
0
LINE
8
BLACK
6
CONTINUOUS
10
4.4696593307086614
20
-3.1253766535433072
11
4.4691266535433067
21
-3.1259093307086614
0
LINE
8
BLACK
6
CONTINUOUS
10
4.4691266535433067
20
-3.1259093307086614
11
4.46875
21
-3.1259842519685037
0
LINE
8
BLACK
6
CONTINUOUS
10
4.46875
20
-3.1259842519685037
11
3.90625
21
-3.1259842519685037
0
LINE
8
BLACK
6
CONTINUOUS
10
3.90625
20
-3.1259842519685037
11
3.9058733464566928
21
-3.1259093307086614
0
LINE
8
BLACK
6
CONTINUOUS
10
3.9058733464566928
20
-3.1259093307086614
11
3.9053406692913386
21
-3.1253766535433072
0
LINE
8
BLACK
6
CONTINUOUS
10
3.9053406692913386
20
-3.1253766535433072
11
3.9052657480314958
21
-3.125
0
LINE
8
BLACK
6
CONTINUOUS
10
3.9052657480314958
20
-3.125
11
3.9052657480314958
21
-2.5625
0
LINE
8
BLACK
6
CONTINUOUS
10
3.9052657480314958
20
-2.5625
11
3.9053406692913386
21
-2.5621233464566928
0
LINE
8
BLACK
6
CONTINUOUS
10
3.9053406692913386
20
-2.5621233464566928
11
3.9058733464566928
21
-2.5615906692913386
0
LINE
8
BLACK
6
CONTINUOUS
10
3.9058733464566928
20
-2.5615906692913386
11
3.90625
21
-2.5615157480314958
0
LINE
8
BLACK
6
CONTINUOUS
10
3.90625
20
-2.5615157480314958
11
4.46875
21
-2.5615157480314958
0
LINE
8
BLACK
6
CONTINUOUS
10
4.46875
20
-2.5615157480314958
11
4.4691266535433067
21
-2.5615906692913386
0
LINE
8
BLACK
6
CONTINUOUS
10
3.9072342519685037
20
-2.5634842519685037
11
3.9072342519685037
21
-3.1240157480314958
0
LINE
8
BLACK
6
CONTINUOUS
10
3.9072342519685037
20
-3.1240157480314958
11
4.4677657480314963
21
-3.1240157480314958
0
LINE
8
BLACK
6
CONTINUOUS
10
4.4677657480314963
20
-3.1240157480314958
11
4.4677657480314963
21
-2.5634842519685037
0
LINE
8
BLACK
6
CONTINUOUS
10
4.4677657480314963
20
-2.5634842519685037
11
3.9072342519685037
21
-2.5634842519685037
0
LINE
8
BLACK
6
CONTINUOUS
10
5.2191266535433067
20
-2.5615906692913386
11
5.2196593307086614
21
-2.5621233464566928
0
LINE
8
BLACK
6
CONTINUOUS
10
5.2196593307086614
20
-2.5621233464566928
11
5.2197342519685037
21
-2.5625
0
LINE
8
BLACK
6
CONTINUOUS
10
5.2197342519685037
20
-2.5625
11
5.2197342519685037
21
-3.125
0
LINE
8
BLACK
6
CONTINUOUS
10
5.2197342519685037
20
-3.125
11
5.2196593307086614
21
-3.1253766535433072
0
LINE
8
BLACK
6
CONTINUOUS
10
5.2196593307086614
20
-3.1253766535433072
11
5.2191266535433067
21
-3.1259093307086614
0
LINE
8
BLACK
6
CONTINUOUS
10
5.2191266535433067
20
-3.1259093307086614
11
5.21875
21
-3.1259842519685037
0
LINE
8
BLACK
6
CONTINUOUS
10
5.21875
20
-3.1259842519685037
11
4.65625
21
-3.1259842519685037
0
LINE
8
BLACK
6
CONTINUOUS
10
4.65625
20
-3.1259842519685037
11
4.6558733464566924
21
-3.1259093307086614
0
LINE
8
BLACK
6
CONTINUOUS
10
4.6558733464566924
20
-3.1259093307086614
11
4.6553406692913386
21
-3.1253766535433072
0
LINE
8
BLACK
6
CONTINUOUS
10
4.6553406692913386
20
-3.1253766535433072
11
4.6552657480314963
21
-3.125
0
LINE
8
BLACK
6
CONTINUOUS
10
4.6552657480314963
20
-3.125
11
4.6552657480314963
21
-2.5625
0
LINE
8
BLACK
6
CONTINUOUS
10
4.6552657480314963
20
-2.5625
11
4.6553406692913386
21
-2.5621233464566928
0
LINE
8
BLACK
6
CONTINUOUS
10
4.6553406692913386
20
-2.5621233464566928
11
4.6558733464566924
21
-2.5615906692913386
0
LINE
8
BLACK
6
CONTINUOUS
10
4.6558733464566924
20
-2.5615906692913386
11
4.65625
21
-2.5615157480314958
0
LINE
8
BLACK
6
CONTINUOUS
10
4.65625
20
-2.5615157480314958
11
5.21875
21
-2.5615157480314958
0
LINE
8
BLACK
6
CONTINUOUS
10
5.21875
20
-2.5615157480314958
11
5.2191266535433067
21
-2.5615906692913386
0
LINE
8
BLACK
6
CONTINUOUS
10
4.6572342519685037
20
-2.5634842519685037
11
4.6572342519685037
21
-3.1240157480314958
0
LINE
8
BLACK
6
CONTINUOUS
10
4.6572342519685037
20
-3.1240157480314958
11
5.2177657480314963
21
-3.1240157480314958
0
LINE
8
BLACK
6
CONTINUOUS
10
5.2177657480314963
20
-3.1240157480314958
11
5.2177657480314963
21
-2.5634842519685037
0
LINE
8
BLACK
6
CONTINUOUS
10
5.2177657480314963
20
-2.5634842519685037
11
4.6572342519685037
21
-2.5634842519685037
0
LINE
8
BLACK
6
CONTINUOUS
10
5.9691266535433067
20
-2.5615906692913386
11
5.9696593307086614
21
-2.5621233464566928
0
LINE
8
BLACK
6
CONTINUOUS
10
5.9696593307086614
20
-2.5621233464566928
11
5.9697342519685037
21
-2.5625
0
LINE
8
BLACK
6
CONTINUOUS
10
5.9697342519685037
20
-2.5625
11
5.9697342519685037
21
-3.125
0
LINE
8
BLACK
6
CONTINUOUS
10
5.9697342519685037
20
-3.125
11
5.9696593307086614
21
-3.1253766535433072
0
LINE
8
BLACK
6
CONTINUOUS
10
5.9696593307086614
20
-3.1253766535433072
11
5.9691266535433067
21
-3.1259093307086614
0
LINE
8
BLACK
6
CONTINUOUS
10
5.9691266535433067
20
-3.1259093307086614
11
5.96875
21
-3.1259842519685037
0
LINE
8
BLACK
6
CONTINUOUS
10
5.96875
20
-3.1259842519685037
11
5.40625
21
-3.1259842519685037
0
LINE
8
BLACK
6
CONTINUOUS
10
5.40625
20
-3.1259842519685037
11
5.4058733464566924
21
-3.1259093307086614
0
LINE
8
BLACK
6
CONTINUOUS
10
5.4058733464566924
20
-3.1259093307086614
11
5.4053406692913386
21
-3.1253766535433072
0
LINE
8
BLACK
6
CONTINUOUS
10
5.4053406692913386
20
-3.1253766535433072
11
5.4052657480314963
21
-3.125
0
LINE
8
BLACK
6
CONTINUOUS
10
5.4052657480314963
20
-3.125
11
5.4052657480314963
21
-2.5625
0
LINE
8
BLACK
6
CONTINUOUS
10
5.4052657480314963
20
-2.5625
11
5.4053406692913386
21
-2.5621233464566928
0
LINE
8
BLACK
6
CONTINUOUS
10
5.4053406692913386
20
-2.5621233464566928
11
5.4058733464566924
21
-2.5615906692913386
0
LINE
8
BLACK
6
CONTINUOUS
10
5.4058733464566924
20
-2.5615906692913386
11
5.40625
21
-2.5615157480314958
0
LINE
8
BLACK
6
CONTINUOUS
10
5.40625
20
-2.5615157480314958
11
5.96875
21
-2.5615157480314958
0
LINE
8
BLACK
6
CONTINUOUS
10
5.96875
20
-2.5615157480314958
11
5.9691266535433067
21
-2.5615906692913386
0
LINE
8
BLACK
6
CONTINUOUS
10
5.4072342519685037
20
-2.5634842519685037
11
5.4072342519685037
21
-3.1240157480314958
0
LINE
8
BLACK
6
CONTINUOUS
10
5.4072342519685037
20
-3.1240157480314958
11
5.9677657480314963
21
-3.1240157480314958
0
LINE
8
BLACK
6
CONTINUOUS
10
5.9677657480314963
20
-3.1240157480314958
11
5.9677657480314963
21
-2.5634842519685037
0
LINE
8
BLACK
6
CONTINUOUS
10
5.9677657480314963
20
-2.5634842519685037
11
5.4072342519685037
21
-2.5634842519685037
0
LINE
8
BLACK
6
CONTINUOUS
10
6.7191266535433067
20
-2.5615906692913386
11
6.7196593307086614
21
-2.5621233464566928
0
LINE
8
BLACK
6
CONTINUOUS
10
6.7196593307086614
20
-2.5621233464566928
11
6.7197342519685037
21
-2.5625
0
LINE
8
BLACK
6
CONTINUOUS
10
6.7197342519685037
20
-2.5625
11
6.7197342519685037
21
-3.125
0
LINE
8
BLACK
6
CONTINUOUS
10
6.7197342519685037
20
-3.125
11
6.7196593307086614
21
-3.1253766535433072
0
LINE
8
BLACK
6
CONTINUOUS
10
6.7196593307086614
20
-3.1253766535433072
11
6.7191266535433067
21
-3.1259093307086614
0
LINE
8
BLACK
6
CONTINUOUS
10
6.7191266535433067
20
-3.1259093307086614
11
6.71875
21
-3.1259842519685037
0
LINE
8
BLACK
6
CONTINUOUS
10
6.71875
20
-3.1259842519685037
11
6.15625
21
-3.1259842519685037
0
LINE
8
BLACK
6
CONTINUOUS
10
6.15625
20
-3.1259842519685037
11
6.1558733464566924
21
-3.1259093307086614
0
LINE
8
BLACK
6
CONTINUOUS
10
6.1558733464566924
20
-3.1259093307086614
11
6.1553406692913386
21
-3.1253766535433072
0
LINE
8
BLACK
6
CONTINUOUS
10
6.1553406692913386
20
-3.1253766535433072
11
6.1552657480314963
21
-3.125
0
LINE
8
BLACK
6
CONTINUOUS
10
6.1552657480314963
20
-3.125
11
6.1552657480314963
21
-2.5625
0
LINE
8
BLACK
6
CONTINUOUS
10
6.1552657480314963
20
-2.5625
11
6.1553406692913386
21
-2.5621233464566928
0
LINE
8
BLACK
6
CONTINUOUS
10
6.1553406692913386
20
-2.5621233464566928
11
6.1558733464566924
21
-2.5615906692913386
0
LINE
8
BLACK
6
CONTINUOUS
10
6.1558733464566924
20
-2.5615906692913386
11
6.15625
21
-2.5615157480314958
0
LINE
8
BLACK
6
CONTINUOUS
10
6.15625
20
-2.5615157480314958
11
6.71875
21
-2.5615157480314958
0
LINE
8
BLACK
6
CONTINUOUS
10
6.71875
20
-2.5615157480314958
11
6.7191266535433067
21
-2.5615906692913386
0
LINE
8
BLACK
6
CONTINUOUS
10
6.1572342519685037
20
-2.5634842519685037
11
6.1572342519685037
21
-3.1240157480314958
0
LINE
8
BLACK
6
CONTINUOUS
10
6.1572342519685037
20
-3.1240157480314958
11
6.7177657480314963
21
-3.1240157480314958
0
LINE
8
BLACK
6
CONTINUOUS
10
6.7177657480314963
20
-3.1240157480314958
11
6.7177657480314963
21
-2.5634842519685037
0
LINE
8
BLACK
6
CONTINUOUS
10
6.7177657480314963
20
-2.5634842519685037
11
6.1572342519685037
21
-2.5634842519685037
0
LINE
8
BLACK
6
CONTINUOUS
10
6.4607515748031492
20
-1.9370005905511811
11
6.4760037401574806
21
-1.9400344094488189
0
LINE
8
BLACK
6
CONTINUOUS
10
6.4760037401574806
20
-1.9400344094488189
11
6.4908851181102358
21
-1.9445486220472441
0
LINE
8
BLACK
6
CONTINUOUS
10
6.4908851181102358
20
-1.9445486220472441
11
6.5052523228346457
21
-1.9504997244094489
0
LINE
8
BLACK
6
CONTINUOUS
10
6.5052523228346457
20
-1.9504997244094489
11
6.5189670866141727
21
-1.9578303937007873
0
LINE
8
BLACK
6
CONTINUOUS
10
6.5189670866141727
20
-1.9578303937007873
11
6.5318972440944885
21
-1.9664700787401574
0
LINE
8
BLACK
6
CONTINUOUS
10
6.5318972440944885
20
-1.9664700787401574
11
6.5439183070866136
21
-1.9763355118110235
0
LINE
8
BLACK
6
CONTINUOUS
10
6.5439183070866136
20
-1.9763355118110235
11
6.5549144881889765
21
-1.9873316929133857
0
LINE
8
BLACK
6
CONTINUOUS
10
6.5549144881889765
20
-1.9873316929133857
11
6.5647799212598423
21
-1.9993527559055118
0
LINE
8
BLACK
6
CONTINUOUS
10
6.5647799212598423
20
-1.9993527559055118
11
6.5734196062992121
21
-2.0122829133858269
0
LINE
8
BLACK
6
CONTINUOUS
10
6.5734196062992121
20
-2.0122829133858269
11
6.5807502755905514
21
-2.0259976771653543
0
LINE
8
BLACK
6
CONTINUOUS
10
6.5807502755905514
20
-2.0259976771653543
11
6.5867013779527559
21
-2.0403648818897637
0
LINE
8
BLACK
6
CONTINUOUS
10
6.5867013779527559
20
-2.0403648818897637
11
6.5912155905511813
21
-2.0552462598425199
0
LINE
8
BLACK
6
CONTINUOUS
10
6.5912155905511813
20
-2.0552462598425199
11
6.5942494094488184
21
-2.0704984251968503
0
LINE
8
BLACK
6
CONTINUOUS
10
6.5942494094488184
20
-2.0704984251968503
11
6.5957737007874018
21
-2.0859745275590549
0
LINE
8
BLACK
6
CONTINUOUS
10
6.5957737007874018
20
-2.0859745275590549
11
6.5957737007874018
21
-2.1015254724409447
0
LINE
8
BLACK
6
CONTINUOUS
10
6.5957737007874018
20
-2.1015254724409447
11
6.5942494094488184
21
-2.1170015748031497
0
LINE
8
BLACK
6
CONTINUOUS
10
6.5942494094488184
20
-2.1170015748031497
11
6.5912155905511813
21
-2.1322537401574801
0
LINE
8
BLACK
6
CONTINUOUS
10
6.5912155905511813
20
-2.1322537401574801
11
6.5867013779527559
21
-2.1471351181102363
0
LINE
8
BLACK
6
CONTINUOUS
10
6.5867013779527559
20
-2.1471351181102363
11
6.5807502755905514
21
-2.1615023228346457
0
LINE
8
BLACK
6
CONTINUOUS
10
6.5807502755905514
20
-2.1615023228346457
11
6.5734196062992121
21
-2.1752170866141731
0
LINE
8
BLACK
6
CONTINUOUS
10
6.5734196062992121
20
-2.1752170866141731
11
6.5647799212598423
21
-2.188147244094488
0
LINE
8
BLACK
6
CONTINUOUS
10
6.5647799212598423
20
-2.188147244094488
11
6.5549144881889765
21
-2.200168307086614
0
LINE
8
BLACK
6
CONTINUOUS
10
6.5549144881889765
20
-2.200168307086614
11
6.5439183070866136
21
-2.2111644881889765
0
LINE
8
BLACK
6
CONTINUOUS
10
6.5439183070866136
20
-2.2111644881889765
11
6.5318972440944885
21
-2.2210299212598423
0
LINE
8
BLACK
6
CONTINUOUS
10
6.5318972440944885
20
-2.2210299212598423
11
6.5189670866141727
21
-2.2296696062992125
0
LINE
8
BLACK
6
CONTINUOUS
10
6.5189670866141727
20
-2.2296696062992125
11
6.5052523228346457
21
-2.2370002755905509
0
LINE
8
BLACK
6
CONTINUOUS
10
6.5052523228346457
20
-2.2370002755905509
11
6.4908851181102358
21
-2.2429513779527559
0
LINE
8
BLACK
6
CONTINUOUS
10
6.4908851181102358
20
-2.2429513779527559
11
6.4760037401574806
21
-2.2474655905511809
0
LINE
8
BLACK
6
CONTINUOUS
10
6.4760037401574806
20
-2.2474655905511809
11
6.4607515748031492
21
-2.2504994094488189
0
LINE
8
BLACK
6
CONTINUOUS
10
6.4607515748031492
20
-2.2504994094488189
11
6.4452754724409447
21
-2.2520237007874013
0
LINE
8
BLACK
6
CONTINUOUS
10
6.4452754724409447
20
-2.2520237007874013
11
6.4297245275590553
21
-2.2520237007874013
0
LINE
8
BLACK
6
CONTINUOUS
10
6.4297245275590553
20
-2.2520237007874013
11
6.4142484251968499
21
-2.2504994094488189
0
LINE
8
BLACK
6
CONTINUOUS
10
6.4142484251968499
20
-2.2504994094488189
11
6.3989962598425194
21
-2.2474655905511809
0
LINE
8
BLACK
6
CONTINUOUS
10
6.3989962598425194
20
-2.2474655905511809
11
6.3841148818897633
21
-2.2429513779527559
0
LINE
8
BLACK
6
CONTINUOUS
10
6.3841148818897633
20
-2.2429513779527559
11
6.3697476771653543
21
-2.2370002755905509
0
LINE
8
BLACK
6
CONTINUOUS
10
6.3697476771653543
20
-2.2370002755905509
11
6.3560329133858264
21
-2.2296696062992125
0
LINE
8
BLACK
6
CONTINUOUS
10
6.3560329133858264
20
-2.2296696062992125
11
6.3431027559055115
21
-2.2210299212598423
0
LINE
8
BLACK
6
CONTINUOUS
10
6.3431027559055115
20
-2.2210299212598423
11
6.3310816929133855
21
-2.2111644881889765
0
LINE
8
BLACK
6
CONTINUOUS
10
6.3310816929133855
20
-2.2111644881889765
11
6.3200855118110235
21
-2.200168307086614
0
LINE
8
BLACK
6
CONTINUOUS
10
6.3200855118110235
20
-2.200168307086614
11
6.3102200787401577
21
-2.188147244094488
0
LINE
8
BLACK
6
CONTINUOUS
10
6.3102200787401577
20
-2.188147244094488
11
6.301580393700787
21
-2.1752170866141731
0
LINE
8
BLACK
6
CONTINUOUS
10
6.301580393700787
20
-2.1752170866141731
11
6.2942497244094486
21
-2.1615023228346457
0
LINE
8
BLACK
6
CONTINUOUS
10
6.2942497244094486
20
-2.1615023228346457
11
6.2882986220472441
21
-2.1471351181102363
0
LINE
8
BLACK
6
CONTINUOUS
10
6.2882986220472441
20
-2.1471351181102363
11
6.2837844094488187
21
-2.1322537401574801
0
LINE
8
BLACK
6
CONTINUOUS
10
6.2837844094488187
20
-2.1322537401574801
11
6.2807505905511807
21
-2.1170015748031497
0
LINE
8
BLACK
6
CONTINUOUS
10
6.2807505905511807
20
-2.1170015748031497
11
6.2792262992125982
21
-2.1015254724409447
0
LINE
8
BLACK
6
CONTINUOUS
10
6.2792262992125982
20
-2.1015254724409447
11
6.2792262992125982
21
-2.0860618503937007
0
LINE
8
BLACK
6
CONTINUOUS
10
6.2792262992125982
20
-2.0860618503937007
11
6.2792262992125982
21
-2.0859745275590549
0
LINE
8
BLACK
6
CONTINUOUS
10
6.2792262992125982
20
-2.0859745275590549
11
6.2807505905511807
21
-2.0704984251968503
0
LINE
8
BLACK
6
CONTINUOUS
10
6.2807505905511807
20
-2.0704984251968503
11
6.2837844094488187
21
-2.0552462598425199
0
LINE
8
BLACK
6
CONTINUOUS
10
6.2837844094488187
20
-2.0552462598425199
11
6.2882986220472441
21
-2.0403648818897637
0
LINE
8
BLACK
6
CONTINUOUS
10
6.2882986220472441
20
-2.0403648818897637
11
6.2942497244094486
21
-2.0259976771653543
0
LINE
8
BLACK
6
CONTINUOUS
10
6.2942497244094486
20
-2.0259976771653543
11
6.301580393700787
21
-2.0122829133858269
0
LINE
8
BLACK
6
CONTINUOUS
10
6.301580393700787
20
-2.0122829133858269
11
6.3102200787401577
21
-1.9993527559055118
0
LINE
8
BLACK
6
CONTINUOUS
10
6.3102200787401577
20
-1.9993527559055118
11
6.3200855118110235
21
-1.9873316929133857
0
LINE
8
BLACK
6
CONTINUOUS
10
6.3200855118110235
20
-1.9873316929133857
11
6.3310816929133855
21
-1.9763355118110235
0
LINE
8
BLACK
6
CONTINUOUS
10
6.3310816929133855
20
-1.9763355118110235
11
6.3431027559055115
21
-1.9664700787401574
0
LINE
8
BLACK
6
CONTINUOUS
10
6.3431027559055115
20
-1.9664700787401574
11
6.3560329133858264
21
-1.9578303937007873
0
LINE
8
BLACK
6
CONTINUOUS
10
6.3560329133858264
20
-1.9578303937007873
11
6.3697476771653543
21
-1.9504997244094489
0
LINE
8
BLACK
6
CONTINUOUS
10
6.3697476771653543
20
-1.9504997244094489
11
6.3841148818897633
21
-1.9445486220472441
0
LINE
8
BLACK
6
CONTINUOUS
10
6.3841148818897633
20
-1.9445486220472441
11
6.3989962598425194
21
-1.9400344094488189
0
LINE
8
BLACK
6
CONTINUOUS
10
6.3989962598425194
20
-1.9400344094488189
11
6.4142484251968499
21
-1.9370005905511811
0
LINE
8
BLACK
6
CONTINUOUS
10
6.4142484251968499
20
-1.9370005905511811
11
6.4297245275590553
21
-1.9354762992125984
0
LINE
8
BLACK
6
CONTINUOUS
10
6.4297245275590553
20
-1.9354762992125984
11
6.4452754724409447
21
-1.9354762992125984
0
LINE
8
BLACK
6
CONTINUOUS
10
6.4452754724409447
20
-1.9354762992125984
11
6.4607515748031492
21
-1.9370005905511811
0
LINE
8
BLACK
6
CONTINUOUS
10
6.2810039370078741
20
-2.1014381496062993
11
6.2825110629921257
21
-2.1167404330708659
0
LINE
8
BLACK
6
CONTINUOUS
10
6.2825110629921257
20
-2.1167404330708659
11
6.2855108267716533
21
-2.1318212992125982
0
LINE
8
BLACK
6
CONTINUOUS
10
6.2855108267716533
20
-2.1318212992125982
11
6.2899743700787401
21
-2.1465355118110234
0
LINE
8
BLACK
6
CONTINUOUS
10
6.2899743700787401
20
-2.1465355118110234
11
6.2958586220472439
21
-2.160741377952756
0
LINE
8
BLACK
6
CONTINUOUS
10
6.2958586220472439
20
-2.160741377952756
11
6.3031069685039371
21
-2.1743020866141731
0
LINE
8
BLACK
6
CONTINUOUS
10
6.3031069685039371
20
-2.1743020866141731
11
6.3116495669291339
21
-2.1870870472440944
0
LINE
8
BLACK
6
CONTINUOUS
10
6.3116495669291339
20
-2.1870870472440944
11
6.3214042125984253
21
-2.1989730708661415
0
LINE
8
BLACK
6
CONTINUOUS
10
6.3214042125984253
20
-2.1989730708661415
11
6.3322769291338581
21
-2.2098457874015747
0
LINE
8
BLACK
6
CONTINUOUS
10
6.3322769291338581
20
-2.2098457874015747
11
6.3441629527559051
21
-2.2196004330708661
0
LINE
8
BLACK
6
CONTINUOUS
10
6.3441629527559051
20
-2.2196004330708661
11
6.3569479133858264
21
-2.2281430314960629
0
LINE
8
BLACK
6
CONTINUOUS
10
6.3569479133858264
20
-2.2281430314960629
11
6.370508622047244
21
-2.2353913779527557
0
LINE
8
BLACK
6
CONTINUOUS
10
6.370508622047244
20
-2.2353913779527557
11
6.3847144881889761
21
-2.2412756299212599
0
LINE
8
BLACK
6
CONTINUOUS
10
6.3847144881889761
20
-2.2412756299212599
11
6.3994287007874018
21
-2.2457391732283463
0
LINE
8
BLACK
6
CONTINUOUS
10
6.3994287007874018
20
-2.2457391732283463
11
6.4145095669291337
21
-2.2487389370078739
0
LINE
8
BLACK
6
CONTINUOUS
10
6.4145095669291337
20
-2.2487389370078739
11
6.4298118503937003
21
-2.2502460629921259
0
LINE
8
BLACK
6
CONTINUOUS
10
6.4298118503937003
20
-2.2502460629921259
11
6.4451881496062988
21
-2.2502460629921259
0
LINE
8
BLACK
6
CONTINUOUS
10
6.4451881496062988
20
-2.2502460629921259
11
6.4604904330708663
21
-2.2487389370078739
0
LINE
8
BLACK
6
CONTINUOUS
10
6.4604904330708663
20
-2.2487389370078739
11
6.4755712992125982
21
-2.2457391732283463
0
LINE
8
BLACK
6
CONTINUOUS
10
6.4755712992125982
20
-2.2457391732283463
11
6.4902855118110239
21
-2.2412756299212599
0
LINE
8
BLACK
6
CONTINUOUS
10
6.4902855118110239
20
-2.2412756299212599
11
6.504491377952756
21
-2.2353913779527557
0
LINE
8
BLACK
6
CONTINUOUS
10
6.504491377952756
20
-2.2353913779527557
11
6.5180520866141727
21
-2.2281430314960629
0
LINE
8
BLACK
6
CONTINUOUS
10
6.5180520866141727
20
-2.2281430314960629
11
6.530837047244094
21
-2.2196004330708661
0
LINE
8
BLACK
6
CONTINUOUS
10
6.530837047244094
20
-2.2196004330708661
11
6.5427230708661419
21
-2.2098457874015747
0
LINE
8
BLACK
6
CONTINUOUS
10
6.5427230708661419
20
-2.2098457874015747
11
6.5535957874015747
21
-2.1989730708661415
0
LINE
8
BLACK
6
CONTINUOUS
10
6.5535957874015747
20
-2.1989730708661415
11
6.5633504330708661
21
-2.1870870472440944
0
LINE
8
BLACK
6
CONTINUOUS
10
6.5633504330708661
20
-2.1870870472440944
11
6.5718930314960629
21
-2.1743020866141731
0
LINE
8
BLACK
6
CONTINUOUS
10
6.5718930314960629
20
-2.1743020866141731
11
6.5791413779527561
21
-2.160741377952756
0
LINE
8
BLACK
6
CONTINUOUS
10
6.5791413779527561
20
-2.160741377952756
11
6.5850256299212599
21
-2.1465355118110234
0
LINE
8
BLACK
6
CONTINUOUS
10
6.5850256299212599
20
-2.1465355118110234
11
6.5894891732283467
21
-2.1318212992125982
0
LINE
8
BLACK
6
CONTINUOUS
10
6.5894891732283467
20
-2.1318212992125982
11
6.5924889370078743
21
-2.1167404330708659
0
LINE
8
BLACK
6
CONTINUOUS
10
6.5924889370078743
20
-2.1167404330708659
11
6.5939960629921259
21
-2.1014381496062993
0
LINE
8
BLACK
6
CONTINUOUS
10
6.5939960629921259
20
-2.1014381496062993
11
6.5939960629921259
21
-2.0860618503937007
0
LINE
8
BLACK
6
CONTINUOUS
10
6.5939960629921259
20
-2.0860618503937007
11
6.5924889370078743
21
-2.0707595669291337
0
LINE
8
BLACK
6
CONTINUOUS
10
6.5924889370078743
20
-2.0707595669291337
11
6.5894891732283467
21
-2.0556787007874013
0
LINE
8
BLACK
6
CONTINUOUS
10
6.5894891732283467
20
-2.0556787007874013
11
6.5850256299212599
21
-2.0409644881889761
0
LINE
8
BLACK
6
CONTINUOUS
10
6.5850256299212599
20
-2.0409644881889761
11
6.5791413779527561
21
-2.026758622047244
0
LINE
8
BLACK
6
CONTINUOUS
10
6.5791413779527561
20
-2.026758622047244
11
6.5718930314960629
21
-2.0131979133858269
0
LINE
8
BLACK
6
CONTINUOUS
10
6.5718930314960629
20
-2.0131979133858269
11
6.5633504330708661
21
-2.0004129527559056
0
LINE
8
BLACK
6
CONTINUOUS
10
6.5633504330708661
20
-2.0004129527559056
11
6.5535957874015747
21
-1.9885269291338583
0
LINE
8
BLACK
6
CONTINUOUS
10
6.5535957874015747
20
-1.9885269291338583
11
6.5427230708661419
21
-1.9776542125984251
0
LINE
8
BLACK
6
CONTINUOUS
10
6.5427230708661419
20
-1.9776542125984251
11
6.530837047244094
21
-1.9678995669291337
0
LINE
8
BLACK
6
CONTINUOUS
10
6.530837047244094
20
-1.9678995669291337
11
6.5180520866141727
21
-1.9593569685039369
0
LINE
8
BLACK
6
CONTINUOUS
10
6.5180520866141727
20
-1.9593569685039369
11
6.504491377952756
21
-1.9521086220472441
0
LINE
8
BLACK
6
CONTINUOUS
10
6.504491377952756
20
-1.9521086220472441
11
6.4902855118110239
21
-1.9462243700787401
0
LINE
8
BLACK
6
CONTINUOUS
10
6.4902855118110239
20
-1.9462243700787401
11
6.4755712992125982
21
-1.9417608267716535
0
LINE
8
BLACK
6
CONTINUOUS
10
6.4755712992125982
20
-1.9417608267716535
11
6.4604904330708663
21
-1.9387610629921259
0
LINE
8
BLACK
6
CONTINUOUS
10
6.4604904330708663
20
-1.9387610629921259
11
6.4451881496062988
21
-1.9372539370078741
0
LINE
8
BLACK
6
CONTINUOUS
10
6.4451881496062988
20
-1.9372539370078741
11
6.4298118503937003
21
-1.9372539370078741
0
LINE
8
BLACK
6
CONTINUOUS
10
6.4298118503937003
20
-1.9372539370078741
11
6.4145095669291337
21
-1.9387610629921259
0
LINE
8
BLACK
6
CONTINUOUS
10
6.4145095669291337
20
-1.9387610629921259
11
6.3994287007874018
21
-1.9417608267716535
0
LINE
8
BLACK
6
CONTINUOUS
10
6.3994287007874018
20
-1.9417608267716535
11
6.3847144881889761
21
-1.9462243700787401
0
LINE
8
BLACK
6
CONTINUOUS
10
6.3847144881889761
20
-1.9462243700787401
11
6.370508622047244
21
-1.9521086220472441
0
LINE
8
BLACK
6
CONTINUOUS
10
6.370508622047244
20
-1.9521086220472441
11
6.3569479133858264
21
-1.9593569685039369
0
LINE
8
BLACK
6
CONTINUOUS
10
6.3569479133858264
20
-1.9593569685039369
11
6.3441629527559051
21
-1.9678995669291337
0
LINE
8
BLACK
6
CONTINUOUS
10
6.3441629527559051
20
-1.9678995669291337
11
6.3322769291338581
21
-1.9776542125984251
0
LINE
8
BLACK
6
CONTINUOUS
10
6.3322769291338581
20
-1.9776542125984251
11
6.3214042125984253
21
-1.9885269291338583
0
LINE
8
BLACK
6
CONTINUOUS
10
6.3214042125984253
20
-1.9885269291338583
11
6.3116495669291339
21
-2.0004129527559056
0
LINE
8
BLACK
6
CONTINUOUS
10
6.3116495669291339
20
-2.0004129527559056
11
6.3031069685039371
21
-2.0131979133858269
0
LINE
8
BLACK
6
CONTINUOUS
10
6.3031069685039371
20
-2.0131979133858269
11
6.2958586220472439
21
-2.026758622047244
0
LINE
8
BLACK
6
CONTINUOUS
10
6.2958586220472439
20
-2.026758622047244
11
6.2899743700787401
21
-2.0409644881889761
0
LINE
8
BLACK
6
CONTINUOUS
10
6.2899743700787401
20
-2.0409644881889761
11
6.2855108267716533
21
-2.0556787007874013
0
LINE
8
BLACK
6
CONTINUOUS
10
6.2855108267716533
20
-2.0556787007874013
11
6.2825110629921257
21
-2.0707595669291337
0
LINE
8
BLACK
6
CONTINUOUS
10
6.2825110629921257
20
-2.0707595669291337
11
6.2810039370078741
21
-2.0860618503937007
0
LINE
8
BLACK
6
CONTINUOUS
10
6.2810039370078741
20
-2.0860618503937007
11
6.2810039370078741
21
-2.1014381496062993
0
LINE
8
BLACK
6
CONTINUOUS
10
4.2160089763779522
20
-1.9334956299212598
11
4.2312611417322836
21
-1.9365294488188975
0
LINE
8
BLACK
6
CONTINUOUS
10
4.2312611417322836
20
-1.9365294488188975
11
4.2461425196850389
21
-1.9410436614173228
0
LINE
8
BLACK
6
CONTINUOUS
10
4.2461425196850389
20
-1.9410436614173228
11
4.2605097244094488
21
-1.9469947637795275
0
LINE
8
BLACK
6
CONTINUOUS
10
4.2605097244094488
20
-1.9469947637795275
11
4.2742244881889766
21
-1.9543254330708661
0
LINE
8
BLACK
6
CONTINUOUS
10
4.2742244881889766
20
-1.9543254330708661
11
4.2871546456692915
21
-1.9629651181102361
0
LINE
8
BLACK
6
CONTINUOUS
10
4.2871546456692915
20
-1.9629651181102361
11
4.2991757086614175
21
-1.9728305511811024
0
LINE
8
BLACK
6
CONTINUOUS
10
4.2991757086614175
20
-1.9728305511811024
11
4.3101718897637795
21
-1.9838267322834646
0
LINE
8
BLACK
6
CONTINUOUS
10
4.3101718897637795
20
-1.9838267322834646
11
4.3200373228346454
21
-1.9958477952755904
0
LINE
8
BLACK
6
CONTINUOUS
10
4.3200373228346454
20
-1.9958477952755904
11
4.328677007874016
21
-2.0087779527559055
0
LINE
8
BLACK
6
CONTINUOUS
10
4.328677007874016
20
-2.0087779527559055
11
4.3360076771653544
21
-2.0224927165354329
0
LINE
8
BLACK
6
CONTINUOUS
10
4.3360076771653544
20
-2.0224927165354329
11
4.3419587795275589
21
-2.0368599212598424
0
LINE
8
BLACK
6
CONTINUOUS
10
4.3419587795275589
20
-2.0368599212598424
11
4.3464729921259844
21
-2.0517412992125985
0
LINE
8
BLACK
6
CONTINUOUS
10
4.3464729921259844
20
-2.0517412992125985
11
4.3495068110236224
21
-2.066993464566929
0
LINE
8
BLACK
6
CONTINUOUS
10
4.3495068110236224
20
-2.066993464566929
11
4.3510311023622048
21
-2.082469566929134
0
LINE
8
BLACK
6
CONTINUOUS
10
4.3510311023622048
20
-2.082469566929134
11
4.3510311023622048
21
-2.0980205118110238
0
LINE
8
BLACK
6
CONTINUOUS
10
4.3510311023622048
20
-2.0980205118110238
11
4.3495068110236224
21
-2.1134966141732283
0
LINE
8
BLACK
6
CONTINUOUS
10
4.3495068110236224
20
-2.1134966141732283
11
4.3464729921259844
21
-2.1287487795275588
0
LINE
8
BLACK
6
CONTINUOUS
10
4.3464729921259844
20
-2.1287487795275588
11
4.3419587795275589
21
-2.1436301574803149
0
LINE
8
BLACK
6
CONTINUOUS
10
4.3419587795275589
20
-2.1436301574803149
11
4.3360076771653544
21
-2.1579973622047244
0
LINE
8
BLACK
6
CONTINUOUS
10
4.3360076771653544
20
-2.1579973622047244
11
4.328677007874016
21
-2.1717121259842518
0
LINE
8
BLACK
6
CONTINUOUS
10
4.328677007874016
20
-2.1717121259842518
11
4.3200373228346454
21
-2.1846422834645667
0
LINE
8
BLACK
6
CONTINUOUS
10
4.3200373228346454
20
-2.1846422834645667
11
4.3101718897637795
21
-2.1966633464566927
0
LINE
8
BLACK
6
CONTINUOUS
10
4.3101718897637795
20
-2.1966633464566927
11
4.2991757086614175
21
-2.2076595275590551
0
LINE
8
BLACK
6
CONTINUOUS
10
4.2991757086614175
20
-2.2076595275590551
11
4.2871546456692915
21
-2.217524960629921
0
LINE
8
BLACK
6
CONTINUOUS
10
4.2871546456692915
20
-2.217524960629921
11
4.2742244881889766
21
-2.2261646456692912
0
LINE
8
BLACK
6
CONTINUOUS
10
4.2742244881889766
20
-2.2261646456692912
11
4.2605097244094488
21
-2.23349531496063
0
LINE
8
BLACK
6
CONTINUOUS
10
4.2605097244094488
20
-2.23349531496063
11
4.2461425196850389
21
-2.2394464173228346
0
LINE
8
BLACK
6
CONTINUOUS
10
4.2461425196850389
20
-2.2394464173228346
11
4.2312611417322836
21
-2.24396062992126
0
LINE
8
BLACK
6
CONTINUOUS
10
4.2312611417322836
20
-2.24396062992126
11
4.2160089763779522
21
-2.2469944488188975
0
LINE
8
BLACK
6
CONTINUOUS
10
4.2160089763779522
20
-2.2469944488188975
11
4.2005328740157477
21
-2.2485187401574804
0
LINE
8
BLACK
6
CONTINUOUS
10
4.2005328740157477
20
-2.2485187401574804
11
4.1849819291338584
21
-2.2485187401574804
0
LINE
8
BLACK
6
CONTINUOUS
10
4.1849819291338584
20
-2.2485187401574804
11
4.1695058267716538
21
-2.2469944488188975
0
LINE
8
BLACK
6
CONTINUOUS
10
4.1695058267716538
20
-2.2469944488188975
11
4.1542536614173224
21
-2.24396062992126
0
LINE
8
BLACK
6
CONTINUOUS
10
4.1542536614173224
20
-2.24396062992126
11
4.1393722834645672
21
-2.2394464173228346
0
LINE
8
BLACK
6
CONTINUOUS
10
4.1393722834645672
20
-2.2394464173228346
11
4.1250050787401573
21
-2.23349531496063
0
LINE
8
BLACK
6
CONTINUOUS
10
4.1250050787401573
20
-2.23349531496063
11
4.1112903149606295
21
-2.2261646456692912
0
LINE
8
BLACK
6
CONTINUOUS
10
4.1112903149606295
20
-2.2261646456692912
11
4.0983601574803146
21
-2.217524960629921
0
LINE
8
BLACK
6
CONTINUOUS
10
4.0983601574803146
20
-2.217524960629921
11
4.0863390944881886
21
-2.2076595275590551
0
LINE
8
BLACK
6
CONTINUOUS
10
4.0863390944881886
20
-2.2076595275590551
11
4.0753429133858265
21
-2.1966633464566927
0
LINE
8
BLACK
6
CONTINUOUS
10
4.0753429133858265
20
-2.1966633464566927
11
4.0654774803149607
21
-2.1846422834645667
0
LINE
8
BLACK
6
CONTINUOUS
10
4.0654774803149607
20
-2.1846422834645667
11
4.0568377952755901
21
-2.1717121259842518
0
LINE
8
BLACK
6
CONTINUOUS
10
4.0568377952755901
20
-2.1717121259842518
11
4.0495071259842517
21
-2.1579973622047244
0
LINE
8
BLACK
6
CONTINUOUS
10
4.0495071259842517
20
-2.1579973622047244
11
4.0435560236220471
21
-2.1436301574803149
0
LINE
8
BLACK
6
CONTINUOUS
10
4.0435560236220471
20
-2.1436301574803149
11
4.0390418110236217
21
-2.1287487795275588
0
LINE
8
BLACK
6
CONTINUOUS
10
4.0390418110236217
20
-2.1287487795275588
11
4.0360079921259846
21
-2.1134966141732283
0
LINE
8
BLACK
6
CONTINUOUS
10
4.0360079921259846
20
-2.1134966141732283
11
4.0344837007874013
21
-2.0980205118110238
0
LINE
8
BLACK
6
CONTINUOUS
10
4.0344837007874013
20
-2.0980205118110238
11
4.0344837007874013
21
-2.0825568897637794
0
LINE
8
BLACK
6
CONTINUOUS
10
4.0344837007874013
20
-2.0825568897637794
11
4.0344837007874013
21
-2.082469566929134
0
LINE
8
BLACK
6
CONTINUOUS
10
4.0344837007874013
20
-2.082469566929134
11
4.0360079921259846
21
-2.066993464566929
0
LINE
8
BLACK
6
CONTINUOUS
10
4.0360079921259846
20
-2.066993464566929
11
4.0390418110236217
21
-2.0517412992125985
0
LINE
8
BLACK
6
CONTINUOUS
10
4.0390418110236217
20
-2.0517412992125985
11
4.0435560236220471
21
-2.0368599212598424
0
LINE
8
BLACK
6
CONTINUOUS
10
4.0435560236220471
20
-2.0368599212598424
11
4.0495071259842517
21
-2.0224927165354329
0
LINE
8
BLACK
6
CONTINUOUS
10
4.0495071259842517
20
-2.0224927165354329
11
4.0568377952755901
21
-2.0087779527559055
0
LINE
8
BLACK
6
CONTINUOUS
10
4.0568377952755901
20
-2.0087779527559055
11
4.0654774803149607
21
-1.9958477952755904
0
LINE
8
BLACK
6
CONTINUOUS
10
4.0654774803149607
20
-1.9958477952755904
11
4.0753429133858265
21
-1.9838267322834646
0
LINE
8
BLACK
6
CONTINUOUS
10
4.0753429133858265
20
-1.9838267322834646
11
4.0863390944881886
21
-1.9728305511811024
0
LINE
8
BLACK
6
CONTINUOUS
10
4.0863390944881886
20
-1.9728305511811024
11
4.0983601574803146
21
-1.9629651181102361
0
LINE
8
BLACK
6
CONTINUOUS
10
4.0983601574803146
20
-1.9629651181102361
11
4.1112903149606295
21
-1.9543254330708661
0
LINE
8
BLACK
6
CONTINUOUS
10
4.1112903149606295
20
-1.9543254330708661
11
4.1250050787401573
21
-1.9469947637795275
0
LINE
8
BLACK
6
CONTINUOUS
10
4.1250050787401573
20
-1.9469947637795275
11
4.1393722834645672
21
-1.9410436614173228
0
LINE
8
BLACK
6
CONTINUOUS
10
4.1393722834645672
20
-1.9410436614173228
11
4.1542536614173224
21
-1.9365294488188975
0
LINE
8
BLACK
6
CONTINUOUS
10
4.1542536614173224
20
-1.9365294488188975
11
4.1695058267716538
21
-1.9334956299212598
0
LINE
8
BLACK
6
CONTINUOUS
10
4.1695058267716538
20
-1.9334956299212598
11
4.1849819291338584
21
-1.9319713385826771
0
LINE
8
BLACK
6
CONTINUOUS
10
4.1849819291338584
20
-1.9319713385826771
11
4.2005328740157477
21
-1.9319713385826771
0
LINE
8
BLACK
6
CONTINUOUS
10
4.2005328740157477
20
-1.9319713385826771
11
4.2160089763779522
21
-1.9334956299212598
0
LINE
8
BLACK
6
CONTINUOUS
10
4.0362613385826771
20
-2.0979331889763779
11
4.0377684645669287
21
-2.113235472440945
0
LINE
8
BLACK
6
CONTINUOUS
10
4.0377684645669287
20
-2.113235472440945
11
4.0407682283464563
21
-2.1283163385826773
0
LINE
8
BLACK
6
CONTINUOUS
10
4.0407682283464563
20
-2.1283163385826773
11
4.0452317716535431
21
-2.1430305511811025
0
LINE
8
BLACK
6
CONTINUOUS
10
4.0452317716535431
20
-2.1430305511811025
11
4.0511160236220469
21
-2.1572364173228347
0
LINE
8
BLACK
6
CONTINUOUS
10
4.0511160236220469
20
-2.1572364173228347
11
4.0583643700787402
21
-2.1707971259842518
0
LINE
8
BLACK
6
CONTINUOUS
10
4.0583643700787402
20
-2.1707971259842518
11
4.066906968503937
21
-2.1835820866141731
0
LINE
8
BLACK
6
CONTINUOUS
10
4.066906968503937
20
-2.1835820866141731
11
4.0766616141732284
21
-2.1954681102362206
0
LINE
8
BLACK
6
CONTINUOUS
10
4.0766616141732284
20
-2.1954681102362206
11
4.0875343307086611
21
-2.2063408267716533
0
LINE
8
BLACK
6
CONTINUOUS
10
4.0875343307086611
20
-2.2063408267716533
11
4.0994203543307082
21
-2.2160954724409447
0
LINE
8
BLACK
6
CONTINUOUS
10
4.0994203543307082
20
-2.2160954724409447
11
4.1122053149606295
21
-2.2246380708661415
0
LINE
8
BLACK
6
CONTINUOUS
10
4.1122053149606295
20
-2.2246380708661415
11
4.125766023622047
21
-2.2318864173228348
0
LINE
8
BLACK
6
CONTINUOUS
10
4.125766023622047
20
-2.2318864173228348
11
4.1399718897637792
21
-2.2377706692913386
0
LINE
8
BLACK
6
CONTINUOUS
10
4.1399718897637792
20
-2.2377706692913386
11
4.1546861023622048
21
-2.2422342125984249
0
LINE
8
BLACK
6
CONTINUOUS
10
4.1546861023622048
20
-2.2422342125984249
11
4.1697669685039367
21
-2.2452339763779525
0
LINE
8
BLACK
6
CONTINUOUS
10
4.1697669685039367
20
-2.2452339763779525
11
4.1850692519685042
21
-2.2467411023622046
0
LINE
8
BLACK
6
CONTINUOUS
10
4.1850692519685042
20
-2.2467411023622046
11
4.2004455511811019
21
-2.2467411023622046
0
LINE
8
BLACK
6
CONTINUOUS
10
4.2004455511811019
20
-2.2467411023622046
11
4.2157478346456694
21
-2.2452339763779525
0
LINE
8
BLACK
6
CONTINUOUS
10
4.2157478346456694
20
-2.2452339763779525
11
4.2308287007874013
21
-2.2422342125984249
0
LINE
8
BLACK
6
CONTINUOUS
10
4.2308287007874013
20
-2.2422342125984249
11
4.2455429133858269
21
-2.2377706692913386
0
LINE
8
BLACK
6
CONTINUOUS
10
4.2455429133858269
20
-2.2377706692913386
11
4.259748779527559
21
-2.2318864173228348
0
LINE
8
BLACK
6
CONTINUOUS
10
4.259748779527559
20
-2.2318864173228348
11
4.2733094881889766
21
-2.2246380708661415
0
LINE
8
BLACK
6
CONTINUOUS
10
4.2733094881889766
20
-2.2246380708661415
11
4.2860944488188979
21
-2.2160954724409447
0
LINE
8
BLACK
6
CONTINUOUS
10
4.2860944488188979
20
-2.2160954724409447
11
4.2979804724409449
21
-2.2063408267716533
0
LINE
8
BLACK
6
CONTINUOUS
10
4.2979804724409449
20
-2.2063408267716533
11
4.3088531889763777
21
-2.1954681102362206
0
LINE
8
BLACK
6
CONTINUOUS
10
4.3088531889763777
20
-2.1954681102362206
11
4.3186078346456691
21
-2.1835820866141731
0
LINE
8
BLACK
6
CONTINUOUS
10
4.3186078346456691
20
-2.1835820866141731
11
4.3271504330708659
21
-2.1707971259842518
0
LINE
8
BLACK
6
CONTINUOUS
10
4.3271504330708659
20
-2.1707971259842518
11
4.3343987795275591
21
-2.1572364173228347
0
LINE
8
BLACK
6
CONTINUOUS
10
4.3343987795275591
20
-2.1572364173228347
11
4.340283031496063
21
-2.1430305511811025
0
LINE
8
BLACK
6
CONTINUOUS
10
4.340283031496063
20
-2.1430305511811025
11
4.3447465748031497
21
-2.1283163385826773
0
LINE
8
BLACK
6
CONTINUOUS
10
4.3447465748031497
20
-2.1283163385826773
11
4.3477463385826773
21
-2.113235472440945
0
LINE
8
BLACK
6
CONTINUOUS
10
4.3477463385826773
20
-2.113235472440945
11
4.349253464566929
21
-2.0979331889763779
0
LINE
8
BLACK
6
CONTINUOUS
10
4.349253464566929
20
-2.0979331889763779
11
4.349253464566929
21
-2.0825568897637794
0
LINE
8
BLACK
6
CONTINUOUS
10
4.349253464566929
20
-2.0825568897637794
11
4.3477463385826773
21
-2.0672546062992128
0
LINE
8
BLACK
6
CONTINUOUS
10
4.3477463385826773
20
-2.0672546062992128
11
4.3447465748031497
21
-2.0521737401574804
0
LINE
8
BLACK
6
CONTINUOUS
10
4.3447465748031497
20
-2.0521737401574804
11
4.340283031496063
21
-2.0374595275590552
0
LINE
8
BLACK
6
CONTINUOUS
10
4.340283031496063
20
-2.0374595275590552
11
4.3343987795275591
21
-2.0232536614173227
0
LINE
8
BLACK
6
CONTINUOUS
10
4.3343987795275591
20
-2.0232536614173227
11
4.3271504330708659
21
-2.0096929527559055
0
LINE
8
BLACK
6
CONTINUOUS
10
4.3271504330708659
20
-2.0096929527559055
11
4.3186078346456691
21
-1.9969079921259842
0
LINE
8
BLACK
6
CONTINUOUS
10
4.3186078346456691
20
-1.9969079921259842
11
4.3088531889763777
21
-1.985021968503937
0
LINE
8
BLACK
6
CONTINUOUS
10
4.3088531889763777
20
-1.985021968503937
11
4.2979804724409449
21
-1.974149251968504
0
LINE
8
BLACK
6
CONTINUOUS
10
4.2979804724409449
20
-1.974149251968504
11
4.2860944488188979
21
-1.9643946062992126
0
LINE
8
BLACK
6
CONTINUOUS
10
4.2860944488188979
20
-1.9643946062992126
11
4.2733094881889766
21
-1.9558520078740158
0
LINE
8
BLACK
6
CONTINUOUS
10
4.2733094881889766
20
-1.9558520078740158
11
4.259748779527559
21
-1.9486036614173228
0
LINE
8
BLACK
6
CONTINUOUS
10
4.259748779527559
20
-1.9486036614173228
11
4.2455429133858269
21
-1.9427194094488189
0
LINE
8
BLACK
6
CONTINUOUS
10
4.2455429133858269
20
-1.9427194094488189
11
4.2308287007874013
21
-1.9382558661417322
0
LINE
8
BLACK
6
CONTINUOUS
10
4.2308287007874013
20
-1.9382558661417322
11
4.2157478346456694
21
-1.9352561023622046
0
LINE
8
BLACK
6
CONTINUOUS
10
4.2157478346456694
20
-1.9352561023622046
11
4.2004455511811019
21
-1.9337489763779527
0
LINE
8
BLACK
6
CONTINUOUS
10
4.2004455511811019
20
-1.9337489763779527
11
4.1850692519685042
21
-1.9337489763779527
0
LINE
8
BLACK
6
CONTINUOUS
10
4.1850692519685042
20
-1.9337489763779527
11
4.1697669685039367
21
-1.9352561023622046
0
LINE
8
BLACK
6
CONTINUOUS
10
4.1697669685039367
20
-1.9352561023622046
11
4.1546861023622048
21
-1.9382558661417322
0
LINE
8
BLACK
6
CONTINUOUS
10
4.1546861023622048
20
-1.9382558661417322
11
4.1399718897637792
21
-1.9427194094488189
0
LINE
8
BLACK
6
CONTINUOUS
10
4.1399718897637792
20
-1.9427194094488189
11
4.125766023622047
21
-1.9486036614173228
0
LINE
8
BLACK
6
CONTINUOUS
10
4.125766023622047
20
-1.9486036614173228
11
4.1122053149606295
21
-1.9558520078740158
0
LINE
8
BLACK
6
CONTINUOUS
10
4.1122053149606295
20
-1.9558520078740158
11
4.0994203543307082
21
-1.9643946062992126
0
LINE
8
BLACK
6
CONTINUOUS
10
4.0994203543307082
20
-1.9643946062992126
11
4.0875343307086611
21
-1.974149251968504
0
LINE
8
BLACK
6
CONTINUOUS
10
4.0875343307086611
20
-1.974149251968504
11
4.0766616141732284
21
-1.985021968503937
0
LINE
8
BLACK
6
CONTINUOUS
10
4.0766616141732284
20
-1.985021968503937
11
4.066906968503937
21
-1.9969079921259842
0
LINE
8
BLACK
6
CONTINUOUS
10
4.066906968503937
20
-1.9969079921259842
11
4.0583643700787402
21
-2.0096929527559055
0
LINE
8
BLACK
6
CONTINUOUS
10
4.0583643700787402
20
-2.0096929527559055
11
4.0511160236220469
21
-2.0232536614173227
0
LINE
8
BLACK
6
CONTINUOUS
10
4.0511160236220469
20
-2.0232536614173227
11
4.0452317716535431
21
-2.0374595275590552
0
LINE
8
BLACK
6
CONTINUOUS
10
4.0452317716535431
20
-2.0374595275590552
11
4.0407682283464563
21
-2.0521737401574804
0
LINE
8
BLACK
6
CONTINUOUS
10
4.0407682283464563
20
-2.0521737401574804
11
4.0377684645669287
21
-2.0672546062992128
0
LINE
8
BLACK
6
CONTINUOUS
10
4.0377684645669287
20
-2.0672546062992128
11
4.0362613385826771
21
-2.0825568897637794
0
LINE
8
BLACK
6
CONTINUOUS
10
4.0362613385826771
20
-2.0825568897637794
11
4.0362613385826771
21
-2.0979331889763779
0
LINE
8
BLACK
6
CONTINUOUS
10
3.4774137007874013
20
-1.602909842519685
11
3.4874868110236221
21
-1.6056088976377951
0
LINE
8
BLACK
6
CONTINUOUS
10
3.4874868110236221
20
-1.6056088976377951
11
3.4971214566929132
21
-1.6095997244094489
0
LINE
8
BLACK
6
CONTINUOUS
10
3.4971214566929132
20
-1.6095997244094489
11
3.5061527559055117
21
-1.614813937007874
0
LINE
8
BLACK
6
CONTINUOUS
10
3.5061527559055117
20
-1.614813937007874
11
3.5144261811023623
21
-1.6211623622047244
0
LINE
8
BLACK
6
CONTINUOUS
10
3.5144261811023623
20
-1.6211623622047244
11
3.5218002362204723
21
-1.6285364173228347
0
LINE
8
BLACK
6
CONTINUOUS
10
3.5218002362204723
20
-1.6285364173228347
11
3.528148661417323
21
-1.6368098425196851
0
LINE
8
BLACK
6
CONTINUOUS
10
3.528148661417323
20
-1.6368098425196851
11
3.5333628740157481
21
-1.6458411417322834
0
LINE
8
BLACK
6
CONTINUOUS
10
3.5333628740157481
20
-1.6458411417322834
11
3.5373537007874014
21
-1.6554757874015749
0
LINE
8
BLACK
6
CONTINUOUS
10
3.5373537007874014
20
-1.6554757874015749
11
3.5400527559055117
21
-1.6655488976377952
0
LINE
8
BLACK
6
CONTINUOUS
10
3.5400527559055117
20
-1.6655488976377952
11
3.5414139370078739
21
-1.6758881496062992
0
LINE
8
BLACK
6
CONTINUOUS
10
3.5414139370078739
20
-1.6758881496062992
11
3.5414139370078739
21
-1.6863165748031497
0
LINE
8
BLACK
6
CONTINUOUS
10
3.5414139370078739
20
-1.6863165748031497
11
3.5400527559055117
21
-1.6966558267716536
0
LINE
8
BLACK
6
CONTINUOUS
10
3.5400527559055117
20
-1.6966558267716536
11
3.5373537007874014
21
-1.706728937007874
0
LINE
8
BLACK
6
CONTINUOUS
10
3.5373537007874014
20
-1.706728937007874
11
3.5333628740157481
21
-1.7163635826771653
0
LINE
8
BLACK
6
CONTINUOUS
10
3.5333628740157481
20
-1.7163635826771653
11
3.528148661417323
21
-1.7253948818897638
0
LINE
8
BLACK
6
CONTINUOUS
10
3.528148661417323
20
-1.7253948818897638
11
3.5218002362204723
21
-1.7336683070866141
0
LINE
8
BLACK
6
CONTINUOUS
10
3.5218002362204723
20
-1.7336683070866141
11
3.5144261811023623
21
-1.7410423622047244
0
LINE
8
BLACK
6
CONTINUOUS
10
3.5144261811023623
20
-1.7410423622047244
11
3.5061527559055117
21
-1.7473907874015748
0
LINE
8
BLACK
6
CONTINUOUS
10
3.5061527559055117
20
-1.7473907874015748
11
3.4971214566929132
21
-1.752605
0
LINE
8
BLACK
6
CONTINUOUS
10
3.4971214566929132
20
-1.752605
11
3.4874868110236221
21
-1.7565958267716535
0
LINE
8
BLACK
6
CONTINUOUS
10
3.4874868110236221
20
-1.7565958267716535
11
3.4774137007874013
21
-1.7592948818897638
0
LINE
8
BLACK
6
CONTINUOUS
10
3.4774137007874013
20
-1.7592948818897638
11
3.4670744488188974
21
-1.760656062992126
0
LINE
8
BLACK
6
CONTINUOUS
10
3.4670744488188974
20
-1.760656062992126
11
3.4566460236220471
21
-1.760656062992126
0
LINE
8
BLACK
6
CONTINUOUS
10
3.4566460236220471
20
-1.760656062992126
11
3.4463067716535432
21
-1.7592948818897638
0
LINE
8
BLACK
6
CONTINUOUS
10
3.4463067716535432
20
-1.7592948818897638
11
3.4362336614173228
21
-1.7565958267716535
0
LINE
8
BLACK
6
CONTINUOUS
10
3.4362336614173228
20
-1.7565958267716535
11
3.4265990157480313
21
-1.752605
0
LINE
8
BLACK
6
CONTINUOUS
10
3.4265990157480313
20
-1.752605
11
3.4175677165354328
21
-1.7473907874015748
0
LINE
8
BLACK
6
CONTINUOUS
10
3.4175677165354328
20
-1.7473907874015748
11
3.4092942913385826
21
-1.7410423622047244
0
LINE
8
BLACK
6
CONTINUOUS
10
3.4092942913385826
20
-1.7410423622047244
11
3.4019202362204726
21
-1.7336683070866141
0
LINE
8
BLACK
6
CONTINUOUS
10
3.4019202362204726
20
-1.7336683070866141
11
3.3955718110236219
21
-1.7253948818897638
0
LINE
8
BLACK
6
CONTINUOUS
10
3.3955718110236219
20
-1.7253948818897638
11
3.3903575984251968
21
-1.7163635826771653
0
LINE
8
BLACK
6
CONTINUOUS
10
3.3903575984251968
20
-1.7163635826771653
11
3.3863667716535431
21
-1.706728937007874
0
LINE
8
BLACK
6
CONTINUOUS
10
3.3863667716535431
20
-1.706728937007874
11
3.3836677165354332
21
-1.6966558267716536
0
LINE
8
BLACK
6
CONTINUOUS
10
3.3836677165354332
20
-1.6966558267716536
11
3.3823065354330706
21
-1.6863165748031497
0
LINE
8
BLACK
6
CONTINUOUS
10
3.3823065354330706
20
-1.6863165748031497
11
3.3823065354330706
21
-1.6760059842519686
0
LINE
8
BLACK
6
CONTINUOUS
10
3.3823065354330706
20
-1.6760059842519686
11
3.3823065354330706
21
-1.6758881496062992
0
LINE
8
BLACK
6
CONTINUOUS
10
3.3823065354330706
20
-1.6758881496062992
11
3.3836677165354332
21
-1.6655488976377952
0
LINE
8
BLACK
6
CONTINUOUS
10
3.3836677165354332
20
-1.6655488976377952
11
3.3863667716535431
21
-1.6554757874015749
0
LINE
8
BLACK
6
CONTINUOUS
10
3.3863667716535431
20
-1.6554757874015749
11
3.3903575984251968
21
-1.6458411417322834
0
LINE
8
BLACK
6
CONTINUOUS
10
3.3903575984251968
20
-1.6458411417322834
11
3.3955718110236219
21
-1.6368098425196851
0
LINE
8
BLACK
6
CONTINUOUS
10
3.3955718110236219
20
-1.6368098425196851
11
3.4019202362204726
21
-1.6285364173228347
0
LINE
8
BLACK
6
CONTINUOUS
10
3.4019202362204726
20
-1.6285364173228347
11
3.4092942913385826
21
-1.6211623622047244
0
LINE
8
BLACK
6
CONTINUOUS
10
3.4092942913385826
20
-1.6211623622047244
11
3.4175677165354328
21
-1.614813937007874
0
LINE
8
BLACK
6
CONTINUOUS
10
3.4175677165354328
20
-1.614813937007874
11
3.4265990157480313
21
-1.6095997244094489
0
LINE
8
BLACK
6
CONTINUOUS
10
3.4265990157480313
20
-1.6095997244094489
11
3.4362336614173228
21
-1.6056088976377951
0
LINE
8
BLACK
6
CONTINUOUS
10
3.4362336614173228
20
-1.6056088976377951
11
3.4463067716535432
21
-1.602909842519685
0
LINE
8
BLACK
6
CONTINUOUS
10
3.4463067716535432
20
-1.602909842519685
11
3.4566460236220471
21
-1.6015486614173229
0
LINE
8
BLACK
6
CONTINUOUS
10
3.4566460236220471
20
-1.6015486614173229
11
3.4670744488188974
21
-1.6015486614173229
0
LINE
8
BLACK
6
CONTINUOUS
10
3.4670744488188974
20
-1.6015486614173229
11
3.4774137007874013
21
-1.602909842519685
0
LINE
8
BLACK
6
CONTINUOUS
10
3.3841043307086611
20
-1.6861987401574803
11
3.3854347637795277
21
-1.6963043307086614
0
LINE
8
BLACK
6
CONTINUOUS
10
3.3854347637795277
20
-1.6963043307086614
11
3.3880728346456692
21
-1.7061498031496063
0
LINE
8
BLACK
6
CONTINUOUS
10
3.3880728346456692
20
-1.7061498031496063
11
3.3919734251968503
21
-1.7155667322834645
0
LINE
8
BLACK
6
CONTINUOUS
10
3.3919734251968503
20
-1.7155667322834645
11
3.3970698425196848
21
-1.724393937007874
0
LINE
8
BLACK
6
CONTINUOUS
10
3.3970698425196848
20
-1.724393937007874
11
3.4032748031496061
21
-1.7324803937007873
0
LINE
8
BLACK
6
CONTINUOUS
10
3.4032748031496061
20
-1.7324803937007873
11
3.4104822047244094
21
-1.7396877952755905
0
LINE
8
BLACK
6
CONTINUOUS
10
3.4104822047244094
20
-1.7396877952755905
11
3.4185686614173227
21
-1.7458927559055117
0
LINE
8
BLACK
6
CONTINUOUS
10
3.4185686614173227
20
-1.7458927559055117
11
3.4273958661417323
21
-1.7509891732283465
0
LINE
8
BLACK
6
CONTINUOUS
10
3.4273958661417323
20
-1.7509891732283465
11
3.4368127952755905
21
-1.7548897637795275
0
LINE
8
BLACK
6
CONTINUOUS
10
3.4368127952755905
20
-1.7548897637795275
11
3.4466582677165354
21
-1.7575278346456693
0
LINE
8
BLACK
6
CONTINUOUS
10
3.4466582677165354
20
-1.7575278346456693
11
3.4567638582677165
21
-1.7588582677165354
0
LINE
8
BLACK
6
CONTINUOUS
10
3.4567638582677165
20
-1.7588582677165354
11
3.4669566141732284
21
-1.7588582677165354
0
LINE
8
BLACK
6
CONTINUOUS
10
3.4669566141732284
20
-1.7588582677165354
11
3.4770622047244095
21
-1.7575278346456693
0
LINE
8
BLACK
6
CONTINUOUS
10
3.4770622047244095
20
-1.7575278346456693
11
3.4869076771653544
21
-1.7548897637795275
0
LINE
8
BLACK
6
CONTINUOUS
10
3.4869076771653544
20
-1.7548897637795275
11
3.4963246062992126
21
-1.7509891732283465
0
LINE
8
BLACK
6
CONTINUOUS
10
3.4963246062992126
20
-1.7509891732283465
11
3.5051518110236222
21
-1.7458927559055117
0
LINE
8
BLACK
6
CONTINUOUS
10
3.5051518110236222
20
-1.7458927559055117
11
3.5132382677165355
21
-1.7396877952755905
0
LINE
8
BLACK
6
CONTINUOUS
10
3.5132382677165355
20
-1.7396877952755905
11
3.5204456692913384
21
-1.7324803937007873
0
LINE
8
BLACK
6
CONTINUOUS
10
3.5204456692913384
20
-1.7324803937007873
11
3.5266506299212597
21
-1.724393937007874
0
LINE
8
BLACK
6
CONTINUOUS
10
3.5266506299212597
20
-1.724393937007874
11
3.5317470472440946
21
-1.7155667322834645
0
LINE
8
BLACK
6
CONTINUOUS
10
3.5317470472440946
20
-1.7155667322834645
11
3.5356476377952757
21
-1.7061498031496063
0
LINE
8
BLACK
6
CONTINUOUS
10
3.5356476377952757
20
-1.7061498031496063
11
3.5382857086614172
21
-1.6963043307086614
0
LINE
8
BLACK
6
CONTINUOUS
10
3.5382857086614172
20
-1.6963043307086614
11
3.5396161417322833
21
-1.6861987401574803
0
LINE
8
BLACK
6
CONTINUOUS
10
3.5396161417322833
20
-1.6861987401574803
11
3.5396161417322833
21
-1.6760059842519686
0
LINE
8
BLACK
6
CONTINUOUS
10
3.5396161417322833
20
-1.6760059842519686
11
3.5382857086614172
21
-1.6659003937007875
0
LINE
8
BLACK
6
CONTINUOUS
10
3.5382857086614172
20
-1.6659003937007875
11
3.5356476377952757
21
-1.6560549212598425
0
LINE
8
BLACK
6
CONTINUOUS
10
3.5356476377952757
20
-1.6560549212598425
11
3.5317470472440946
21
-1.6466379921259842
0
LINE
8
BLACK
6
CONTINUOUS
10
3.5317470472440946
20
-1.6466379921259842
11
3.5266506299212597
21
-1.6378107874015748
0
LINE
8
BLACK
6
CONTINUOUS
10
3.5266506299212597
20
-1.6378107874015748
11
3.5204456692913384
21
-1.6297243307086613
0
LINE
8
BLACK
6
CONTINUOUS
10
3.5204456692913384
20
-1.6297243307086613
11
3.5132382677165355
21
-1.6225169291338581
0
LINE
8
BLACK
6
CONTINUOUS
10
3.5132382677165355
20
-1.6225169291338581
11
3.5051518110236222
21
-1.6163119685039369
0
LINE
8
BLACK
6
CONTINUOUS
10
3.5051518110236222
20
-1.6163119685039369
11
3.4963246062992126
21
-1.6112155511811024
0
LINE
8
BLACK
6
CONTINUOUS
10
3.4963246062992126
20
-1.6112155511811024
11
3.4869076771653544
21
-1.6073149606299213
0
LINE
8
BLACK
6
CONTINUOUS
10
3.4869076771653544
20
-1.6073149606299213
11
3.4770622047244095
21
-1.6046768897637795
0
LINE
8
BLACK
6
CONTINUOUS
10
3.4770622047244095
20
-1.6046768897637795
11
3.4669566141732284
21
-1.6033464566929134
0
LINE
8
BLACK
6
CONTINUOUS
10
3.4669566141732284
20
-1.6033464566929134
11
3.4567638582677165
21
-1.6033464566929134
0
LINE
8
BLACK
6
CONTINUOUS
10
3.4567638582677165
20
-1.6033464566929134
11
3.4466582677165354
21
-1.6046768897637795
0
LINE
8
BLACK
6
CONTINUOUS
10
3.4466582677165354
20
-1.6046768897637795
11
3.4368127952755905
21
-1.6073149606299213
0
LINE
8
BLACK
6
CONTINUOUS
10
3.4368127952755905
20
-1.6073149606299213
11
3.4273958661417323
21
-1.6112155511811024
0
LINE
8
BLACK
6
CONTINUOUS
10
3.4273958661417323
20
-1.6112155511811024
11
3.4185686614173227
21
-1.6163119685039369
0
LINE
8
BLACK
6
CONTINUOUS
10
3.4185686614173227
20
-1.6163119685039369
11
3.4104822047244094
21
-1.6225169291338581
0
LINE
8
BLACK
6
CONTINUOUS
10
3.4104822047244094
20
-1.6225169291338581
11
3.4032748031496061
21
-1.6297243307086613
0
LINE
8
BLACK
6
CONTINUOUS
10
3.4032748031496061
20
-1.6297243307086613
11
3.3970698425196848
21
-1.6378107874015748
0
LINE
8
BLACK
6
CONTINUOUS
10
3.3970698425196848
20
-1.6378107874015748
11
3.3919734251968503
21
-1.6466379921259842
0
LINE
8
BLACK
6
CONTINUOUS
10
3.3919734251968503
20
-1.6466379921259842
11
3.3880728346456692
21
-1.6560549212598425
0
LINE
8
BLACK
6
CONTINUOUS
10
3.3880728346456692
20
-1.6560549212598425
11
3.3854347637795277
21
-1.6659003937007875
0
LINE
8
BLACK
6
CONTINUOUS
10
3.3854347637795277
20
-1.6659003937007875
11
3.3841043307086611
21
-1.6760059842519686
0
LINE
8
BLACK
6
CONTINUOUS
10
3.3841043307086611
20
-1.6760059842519686
11
3.3841043307086611
21
-1.6861987401574803
0
LINE
8
BLACK
6
CONTINUOUS
10
7.1782011023622045
20
-1.602909842519685
11
7.1882742125984249
21
-1.6056088976377951
0
LINE
8
BLACK
6
CONTINUOUS
10
7.1882742125984249
20
-1.6056088976377951
11
7.1979088582677164
21
-1.6095997244094489
0
LINE
8
BLACK
6
CONTINUOUS
10
7.1979088582677164
20
-1.6095997244094489
11
7.2069401574803145
21
-1.614813937007874
0
LINE
8
BLACK
6
CONTINUOUS
10
7.2069401574803145
20
-1.614813937007874
11
7.2152135826771655
21
-1.6211623622047244
0
LINE
8
BLACK
6
CONTINUOUS
10
7.2152135826771655
20
-1.6211623622047244
11
7.2225876377952751
21
-1.6285364173228347
0
LINE
8
BLACK
6
CONTINUOUS
10
7.2225876377952751
20
-1.6285364173228347
11
7.2289360629921262
21
-1.6368098425196851
0
LINE
8
BLACK
6
CONTINUOUS
10
7.2289360629921262
20
-1.6368098425196851
11
7.2341502755905509
21
-1.6458411417322834
0
LINE
8
BLACK
6
CONTINUOUS
10
7.2341502755905509
20
-1.6458411417322834
11
7.2381411023622046
21
-1.6554757874015749
0
LINE
8
BLACK
6
CONTINUOUS
10
7.2381411023622046
20
-1.6554757874015749
11
7.2408401574803145
21
-1.6655488976377952
0
LINE
8
BLACK
6
CONTINUOUS
10
7.2408401574803145
20
-1.6655488976377952
11
7.2422013385826771
21
-1.6758881496062992
0
LINE
8
BLACK
6
CONTINUOUS
10
7.2422013385826771
20
-1.6758881496062992
11
7.2422013385826771
21
-1.6863165748031497
0
LINE
8
BLACK
6
CONTINUOUS
10
7.2422013385826771
20
-1.6863165748031497
11
7.2408401574803145
21
-1.6966558267716536
0
LINE
8
BLACK
6
CONTINUOUS
10
7.2408401574803145
20
-1.6966558267716536
11
7.2381411023622046
21
-1.706728937007874
0
LINE
8
BLACK
6
CONTINUOUS
10
7.2381411023622046
20
-1.706728937007874
11
7.2341502755905509
21
-1.7163635826771653
0
LINE
8
BLACK
6
CONTINUOUS
10
7.2341502755905509
20
-1.7163635826771653
11
7.2289360629921262
21
-1.7253948818897638
0
LINE
8
BLACK
6
CONTINUOUS
10
7.2289360629921262
20
-1.7253948818897638
11
7.2225876377952751
21
-1.7336683070866141
0
LINE
8
BLACK
6
CONTINUOUS
10
7.2225876377952751
20
-1.7336683070866141
11
7.2152135826771655
21
-1.7410423622047244
0
LINE
8
BLACK
6
CONTINUOUS
10
7.2152135826771655
20
-1.7410423622047244
11
7.2069401574803145
21
-1.7473907874015748
0
LINE
8
BLACK
6
CONTINUOUS
10
7.2069401574803145
20
-1.7473907874015748
11
7.1979088582677164
21
-1.752605
0
LINE
8
BLACK
6
CONTINUOUS
10
7.1979088582677164
20
-1.752605
11
7.1882742125984249
21
-1.7565958267716535
0
LINE
8
BLACK
6
CONTINUOUS
10
7.1882742125984249
20
-1.7565958267716535
11
7.1782011023622045
21
-1.7592948818897638
0
LINE
8
BLACK
6
CONTINUOUS
10
7.1782011023622045
20
-1.7592948818897638
11
7.1678618503937006
21
-1.760656062992126
0
LINE
8
BLACK
6
CONTINUOUS
10
7.1678618503937006
20
-1.760656062992126
11
7.1574334251968503
21
-1.760656062992126
0
LINE
8
BLACK
6
CONTINUOUS
10
7.1574334251968503
20
-1.760656062992126
11
7.1470941732283464
21
-1.7592948818897638
0
LINE
8
BLACK
6
CONTINUOUS
10
7.1470941732283464
20
-1.7592948818897638
11
7.137021062992126
21
-1.7565958267716535
0
LINE
8
BLACK
6
CONTINUOUS
10
7.137021062992126
20
-1.7565958267716535
11
7.1273864173228345
21
-1.752605
0
LINE
8
BLACK
6
CONTINUOUS
10
7.1273864173228345
20
-1.752605
11
7.1183551181102365
21
-1.7473907874015748
0
LINE
8
BLACK
6
CONTINUOUS
10
7.1183551181102365
20
-1.7473907874015748
11
7.1100816929133854
21
-1.7410423622047244
0
LINE
8
BLACK
6
CONTINUOUS
10
7.1100816929133854
20
-1.7410423622047244
11
7.1027076377952758
21
-1.7336683070866141
0
LINE
8
BLACK
6
CONTINUOUS
10
7.1027076377952758
20
-1.7336683070866141
11
7.0963592125984247
21
-1.7253948818897638
0
LINE
8
BLACK
6
CONTINUOUS
10
7.0963592125984247
20
-1.7253948818897638
11
7.091145
21
-1.7163635826771653
0
LINE
8
BLACK
6
CONTINUOUS
10
7.091145
20
-1.7163635826771653
11
7.0871541732283463
21
-1.706728937007874
0
LINE
8
BLACK
6
CONTINUOUS
10
7.0871541732283463
20
-1.706728937007874
11
7.0844551181102364
21
-1.6966558267716536
0
LINE
8
BLACK
6
CONTINUOUS
10
7.0844551181102364
20
-1.6966558267716536
11
7.0830939370078738
21
-1.6863165748031497
0
LINE
8
BLACK
6
CONTINUOUS
10
7.0830939370078738
20
-1.6863165748031497
11
7.0830939370078738
21
-1.6760059842519686
0
LINE
8
BLACK
6
CONTINUOUS
10
7.0830939370078738
20
-1.6760059842519686
11
7.0830939370078738
21
-1.6758881496062992
0
LINE
8
BLACK
6
CONTINUOUS
10
7.0830939370078738
20
-1.6758881496062992
11
7.0844551181102364
21
-1.6655488976377952
0
LINE
8
BLACK
6
CONTINUOUS
10
7.0844551181102364
20
-1.6655488976377952
11
7.0871541732283463
21
-1.6554757874015749
0
LINE
8
BLACK
6
CONTINUOUS
10
7.0871541732283463
20
-1.6554757874015749
11
7.091145
21
-1.6458411417322834
0
LINE
8
BLACK
6
CONTINUOUS
10
7.091145
20
-1.6458411417322834
11
7.0963592125984247
21
-1.6368098425196851
0
LINE
8
BLACK
6
CONTINUOUS
10
7.0963592125984247
20
-1.6368098425196851
11
7.1027076377952758
21
-1.6285364173228347
0
LINE
8
BLACK
6
CONTINUOUS
10
7.1027076377952758
20
-1.6285364173228347
11
7.1100816929133854
21
-1.6211623622047244
0
LINE
8
BLACK
6
CONTINUOUS
10
7.1100816929133854
20
-1.6211623622047244
11
7.1183551181102365
21
-1.614813937007874
0
LINE
8
BLACK
6
CONTINUOUS
10
7.1183551181102365
20
-1.614813937007874
11
7.1273864173228345
21
-1.6095997244094489
0
LINE
8
BLACK
6
CONTINUOUS
10
7.1273864173228345
20
-1.6095997244094489
11
7.137021062992126
21
-1.6056088976377951
0
LINE
8
BLACK
6
CONTINUOUS
10
7.137021062992126
20
-1.6056088976377951
11
7.1470941732283464
21
-1.602909842519685
0
LINE
8
BLACK
6
CONTINUOUS
10
7.1470941732283464
20
-1.602909842519685
11
7.1574334251968503
21
-1.6015486614173229
0
LINE
8
BLACK
6
CONTINUOUS
10
7.1574334251968503
20
-1.6015486614173229
11
7.1678618503937006
21
-1.6015486614173229
0
LINE
8
BLACK
6
CONTINUOUS
10
7.1678618503937006
20
-1.6015486614173229
11
7.1782011023622045
21
-1.602909842519685
0
LINE
8
BLACK
6
CONTINUOUS
10
7.0848917322834648
20
-1.6861987401574803
11
7.0862221653543305
21
-1.6963043307086614
0
LINE
8
BLACK
6
CONTINUOUS
10
7.0862221653543305
20
-1.6963043307086614
11
7.088860236220472
21
-1.7061498031496063
0
LINE
8
BLACK
6
CONTINUOUS
10
7.088860236220472
20
-1.7061498031496063
11
7.0927608267716531
21
-1.7155667322834645
0
LINE
8
BLACK
6
CONTINUOUS
10
7.0927608267716531
20
-1.7155667322834645
11
7.097857244094488
21
-1.724393937007874
0
LINE
8
BLACK
6
CONTINUOUS
10
7.097857244094488
20
-1.724393937007874
11
7.1040622047244089
21
-1.7324803937007873
0
LINE
8
BLACK
6
CONTINUOUS
10
7.1040622047244089
20
-1.7324803937007873
11
7.1112696062992127
21
-1.7396877952755905
0
LINE
8
BLACK
6
CONTINUOUS
10
7.1112696062992127
20
-1.7396877952755905
11
7.119356062992126
21
-1.7458927559055117
0
LINE
8
BLACK
6
CONTINUOUS
10
7.119356062992126
20
-1.7458927559055117
11
7.1281832677165351
21
-1.7509891732283465
0
LINE
8
BLACK
6
CONTINUOUS
10
7.1281832677165351
20
-1.7509891732283465
11
7.1376001968503937
21
-1.7548897637795275
0
LINE
8
BLACK
6
CONTINUOUS
10
7.1376001968503937
20
-1.7548897637795275
11
7.1474456692913382
21
-1.7575278346456693
0
LINE
8
BLACK
6
CONTINUOUS
10
7.1474456692913382
20
-1.7575278346456693
11
7.1575512598425197
21
-1.7588582677165354
0
LINE
8
BLACK
6
CONTINUOUS
10
7.1575512598425197
20
-1.7588582677165354
11
7.1677440157480312
21
-1.7588582677165354
0
LINE
8
BLACK
6
CONTINUOUS
10
7.1677440157480312
20
-1.7588582677165354
11
7.1778496062992128
21
-1.7575278346456693
0
LINE
8
BLACK
6
CONTINUOUS
10
7.1778496062992128
20
-1.7575278346456693
11
7.1876950787401572
21
-1.7548897637795275
0
LINE
8
BLACK
6
CONTINUOUS
10
7.1876950787401572
20
-1.7548897637795275
11
7.1971120078740158
21
-1.7509891732283465
0
LINE
8
BLACK
6
CONTINUOUS
10
7.1971120078740158
20
-1.7509891732283465
11
7.205939212598425
21
-1.7458927559055117
0
LINE
8
BLACK
6
CONTINUOUS
10
7.205939212598425
20
-1.7458927559055117
11
7.2140256692913383
21
-1.7396877952755905
0
LINE
8
BLACK
6
CONTINUOUS
10
7.2140256692913383
20
-1.7396877952755905
11
7.2212330708661412
21
-1.7324803937007873
0
LINE
8
BLACK
6
CONTINUOUS
10
7.2212330708661412
20
-1.7324803937007873
11
7.2274380314960629
21
-1.724393937007874
0
LINE
8
BLACK
6
CONTINUOUS
10
7.2274380314960629
20
-1.724393937007874
11
7.2325344488188978
21
-1.7155667322834645
0
LINE
8
BLACK
6
CONTINUOUS
10
7.2325344488188978
20
-1.7155667322834645
11
7.2364350393700789
21
-1.7061498031496063
0
LINE
8
BLACK
6
CONTINUOUS
10
7.2364350393700789
20
-1.7061498031496063
11
7.2390731102362205
21
-1.6963043307086614
0
LINE
8
BLACK
6
CONTINUOUS
10
7.2390731102362205
20
-1.6963043307086614
11
7.2404035433070861
21
-1.6861987401574803
0
LINE
8
BLACK
6
CONTINUOUS
10
7.2404035433070861
20
-1.6861987401574803
11
7.2404035433070861
21
-1.6760059842519686
0
LINE
8
BLACK
6
CONTINUOUS
10
7.2404035433070861
20
-1.6760059842519686
11
7.2390731102362205
21
-1.6659003937007875
0
LINE
8
BLACK
6
CONTINUOUS
10
7.2390731102362205
20
-1.6659003937007875
11
7.2364350393700789
21
-1.6560549212598425
0
LINE
8
BLACK
6
CONTINUOUS
10
7.2364350393700789
20
-1.6560549212598425
11
7.2325344488188978
21
-1.6466379921259842
0
LINE
8
BLACK
6
CONTINUOUS
10
7.2325344488188978
20
-1.6466379921259842
11
7.2274380314960629
21
-1.6378107874015748
0
LINE
8
BLACK
6
CONTINUOUS
10
7.2274380314960629
20
-1.6378107874015748
11
7.2212330708661412
21
-1.6297243307086613
0
LINE
8
BLACK
6
CONTINUOUS
10
7.2212330708661412
20
-1.6297243307086613
11
7.2140256692913383
21
-1.6225169291338581
0
LINE
8
BLACK
6
CONTINUOUS
10
7.2140256692913383
20
-1.6225169291338581
11
7.205939212598425
21
-1.6163119685039369
0
LINE
8
BLACK
6
CONTINUOUS
10
7.205939212598425
20
-1.6163119685039369
11
7.1971120078740158
21
-1.6112155511811024
0
LINE
8
BLACK
6
CONTINUOUS
10
7.1971120078740158
20
-1.6112155511811024
11
7.1876950787401572
21
-1.6073149606299213
0
LINE
8
BLACK
6
CONTINUOUS
10
7.1876950787401572
20
-1.6073149606299213
11
7.1778496062992128
21
-1.6046768897637795
0
LINE
8
BLACK
6
CONTINUOUS
10
7.1778496062992128
20
-1.6046768897637795
11
7.1677440157480312
21
-1.6033464566929134
0
LINE
8
BLACK
6
CONTINUOUS
10
7.1677440157480312
20
-1.6033464566929134
11
7.1575512598425197
21
-1.6033464566929134
0
LINE
8
BLACK
6
CONTINUOUS
10
7.1575512598425197
20
-1.6033464566929134
11
7.1474456692913382
21
-1.6046768897637795
0
LINE
8
BLACK
6
CONTINUOUS
10
7.1474456692913382
20
-1.6046768897637795
11
7.1376001968503937
21
-1.6073149606299213
0
LINE
8
BLACK
6
CONTINUOUS
10
7.1376001968503937
20
-1.6073149606299213
11
7.1281832677165351
21
-1.6112155511811024
0
LINE
8
BLACK
6
CONTINUOUS
10
7.1281832677165351
20
-1.6112155511811024
11
7.119356062992126
21
-1.6163119685039369
0
LINE
8
BLACK
6
CONTINUOUS
10
7.119356062992126
20
-1.6163119685039369
11
7.1112696062992127
21
-1.6225169291338581
0
LINE
8
BLACK
6
CONTINUOUS
10
7.1112696062992127
20
-1.6225169291338581
11
7.1040622047244089
21
-1.6297243307086613
0
LINE
8
BLACK
6
CONTINUOUS
10
7.1040622047244089
20
-1.6297243307086613
11
7.097857244094488
21
-1.6378107874015748
0
LINE
8
BLACK
6
CONTINUOUS
10
7.097857244094488
20
-1.6378107874015748
11
7.0927608267716531
21
-1.6466379921259842
0
LINE
8
BLACK
6
CONTINUOUS
10
7.0927608267716531
20
-1.6466379921259842
11
7.088860236220472
21
-1.6560549212598425
0
LINE
8
BLACK
6
CONTINUOUS
10
7.088860236220472
20
-1.6560549212598425
11
7.0862221653543305
21
-1.6659003937007875
0
LINE
8
BLACK
6
CONTINUOUS
10
7.0862221653543305
20
-1.6659003937007875
11
7.0848917322834648
21
-1.6760059842519686
0
LINE
8
BLACK
6
CONTINUOUS
10
7.0848917322834648
20
-1.6760059842519686
11
7.0848917322834648
21
-1.6861987401574803
0
LINE
8
BLACK
6
CONTINUOUS
10
4.9070033070866144
20
-1.5606813385826772
11
4.9080686614173228
21
-1.5617466929133859
0
LINE
8
BLACK
6
CONTINUOUS
10
4.9080686614173228
20
-1.5617466929133859
11
4.9082185039370074
21
-1.5625
0
LINE
8
BLACK
6
CONTINUOUS
10
4.9082185039370074
20
-1.5625
11
4.9082185039370074
21
-2.5292814960629921
0
LINE
8
BLACK
6
CONTINUOUS
10
4.9082185039370074
20
-2.5292814960629921
11
5.7167814960629917
21
-2.5292814960629921
0
LINE
8
BLACK
6
CONTINUOUS
10
5.7167814960629917
20
-2.5292814960629921
11
5.7167814960629917
21
-1.5625
0
LINE
8
BLACK
6
CONTINUOUS
10
5.7167814960629917
20
-1.5625
11
5.7169313385826772
21
-1.5617466929133859
0
LINE
8
BLACK
6
CONTINUOUS
10
5.7169313385826772
20
-1.5617466929133859
11
5.7179966929133856
21
-1.5606813385826772
0
LINE
8
BLACK
6
CONTINUOUS
10
5.7179966929133856
20
-1.5606813385826772
11
5.71875
21
-1.5605314960629921
0
LINE
8
BLACK
6
CONTINUOUS
10
5.71875
20
-1.5605314960629921
11
7.28125
21
-1.5605314960629921
0
LINE
8
BLACK
6
CONTINUOUS
10
7.28125
20
-1.5605314960629921
11
7.2820033070866144
21
-1.5606813385826772
0
LINE
8
BLACK
6
CONTINUOUS
10
7.2820033070866144
20
-1.5606813385826772
11
7.2830686614173228
21
-1.5617466929133859
0
LINE
8
BLACK
6
CONTINUOUS
10
7.2830686614173228
20
-1.5617466929133859
11
7.2832185039370074
21
-1.5625
0
LINE
8
BLACK
6
CONTINUOUS
10
7.2832185039370074
20
-1.5625
11
7.2832185039370074
21
-5.5
0
LINE
8
BLACK
6
CONTINUOUS
10
7.2832185039370074
20
-5.5
11
7.2830686614173228
21
-5.5007533070866144
0
LINE
8
BLACK
6
CONTINUOUS
10
7.2830686614173228
20
-5.5007533070866144
11
7.2820033070866144
21
-5.5018186614173228
0
LINE
8
BLACK
6
CONTINUOUS
10
7.2820033070866144
20
-5.5018186614173228
11
7.28125
21
-5.5019685039370074
0
LINE
8
BLACK
6
CONTINUOUS
10
7.28125
20
-5.5019685039370074
11
3.34375
21
-5.5019685039370074
0
LINE
8
BLACK
6
CONTINUOUS
10
3.34375
20
-5.5019685039370074
11
3.3429966929133856
21
-5.5018186614173228
0
LINE
8
BLACK
6
CONTINUOUS
10
3.3429966929133856
20
-5.5018186614173228
11
3.3419313385826772
21
-5.5007533070866144
0
LINE
8
BLACK
6
CONTINUOUS
10
3.3419313385826772
20
-5.5007533070866144
11
3.3417814960629921
21
-5.5
0
LINE
8
BLACK
6
CONTINUOUS
10
3.3417814960629921
20
-5.5
11
3.3417814960629921
21
-1.5625
0
LINE
8
BLACK
6
CONTINUOUS
10
3.3417814960629921
20
-1.5625
11
3.3419313385826772
21
-1.5617466929133859
0
LINE
8
BLACK
6
CONTINUOUS
10
3.3419313385826772
20
-1.5617466929133859
11
3.3429966929133856
21
-1.5606813385826772
0
LINE
8
BLACK
6
CONTINUOUS
10
3.3429966929133856
20
-1.5606813385826772
11
3.34375
21
-1.5605314960629921
0
LINE
8
BLACK
6
CONTINUOUS
10
3.34375
20
-1.5605314960629921
11
4.90625
21
-1.5605314960629921
0
LINE
8
BLACK
6
CONTINUOUS
10
4.90625
20
-1.5605314960629921
11
4.9070033070866144
21
-1.5606813385826772
0
LINE
8
BLACK
6
CONTINUOUS
10
3.3457185039370079
20
-1.5644685039370079
11
3.3457185039370079
21
-5.4980314960629917
0
LINE
8
BLACK
6
CONTINUOUS
10
3.3457185039370079
20
-5.4980314960629917
11
7.2792814960629917
21
-5.4980314960629917
0
LINE
8
BLACK
6
CONTINUOUS
10
7.2792814960629917
20
-5.4980314960629917
11
7.2792814960629917
21
-1.5644685039370079
0
LINE
8
BLACK
6
CONTINUOUS
10
7.2792814960629917
20
-1.5644685039370079
11
5.7207185039370074
21
-1.5644685039370079
0
LINE
8
BLACK
6
CONTINUOUS
10
5.7207185039370074
20
-1.5644685039370079
11
5.7207185039370074
21
-2.53125
0
LINE
8
BLACK
6
CONTINUOUS
10
5.7207185039370074
20
-2.53125
11
5.7205686614173228
21
-2.5320033070866139
0
LINE
8
BLACK
6
CONTINUOUS
10
5.7205686614173228
20
-2.5320033070866139
11
5.7195033070866144
21
-2.5330686614173228
0
LINE
8
BLACK
6
CONTINUOUS
10
5.7195033070866144
20
-2.5330686614173228
11
5.71875
21
-2.5332185039370079
0
LINE
8
BLACK
6
CONTINUOUS
10
5.71875
20
-2.5332185039370079
11
4.90625
21
-2.5332185039370079
0
LINE
8
BLACK
6
CONTINUOUS
10
4.90625
20
-2.5332185039370079
11
4.9054966929133856
21
-2.5330686614173228
0
LINE
8
BLACK
6
CONTINUOUS
10
4.9054966929133856
20
-2.5330686614173228
11
4.9044313385826772
21
-2.5320033070866139
0
LINE
8
BLACK
6
CONTINUOUS
10
4.9044313385826772
20
-2.5320033070866139
11
4.9042814960629917
21
-2.53125
0
LINE
8
BLACK
6
CONTINUOUS
10
4.9042814960629917
20
-2.53125
11
4.9042814960629917
21
-1.5644685039370079
0
LINE
8
BLACK
6
CONTINUOUS
10
4.9042814960629917
20
-1.5644685039370079
11
3.3457185039370079
21
-1.5644685039370079
  0
ENDSEC
  0
EOF
